EBKetab-Regular.ufo
<glyph name="exclam" format="2">
  <advance width="393"/>
  <unicode hex="0021"/>
  <outline>
    <contour>
      <point x="283" y="922" type="curve"/>
      <point x="224" y="884"/>
      <point x="195" y="850"/>
      <point x="195" y="821" type="curve"/>
      <point x="195" y="795" type="line"/>
      <point x="186" y="725" type="line"/>
      <point x="186" y="715"/>
      <point x="190" y="703"/>
      <point x="199" y="690" type="curve"/>
      <point x="195" y="639" type="line"/>
      <point x="213" y="551" type="line"/>
      <point x="213" y="547" type="line"/>
      <point x="211" y="526" type="line"/>
      <point x="215" y="526"/>
      <point x="217" y="519"/>
      <point x="217" y="506" type="curve"/>
      <point x="213" y="469" type="line"/>
      <point x="217" y="459" type="line"/>
      <point x="211" y="430" type="line"/>
      <point x="217" y="397" type="line"/>
      <point x="217" y="367" type="line"/>
      <point x="217" y="354"/>
      <point x="225" y="317"/>
      <point x="242" y="258" type="curve"/>
      <point x="233" y="246" type="line"/>
      <point x="233" y="242" type="line"/>
      <point x="246" y="229" type="line"/>
      <point x="247" y="206"/>
      <point x="264" y="195"/>
      <point x="299" y="195" type="curve"/>
      <point x="309" y="199" type="line"/>
      <point x="320" y="199"/>
      <point x="332" y="244"/>
      <point x="346" y="334" type="curve"/>
      <point x="342" y="371" type="line"/>
      <point x="347" y="446"/>
      <point x="355" y="493"/>
      <point x="367" y="510" type="curve"/>
      <point x="362" y="543" type="line"/>
      <point x="385" y="803" type="line"/>
      <point x="383" y="813" type="line"/>
      <point x="385" y="829" type="line"/>
      <point x="365" y="891"/>
      <point x="331" y="922"/>
    </contour>
    <contour>
      <point x="287" y="162" type="curve"/>
      <point x="265" y="158"/>
      <point x="254" y="152"/>
      <point x="254" y="145" type="curve"/>
      <point x="235" y="140"/>
      <point x="225" y="134"/>
      <point x="225" y="127" type="curve"/>
      <point x="196" y="119"/>
      <point x="182" y="107"/>
      <point x="182" y="90" type="curve"/>
      <point x="186" y="57" type="line"/>
      <point x="182" y="27" type="line"/>
      <point x="211" y="-23" type="line"/>
      <point x="221" y="-43"/>
      <point x="251" y="-53"/>
      <point x="301" y="-53" type="curve"/>
      <point x="356" y="-30"/>
      <point x="383" y="4"/>
      <point x="383" y="49" type="curve"/>
      <point x="371" y="94" type="line"/>
      <point x="371" y="121"/>
      <point x="343" y="144"/>
    </contour>
  </outline>
</glyph>
<glyph name="quotedbl" format="2">
  <advance width="442"/>
  <unicode hex="0022"/>
  <outline>
    <contour>
      <point x="72" y="1219" type="line"/>
      <point x="83" y="923" type="line"/>
      <point x="145" y="923" type="line"/>
      <point x="166" y="1219" type="line"/>
    </contour>
    <contour>
      <point x="268" y="1219" type="line"/>
      <point x="279" y="923" type="line"/>
      <point x="340" y="923" type="line"/>
      <point x="361" y="1219" type="line"/>
    </contour>
  </outline>
</glyph>
<glyph name="numbersign" format="2">
  <advance width="870"/>
  <unicode hex="0023"/>
  <outline>
    <contour>
      <point x="631" y="377" type="line"/>
      <point x="819" y="377" type="line"/>
      <point x="819" y="471" type="line"/>
      <point x="645" y="471" type="line"/>
      <point x="682" y="705" type="line"/>
      <point x="864" y="705" type="line"/>
      <point x="864" y="801" type="line"/>
      <point x="694" y="801" type="line"/>
      <point x="748" y="1153" type="line"/>
      <point x="645" y="1153" type="line"/>
      <point x="594" y="801" type="line"/>
      <point x="362" y="801" type="line"/>
      <point x="416" y="1153" type="line"/>
      <point x="315" y="1153" type="line"/>
      <point x="260" y="801" type="line"/>
      <point x="55" y="801" type="line"/>
      <point x="55" y="705" type="line"/>
      <point x="248" y="705" type="line"/>
      <point x="211" y="471" type="line"/>
      <point x="8" y="471" type="line"/>
      <point x="8" y="377" type="line"/>
      <point x="195" y="377" type="line"/>
      <point x="137" y="0" type="line"/>
      <point x="240" y="0" type="line"/>
      <point x="297" y="377" type="line"/>
      <point x="530" y="377" type="line"/>
      <point x="475" y="0" type="line"/>
      <point x="575" y="0" type="line"/>
    </contour>
    <contour>
      <point x="311" y="471" type="line"/>
      <point x="348" y="705" type="line"/>
      <point x="580" y="705" type="line"/>
      <point x="545" y="471" type="line"/>
    </contour>
  </outline>
</glyph>
<glyph name="dollar" format="2">
  <advance width="870"/>
  <unicode hex="0024"/>
  <outline>
    <contour>
      <point x="715" y="870" type="curve"/>
      <point x="739" y="870" type="line"/>
      <point x="739" y="1063" type="line"/>
      <point x="724" y="1075"/>
      <point x="708" y="1086"/>
      <point x="691" y="1096" type="curve"/>
      <point x="674" y="1105"/>
      <point x="654" y="1114"/>
      <point x="632" y="1122" type="curve"/>
      <point x="609" y="1129"/>
      <point x="584" y="1136"/>
      <point x="557" y="1141" type="curve"/>
      <point x="529" y="1146"/>
      <point x="497" y="1151"/>
      <point x="461" y="1155" type="curve"/>
      <point x="461" y="1266" type="line"/>
      <point x="399" y="1266" type="line"/>
      <point x="399" y="1155" type="line"/>
      <point x="372" y="1152"/>
      <point x="348" y="1149"/>
      <point x="329" y="1146" type="curve"/>
      <point x="309" y="1142"/>
      <point x="291" y="1137"/>
      <point x="275" y="1132" type="curve"/>
      <point x="258" y="1127"/>
      <point x="243" y="1120"/>
      <point x="229" y="1112" type="curve"/>
      <point x="214" y="1104"/>
      <point x="199" y="1094"/>
      <point x="184" y="1083" type="curve"/>
      <point x="154" y="1060"/>
      <point x="131" y="1032"/>
      <point x="115" y="999" type="curve"/>
      <point x="98" y="966"/>
      <point x="90" y="930"/>
      <point x="90" y="893" type="curve"/>
      <point x="90" y="851"/>
      <point x="98" y="814"/>
      <point x="113" y="782" type="curve"/>
      <point x="128" y="749"/>
      <point x="153" y="717"/>
      <point x="188" y="684" type="curve"/>
      <point x="200" y="672"/>
      <point x="212" y="661"/>
      <point x="225" y="651" type="curve"/>
      <point x="237" y="641"/>
      <point x="251" y="631"/>
      <point x="267" y="620" type="curve"/>
      <point x="283" y="609"/>
      <point x="302" y="597"/>
      <point x="323" y="584" type="curve"/>
      <point x="344" y="571"/>
      <point x="370" y="557"/>
      <point x="399" y="541" type="curve"/>
      <point x="399" y="47" type="line"/>
      <point x="317" y="48"/>
      <point x="252" y="71"/>
      <point x="205" y="114" type="curve"/>
      <point x="157" y="157"/>
      <point x="123" y="224"/>
      <point x="102" y="315" type="curve"/>
      <point x="76" y="315" type="line"/>
      <point x="76" y="88" type="line"/>
      <point x="101" y="72"/>
      <point x="126" y="59"/>
      <point x="150" y="49" type="curve"/>
      <point x="173" y="38"/>
      <point x="198" y="30"/>
      <point x="223" y="23" type="curve"/>
      <point x="248" y="16"/>
      <point x="274" y="11"/>
      <point x="303" y="8" type="curve"/>
      <point x="331" y="4"/>
      <point x="363" y="1"/>
      <point x="399" y="0" type="curve"/>
      <point x="399" y="-152" type="line"/>
      <point x="461" y="-152" type="line"/>
      <point x="461" y="0" type="line"/>
      <point x="493" y="6"/>
      <point x="521" y="12"/>
      <point x="544" y="17" type="curve"/>
      <point x="567" y="22"/>
      <point x="588" y="29"/>
      <point x="607" y="36" type="curve"/>
      <point x="626" y="43"/>
      <point x="643" y="51"/>
      <point x="659" y="60" type="curve"/>
      <point x="674" y="69"/>
      <point x="690" y="79"/>
      <point x="705" y="92" type="curve"/>
      <point x="734" y="117"/>
      <point x="756" y="147"/>
      <point x="773" y="182" type="curve"/>
      <point x="789" y="217"/>
      <point x="797" y="255"/>
      <point x="797" y="297" type="curve"/>
      <point x="797" y="327"/>
      <point x="794" y="356"/>
      <point x="787" y="385" type="curve"/>
      <point x="780" y="413"/>
      <point x="771" y="436"/>
      <point x="762" y="453" type="curve"/>
      <point x="750" y="471"/>
      <point x="737" y="487"/>
      <point x="724" y="501" type="curve"/>
      <point x="711" y="515"/>
      <point x="693" y="530"/>
      <point x="672" y="547" type="curve"/>
      <point x="651" y="563"/>
      <point x="623" y="582"/>
      <point x="590" y="603" type="curve"/>
      <point x="557" y="624"/>
      <point x="514" y="650"/>
      <point x="461" y="682" type="curve"/>
      <point x="461" y="1110" type="line"/>
      <point x="534" y="1101"/>
      <point x="590" y="1077"/>
      <point x="630" y="1039" type="curve"/>
      <point x="670" y="1000"/>
      <point x="698" y="944"/>
    </contour>
    <contour>
      <point x="399" y="1110" type="curve"/>
      <point x="399" y="709" type="line"/>
      <point x="362" y="734"/>
      <point x="332" y="755"/>
      <point x="309" y="774" type="curve"/>
      <point x="286" y="792"/>
      <point x="267" y="809"/>
      <point x="254" y="826" type="curve"/>
      <point x="241" y="842"/>
      <point x="232" y="858"/>
      <point x="227" y="875" type="curve"/>
      <point x="222" y="891"/>
      <point x="219" y="909"/>
      <point x="219" y="930" type="curve"/>
      <point x="219" y="1025"/>
      <point x="279" y="1085"/>
    </contour>
    <contour>
      <point x="461" y="47" type="curve"/>
      <point x="461" y="510" type="line"/>
      <point x="501" y="484"/>
      <point x="534" y="461"/>
      <point x="559" y="442" type="curve"/>
      <point x="584" y="423"/>
      <point x="604" y="404"/>
      <point x="619" y="386" type="curve"/>
      <point x="634" y="367"/>
      <point x="644" y="348"/>
      <point x="649" y="327" type="curve"/>
      <point x="654" y="306"/>
      <point x="657" y="282"/>
      <point x="657" y="254" type="curve"/>
      <point x="657" y="195"/>
      <point x="642" y="150"/>
      <point x="611" y="117" type="curve"/>
      <point x="580" y="84"/>
      <point x="530" y="60"/>
    </contour>
  </outline>
</glyph>
<glyph name="percent" format="2">
  <advance width="845"/>
  <unicode hex="0025"/>
  <outline>
    <contour>
      <point x="694" y="1153" type="line"/>
      <point x="637" y="1180" type="line"/>
      <point x="188" y="-86" type="line"/>
      <point x="250" y="-113" type="line"/>
    </contour>
    <contour>
      <point x="152" y="1094" type="curve"/>
      <point x="130" y="1090"/>
      <point x="119" y="1084"/>
      <point x="119" y="1077" type="curve"/>
      <point x="100" y="1072"/>
      <point x="90" y="1066"/>
      <point x="90" y="1059" type="curve"/>
      <point x="61" y="1051"/>
      <point x="47" y="1039"/>
      <point x="47" y="1022" type="curve"/>
      <point x="51" y="989" type="line"/>
      <point x="47" y="958" type="line"/>
      <point x="76" y="909" type="line"/>
      <point x="87" y="889"/>
      <point x="117" y="879"/>
      <point x="168" y="879" type="curve"/>
      <point x="221" y="902"/>
      <point x="248" y="936"/>
      <point x="248" y="981" type="curve"/>
      <point x="236" y="1026" type="line"/>
      <point x="236" y="1053"/>
      <point x="208" y="1076"/>
    </contour>
    <contour>
      <point x="713" y="203" type="curve"/>
      <point x="691" y="199"/>
      <point x="680" y="193"/>
      <point x="680" y="186" type="curve"/>
      <point x="661" y="181"/>
      <point x="651" y="175"/>
      <point x="651" y="168" type="curve"/>
      <point x="622" y="160"/>
      <point x="608" y="148"/>
      <point x="608" y="131" type="curve"/>
      <point x="612" y="98" type="line"/>
      <point x="608" y="68" type="line"/>
      <point x="637" y="18" type="line"/>
      <point x="647" y="-2"/>
      <point x="677" y="-12"/>
      <point x="727" y="-12" type="curve"/>
      <point x="782" y="11"/>
      <point x="809" y="45"/>
      <point x="809" y="90" type="curve"/>
      <point x="797" y="135" type="line"/>
      <point x="797" y="162"/>
      <point x="769" y="185"/>
    </contour>
  </outline>
</glyph>
<glyph name="ampersand" format="2">
  <advance width="1354"/>
  <unicode hex="0026"/>
  <outline>
    <contour>
      <point x="1237" y="705" type="curve"/>
      <point x="1237" y="741" type="line"/>
      <point x="862" y="741" type="line"/>
      <point x="862" y="705" type="line"/>
      <point x="884" y="703"/>
      <point x="902" y="700"/>
      <point x="917" y="697" type="curve"/>
      <point x="931" y="693"/>
      <point x="942" y="688"/>
      <point x="951" y="682" type="curve"/>
      <point x="959" y="675"/>
      <point x="965" y="668"/>
      <point x="968" y="659" type="curve"/>
      <point x="971" y="650"/>
      <point x="973" y="639"/>
      <point x="973" y="627" type="curve"/>
      <point x="973" y="590"/>
      <point x="961" y="546"/>
      <point x="936" y="495" type="curve"/>
      <point x="911" y="444"/>
      <point x="870" y="382"/>
      <point x="813" y="309" type="curve"/>
      <point x="790" y="339"/>
      <point x="768" y="368"/>
      <point x="749" y="395" type="curve"/>
      <point x="729" y="422"/>
      <point x="710" y="449"/>
      <point x="692" y="478" type="curve"/>
      <point x="673" y="506"/>
      <point x="656" y="535"/>
      <point x="639" y="566" type="curve"/>
      <point x="622" y="597"/>
      <point x="604" y="631"/>
      <point x="586" y="668" type="curve"/>
      <point x="615" y="682"/>
      <point x="640" y="695"/>
      <point x="661" y="706" type="curve"/>
      <point x="682" y="717"/>
      <point x="700" y="727"/>
      <point x="716" y="738" type="curve"/>
      <point x="732" y="749"/>
      <point x="747" y="760"/>
      <point x="760" y="771" type="curve"/>
      <point x="773" y="782"/>
      <point x="785" y="794"/>
      <point x="797" y="807" type="curve"/>
      <point x="814" y="828"/>
      <point x="828" y="852"/>
      <point x="839" y="881" type="curve"/>
      <point x="849" y="909"/>
      <point x="854" y="938"/>
      <point x="854" y="967" type="curve"/>
      <point x="854" y="998"/>
      <point x="848" y="1026"/>
      <point x="837" y="1052" type="curve"/>
      <point x="826" y="1077"/>
      <point x="810" y="1099"/>
      <point x="789" y="1118" type="curve"/>
      <point x="768" y="1136"/>
      <point x="744" y="1150"/>
      <point x="715" y="1161" type="curve"/>
      <point x="686" y="1171"/>
      <point x="655" y="1176"/>
      <point x="621" y="1176" type="curve"/>
      <point x="583" y="1176"/>
      <point x="548" y="1169"/>
      <point x="515" y="1156" type="curve"/>
      <point x="482" y="1142"/>
      <point x="454" y="1123"/>
      <point x="430" y="1099" type="curve"/>
      <point x="405" y="1075"/>
      <point x="386" y="1047"/>
      <point x="373" y="1014" type="curve"/>
      <point x="359" y="981"/>
      <point x="352" y="946"/>
      <point x="352" y="909" type="curve"/>
      <point x="352" y="893"/>
      <point x="353" y="877"/>
      <point x="355" y="861" type="curve"/>
      <point x="356" y="844"/>
      <point x="359" y="826"/>
      <point x="364" y="807" type="curve"/>
      <point x="368" y="787"/>
      <point x="374" y="765"/>
      <point x="382" y="741" type="curve"/>
      <point x="389" y="716"/>
      <point x="399" y="688"/>
      <point x="412" y="655" type="curve"/>
      <point x="346" y="618" type="line"/>
      <point x="253" y="564"/>
      <point x="184" y="507"/>
      <point x="140" y="446" type="curve"/>
      <point x="96" y="385"/>
      <point x="74" y="318"/>
      <point x="74" y="244" type="curve"/>
      <point x="74" y="161"/>
      <point x="100" y="95"/>
      <point x="151" y="48" type="curve"/>
      <point x="202" y="1"/>
      <point x="276" y="-23"/>
      <point x="371" y="-23" type="curve"/>
      <point x="406" y="-23"/>
      <point x="440" y="-20"/>
      <point x="471" y="-14" type="curve"/>
      <point x="502" y="-9"/>
      <point x="533" y="0"/>
      <point x="563" y="13" type="curve"/>
      <point x="593" y="26"/>
      <point x="623" y="42"/>
      <point x="653" y="62" type="curve"/>
      <point x="683" y="82"/>
      <point x="715" y="106"/>
      <point x="748" y="135" type="curve"/>
      <point x="775" y="108"/>
      <point x="801" y="84"/>
      <point x="826" y="64" type="curve"/>
      <point x="851" y="44"/>
      <point x="875" y="28"/>
      <point x="899" y="15" type="curve"/>
      <point x="922" y="2"/>
      <point x="946" y="-8"/>
      <point x="969" y="-14" type="curve"/>
      <point x="992" y="-20"/>
      <point x="1017" y="-23"/>
      <point x="1042" y="-23" type="curve"/>
      <point x="1100" y="-23"/>
      <point x="1152" y="-6"/>
      <point x="1199" y="29" type="curve"/>
      <point x="1245" y="63"/>
      <point x="1281" y="111"/>
      <point x="1307" y="174" type="curve"/>
      <point x="1280" y="193" type="line"/>
      <point x="1265" y="176"/>
      <point x="1251" y="161"/>
      <point x="1239" y="150" type="curve"/>
      <point x="1227" y="138"/>
      <point x="1215" y="128"/>
      <point x="1204" y="121" type="curve"/>
      <point x="1192" y="114"/>
      <point x="1180" y="108"/>
      <point x="1167" y="105" type="curve"/>
      <point x="1154" y="102"/>
      <point x="1139" y="100"/>
      <point x="1122" y="100" type="curve"/>
      <point x="1026" y="100"/>
      <point x="937" y="153"/>
      <point x="854" y="260" type="curve"/>
      <point x="875" y="285"/>
      <point x="893" y="309"/>
      <point x="909" y="331" type="curve"/>
      <point x="924" y="352"/>
      <point x="939" y="373"/>
      <point x="952" y="394" type="curve"/>
      <point x="965" y="415"/>
      <point x="978" y="435"/>
      <point x="990" y="456" type="curve"/>
      <point x="1002" y="477"/>
      <point x="1015" y="499"/>
      <point x="1028" y="522" type="curve"/>
      <point x="1073" y="602" type="line"/>
      <point x="1083" y="621"/>
      <point x="1093" y="636"/>
      <point x="1104" y="648" type="curve"/>
      <point x="1114" y="660"/>
      <point x="1125" y="670"/>
      <point x="1138" y="677" type="curve"/>
      <point x="1151" y="684"/>
      <point x="1165" y="690"/>
      <point x="1181" y="695" type="curve"/>
      <point x="1197" y="699"/>
      <point x="1216" y="702"/>
    </contour>
    <contour>
      <point x="557" y="725" type="curve"/>
      <point x="545" y="753"/>
      <point x="535" y="778"/>
      <point x="526" y="800" type="curve"/>
      <point x="517" y="822"/>
      <point x="510" y="843"/>
      <point x="505" y="863" type="curve"/>
      <point x="499" y="882"/>
      <point x="495" y="901"/>
      <point x="493" y="920" type="curve"/>
      <point x="490" y="939"/>
      <point x="489" y="958"/>
      <point x="489" y="979" type="curve"/>
      <point x="489" y="1000"/>
      <point x="492" y="1019"/>
      <point x="499" y="1036" type="curve"/>
      <point x="505" y="1053"/>
      <point x="514" y="1067"/>
      <point x="526" y="1080" type="curve"/>
      <point x="538" y="1093"/>
      <point x="552" y="1103"/>
      <point x="569" y="1110" type="curve"/>
      <point x="585" y="1117"/>
      <point x="603" y="1120"/>
      <point x="623" y="1120" type="curve"/>
      <point x="664" y="1120"/>
      <point x="698" y="1106"/>
      <point x="724" y="1079" type="curve"/>
      <point x="749" y="1052"/>
      <point x="762" y="1016"/>
      <point x="762" y="973" type="curve"/>
      <point x="762" y="924"/>
      <point x="746" y="880"/>
      <point x="714" y="841" type="curve"/>
      <point x="682" y="802"/>
      <point x="630" y="763"/>
    </contour>
    <contour>
      <point x="438" y="598" type="curve"/>
      <point x="464" y="547"/>
      <point x="488" y="503"/>
      <point x="510" y="465" type="curve"/>
      <point x="531" y="426"/>
      <point x="552" y="391"/>
      <point x="573" y="360" type="curve"/>
      <point x="593" y="328"/>
      <point x="613" y="298"/>
      <point x="634" y="270" type="curve"/>
      <point x="655" y="241"/>
      <point x="677" y="211"/>
      <point x="702" y="180" type="curve"/>
      <point x="652" y="139"/>
      <point x="608" y="110"/>
      <point x="570" y="93" type="curve"/>
      <point x="531" y="76"/>
      <point x="494" y="68"/>
      <point x="459" y="68" type="curve"/>
      <point x="428" y="68"/>
      <point x="398" y="75"/>
      <point x="371" y="88" type="curve"/>
      <point x="344" y="101"/>
      <point x="320" y="118"/>
      <point x="299" y="140" type="curve"/>
      <point x="278" y="162"/>
      <point x="262" y="188"/>
      <point x="251" y="218" type="curve"/>
      <point x="239" y="247"/>
      <point x="233" y="279"/>
      <point x="233" y="313" type="curve"/>
      <point x="233" y="341"/>
      <point x="237" y="367"/>
      <point x="244" y="391" type="curve"/>
      <point x="251" y="414"/>
      <point x="263" y="437"/>
      <point x="280" y="460" type="curve"/>
      <point x="296" y="482"/>
      <point x="317" y="504"/>
      <point x="343" y="527" type="curve"/>
      <point x="369" y="549"/>
      <point x="401" y="573"/>
    </contour>
  </outline>
</glyph>
<glyph name="quotesingle" format="2">
  <advance width="353"/>
  <unicode hex="0027"/>
  <outline>
    <contour>
      <point x="131" y="1219" type="line"/>
      <point x="142" y="923" type="line"/>
      <point x="203" y="923" type="line"/>
      <point x="224" y="1219" type="line"/>
    </contour>
  </outline>
</glyph>
<glyph name="parenleft" format="2">
  <advance width="583"/>
  <unicode hex="0028"/>
  <outline>
    <contour>
      <point x="416" y="1090" type="curve"/>
      <point x="408" y="1090" type="line"/>
      <point x="364" y="1071"/>
      <point x="342" y="1040"/>
      <point x="342" y="995" type="curve"/>
      <point x="308" y="921"/>
      <point x="291" y="872"/>
      <point x="291" y="848" type="curve"/>
      <point x="263" y="795"/>
      <point x="242" y="732"/>
      <point x="227" y="659" type="curve"/>
      <point x="227" y="621" type="line"/>
      <point x="227" y="577"/>
      <point x="224" y="543"/>
      <point x="219" y="518" type="curve"/>
      <point x="219" y="512" type="line"/>
      <point x="223" y="504" type="line"/>
      <point x="215" y="385" type="line"/>
      <point x="215" y="354" type="line"/>
      <point x="227" y="332" type="line"/>
      <point x="253" y="185"/>
      <point x="289" y="80"/>
      <point x="336" y="18" type="curve"/>
      <point x="367" y="-57"/>
      <point x="398" y="-104"/>
      <point x="430" y="-123" type="curve"/>
      <point x="464" y="-123"/>
      <point x="482" y="-81"/>
      <point x="483" y="2" type="curve"/>
      <point x="471" y="18" type="line"/>
      <point x="461" y="50"/>
      <point x="453" y="66"/>
      <point x="446" y="66" type="curve"/>
      <point x="416" y="175"/>
      <point x="392" y="229"/>
      <point x="375" y="229" type="curve"/>
      <point x="372" y="229"/>
      <point x="357" y="271"/>
      <point x="332" y="354" type="curve"/>
      <point x="332" y="426" type="line"/>
      <point x="342" y="573" type="line"/>
      <point x="358" y="679"/>
      <point x="378" y="760"/>
      <point x="403" y="815" type="curve"/>
      <point x="446" y="911"/>
      <point x="467" y="977"/>
      <point x="467" y="1012" type="curve"/>
      <point x="467" y="1026" type="line"/>
      <point x="459" y="1069"/>
      <point x="442" y="1090"/>
    </contour>
  </outline>
</glyph>
<glyph name="parenright" format="2">
  <advance width="583"/>
  <unicode hex="0029"/>
  <outline>
    <contour>
      <point x="182" y="1091" type="curve"/>
      <point x="174" y="1091" type="line"/>
      <point x="149" y="1091"/>
      <point x="132" y="1070"/>
      <point x="122" y="1027" type="curve"/>
      <point x="122" y="1013" type="line"/>
      <point x="122" y="977"/>
      <point x="143" y="911"/>
      <point x="186" y="816" type="curve"/>
      <point x="209" y="759"/>
      <point x="229" y="678"/>
      <point x="245" y="574" type="curve"/>
      <point x="258" y="427" type="line"/>
      <point x="258" y="355" type="line"/>
      <point x="235" y="272"/>
      <point x="220" y="230"/>
      <point x="215" y="230" type="curve"/>
      <point x="189" y="203"/>
      <point x="165" y="148"/>
      <point x="143" y="67" type="curve"/>
      <point x="134" y="67"/>
      <point x="126" y="51"/>
      <point x="118" y="19" type="curve"/>
      <point x="106" y="3" type="line"/>
      <point x="107" y="-80"/>
      <point x="124" y="-122"/>
      <point x="157" y="-122" type="curve"/>
      <point x="188" y="-103"/>
      <point x="220" y="-56"/>
      <point x="253" y="19" type="curve"/>
      <point x="300" y="83"/>
      <point x="336" y="188"/>
      <point x="362" y="333" type="curve"/>
      <point x="374" y="355" type="line"/>
      <point x="374" y="386" type="line"/>
      <point x="366" y="505" type="line"/>
      <point x="370" y="513" type="line"/>
      <point x="370" y="519" type="line"/>
      <point x="365" y="544"/>
      <point x="362" y="578"/>
      <point x="362" y="622" type="curve"/>
      <point x="362" y="660" type="line"/>
      <point x="347" y="737"/>
      <point x="326" y="800"/>
      <point x="299" y="849" type="curve"/>
      <point x="298" y="870"/>
      <point x="280" y="919"/>
      <point x="245" y="996" type="curve"/>
      <point x="245" y="1041"/>
      <point x="224" y="1072"/>
    </contour>
  </outline>
</glyph>
<glyph name="asterisk" format="2">
  <advance width="974"/>
  <unicode hex="002A"/>
  <outline>
    <contour>
      <point x="874" y="639" type="curve"/>
      <point x="874" y="674"/>
      <point x="856" y="692"/>
      <point x="821" y="692" type="curve"/>
      <point x="804" y="692"/>
      <point x="788" y="684"/>
      <point x="772" y="668" type="curve"/>
      <point x="691" y="589"/>
      <point x="649" y="529"/>
      <point x="645" y="489" type="curve"/>
      <point x="645" y="486" type="line"/>
      <point x="645" y="480"/>
      <point x="647" y="476"/>
      <point x="651" y="472" type="curve"/>
      <point x="655" y="468"/>
      <point x="660" y="466"/>
      <point x="665" y="466" type="curve"/>
      <point x="666" y="466"/>
      <point x="668" y="466"/>
      <point x="670" y="467" type="curve"/>
      <point x="724" y="482"/>
      <point x="785" y="523"/>
      <point x="854" y="592" type="curve"/>
      <point x="867" y="605"/>
      <point x="874" y="621"/>
    </contour>
    <contour>
      <point x="636" y="709" type="curve"/>
      <point x="636" y="764"/>
      <point x="619" y="791"/>
      <point x="584" y="791" type="curve"/>
      <point x="564" y="791"/>
      <point x="549" y="786"/>
      <point x="540" y="775" type="curve"/>
      <point x="531" y="764"/>
      <point x="526" y="748"/>
      <point x="526" y="725" type="curve"/>
      <point x="526" y="613"/>
      <point x="538" y="541"/>
      <point x="563" y="508" type="curve"/>
      <point x="567" y="503"/>
      <point x="573" y="500"/>
      <point x="580" y="500" type="curve"/>
      <point x="589" y="500"/>
      <point x="595" y="503"/>
      <point x="598" y="508" type="curve"/>
      <point x="623" y="549"/>
      <point x="636" y="616"/>
    </contour>
    <contour>
      <point x="973" y="397" type="curve"/>
      <point x="973" y="436"/>
      <point x="950" y="455"/>
      <point x="905" y="455" type="curve"/>
      <point x="803" y="455"/>
      <point x="731" y="443"/>
      <point x="690" y="418" type="curve"/>
      <point x="685" y="414"/>
      <point x="682" y="408"/>
      <point x="682" y="401" type="curve"/>
      <point x="682" y="394"/>
      <point x="685" y="389"/>
      <point x="690" y="385" type="curve"/>
      <point x="733" y="358"/>
      <point x="806" y="344"/>
      <point x="909" y="344" type="curve"/>
      <point x="952" y="344"/>
      <point x="973" y="362"/>
    </contour>
    <contour>
      <point x="821" y="107" type="curve"/>
      <point x="835" y="107"/>
      <point x="847" y="112"/>
      <point x="858" y="123" type="curve"/>
      <point x="869" y="134"/>
      <point x="874" y="146"/>
      <point x="874" y="160" type="curve"/>
      <point x="874" y="178"/>
      <point x="866" y="195"/>
      <point x="850" y="211" type="curve"/>
      <point x="790" y="271"/>
      <point x="731" y="313"/>
      <point x="672" y="336" type="curve"/>
      <point x="670" y="337"/>
      <point x="668" y="337"/>
      <point x="666" y="337" type="curve"/>
      <point x="661" y="337"/>
      <point x="657" y="335"/>
      <point x="654" y="332" type="curve"/>
      <point x="650" y="328"/>
      <point x="649" y="324"/>
      <point x="649" y="318" type="curve"/>
      <point x="649" y="313" type="line"/>
      <point x="657" y="264"/>
      <point x="699" y="202"/>
      <point x="774" y="127" type="curve"/>
      <point x="787" y="114"/>
      <point x="803" y="107"/>
    </contour>
    <contour>
      <point x="514" y="487" type="line"/>
      <point x="506" y="531"/>
      <point x="464" y="593"/>
      <point x="389" y="672" type="curve"/>
      <point x="376" y="685"/>
      <point x="361" y="692"/>
      <point x="342" y="692" type="curve"/>
      <point x="307" y="692"/>
      <point x="289" y="674"/>
      <point x="289" y="639" type="curve"/>
      <point x="289" y="622"/>
      <point x="297" y="605"/>
      <point x="313" y="590" type="curve"/>
      <point x="370" y="535"/>
      <point x="431" y="494"/>
      <point x="494" y="465" type="curve"/>
      <point x="496" y="464"/>
      <point x="498" y="464"/>
      <point x="499" y="464" type="curve"/>
      <point x="503" y="464"/>
      <point x="507" y="466"/>
      <point x="510" y="469" type="curve"/>
      <point x="513" y="473"/>
      <point x="514" y="477"/>
      <point x="514" y="482" type="curve"/>
    </contour>
    <contour>
      <point x="473" y="383" type="curve"/>
      <point x="479" y="386"/>
      <point x="482" y="391"/>
      <point x="483" y="397" type="curve"/>
      <point x="483" y="399" type="line"/>
      <point x="483" y="406"/>
      <point x="479" y="412"/>
      <point x="473" y="416" type="curve"/>
      <point x="430" y="443"/>
      <point x="357" y="457"/>
      <point x="254" y="457" type="curve"/>
      <point x="211" y="457"/>
      <point x="190" y="438"/>
      <point x="190" y="401" type="curve"/>
      <point x="190" y="363"/>
      <point x="209" y="344"/>
      <point x="246" y="344" type="curve"/>
      <point x="258" y="344" type="line"/>
      <point x="354" y="344"/>
      <point x="426" y="357"/>
    </contour>
    <contour>
      <point x="637" y="76" type="curve"/>
      <point x="637" y="181"/>
      <point x="625" y="254"/>
      <point x="600" y="293" type="curve"/>
      <point x="597" y="298"/>
      <point x="591" y="301"/>
      <point x="584" y="301" type="curve"/>
      <point x="576" y="301"/>
      <point x="570" y="298"/>
      <point x="567" y="293" type="curve"/>
      <point x="540" y="249"/>
      <point x="526" y="175"/>
      <point x="526" y="72" type="curve"/>
      <point x="526" y="29"/>
      <point x="544" y="8"/>
      <point x="580" y="8" type="curve"/>
      <point x="618" y="8"/>
      <point x="637" y="31"/>
    </contour>
    <contour>
      <point x="518" y="311" type="curve"/>
      <point x="519" y="313"/>
      <point x="519" y="315"/>
      <point x="519" y="316" type="curve"/>
      <point x="519" y="321"/>
      <point x="517" y="325"/>
      <point x="513" y="329" type="curve"/>
      <point x="509" y="333"/>
      <point x="505" y="334"/>
      <point x="500" y="334" type="curve"/>
      <point x="496" y="334" type="line"/>
      <point x="444" y="323"/>
      <point x="382" y="282"/>
      <point x="309" y="209" type="curve"/>
      <point x="296" y="196"/>
      <point x="289" y="180"/>
      <point x="289" y="162" type="curve"/>
      <point x="289" y="125"/>
      <point x="307" y="106"/>
      <point x="342" y="106" type="curve"/>
      <point x="358" y="106"/>
      <point x="374" y="114"/>
      <point x="391" y="131" type="curve"/>
      <point x="460" y="200"/>
      <point x="503" y="260"/>
    </contour>
  </outline>
</glyph>
<glyph name="plus" format="2">
  <advance width="858"/>
  <unicode hex="002B"/>
  <outline>
    <contour>
      <point x="809" y="338" type="line"/>
      <point x="809" y="426" type="line"/>
      <point x="481" y="426" type="line"/>
      <point x="481" y="752" type="line"/>
      <point x="395" y="752" type="line"/>
      <point x="395" y="426" type="line"/>
      <point x="68" y="426" type="line"/>
      <point x="68" y="338" type="line"/>
      <point x="395" y="338" type="line"/>
      <point x="395" y="12" type="line"/>
      <point x="481" y="12" type="line"/>
      <point x="481" y="338" type="line"/>
    </contour>
  </outline>
</glyph>
<glyph name="comma" format="2">
  <advance width="512"/>
  <unicode hex="002C"/>
  <outline>
    <contour>
      <point x="318" y="256" type="curve"/>
      <point x="229" y="256"/>
      <point x="184" y="212"/>
      <point x="183" y="125" type="curve"/>
      <point x="183" y="121" type="line"/>
      <point x="183" y="42"/>
      <point x="222" y="2"/>
      <point x="300" y="2" type="curve"/>
      <point x="333" y="2"/>
      <point x="365" y="14"/>
      <point x="396" y="37" type="curve"/>
      <point x="414" y="-4"/>
      <point x="423" y="-42"/>
      <point x="423" y="-77" type="curve"/>
      <point x="423" y="-94"/>
      <point x="421" y="-110"/>
      <point x="417" y="-125" type="curve"/>
      <point x="404" y="-178"/>
      <point x="387" y="-218"/>
      <point x="368" y="-244" type="curve"/>
      <point x="366" y="-247"/>
      <point x="362" y="-251"/>
      <point x="357" y="-258" type="curve"/>
      <point x="352" y="-265"/>
      <point x="344" y="-275"/>
      <point x="334" y="-288" type="curve"/>
      <point x="323" y="-301"/>
      <point x="313" y="-314"/>
      <point x="304" y="-326" type="curve"/>
      <point x="303" y="-328"/>
      <point x="302" y="-332"/>
      <point x="302" y="-338" type="curve"/>
      <point x="302" y="-359"/>
      <point x="308" y="-369"/>
      <point x="321" y="-369" type="curve"/>
      <point x="322" y="-369"/>
      <point x="323" y="-369"/>
      <point x="324" y="-368" type="curve"/>
      <point x="325" y="-367"/>
      <point x="326" y="-367"/>
      <point x="327" y="-367" type="curve"/>
      <point x="409" y="-330"/>
      <point x="467" y="-234"/>
      <point x="501" y="-78" type="curve"/>
      <point x="505" y="-60"/>
      <point x="507" y="-35"/>
      <point x="507" y="-2" type="curve"/>
      <point x="507" y="58"/>
      <point x="491" y="115"/>
      <point x="460" y="168" type="curve"/>
      <point x="425" y="227"/>
      <point x="378" y="256"/>
    </contour>
  </outline>
</glyph>
<glyph name="hyphenminus" format="2">
  <advance width="858"/>
  <unicode hex="002D"/>
  <outline>
    <contour>
      <point x="809" y="338" type="line"/>
      <point x="809" y="426" type="line"/>
      <point x="68" y="426" type="line"/>
      <point x="68" y="338" type="line"/>
    </contour>
  </outline>
</glyph>
<glyph name="period" format="2">
  <advance width="391"/>
  <unicode hex="002E"/>
  <outline>
    <contour>
      <point x="293" y="170" type="curve"/>
      <point x="271" y="166"/>
      <point x="260" y="161"/>
      <point x="260" y="154" type="curve"/>
      <point x="242" y="147"/>
      <point x="233" y="140"/>
      <point x="233" y="133" type="curve"/>
      <point x="203" y="125"/>
      <point x="188" y="113"/>
      <point x="188" y="96" type="curve"/>
      <point x="193" y="66" type="line"/>
      <point x="188" y="33" type="line"/>
      <point x="217" y="-14" type="line"/>
      <point x="228" y="-36"/>
      <point x="259" y="-47"/>
      <point x="309" y="-47" type="curve"/>
      <point x="362" y="-22"/>
      <point x="389" y="13"/>
      <point x="389" y="57" type="curve"/>
      <point x="377" y="100" type="line"/>
      <point x="377" y="129"/>
      <point x="349" y="152"/>
    </contour>
  </outline>
</glyph>
<glyph name="slash" format="2">
  <advance width="540"/>
  <unicode hex="002F"/>
  <outline>
    <contour>
      <point x="489" y="973" type="line"/>
      <point x="424" y="999" type="line"/>
      <point x="47" y="-66" type="line"/>
      <point x="115" y="-92" type="line"/>
    </contour>
  </outline>
</glyph>
<glyph name="three" format="2">
  <advance width="843"/>
  <unicode hex="0033"/>
  <outline>
    <contour>
      <point x="496" y="967" type="line"/>
      <point x="438" y="922" type="line"/>
      <point x="407" y="848"/>
      <point x="385" y="811"/>
      <point x="371" y="811" type="curve"/>
      <point x="338" y="810"/>
      <point x="322" y="807"/>
      <point x="322" y="801" type="curve"/>
      <point x="290" y="801"/>
      <point x="260" y="812"/>
      <point x="231" y="834" type="curve"/>
      <point x="199" y="890"/>
      <point x="166" y="931"/>
      <point x="133" y="958" type="curve"/>
      <point x="89" y="957"/>
      <point x="52" y="914"/>
      <point x="23" y="827" type="curve"/>
      <point x="41" y="721" type="line"/>
      <point x="57" y="681"/>
      <point x="70" y="657"/>
      <point x="80" y="649" type="curve"/>
      <point x="80" y="619"/>
      <point x="83" y="604"/>
      <point x="88" y="604" type="curve"/>
      <point x="121" y="567"/>
      <point x="137" y="530"/>
      <point x="137" y="494" type="curve"/>
      <point x="170" y="399" type="line"/>
      <point x="189" y="306"/>
      <point x="202" y="260"/>
      <point x="211" y="260" type="curve"/>
      <point x="211" y="256" type="line"/>
      <point x="205" y="252" type="line"/>
      <point x="205" y="242" type="line"/>
      <point x="217" y="227"/>
      <point x="223" y="198"/>
      <point x="223" y="154" type="curve"/>
      <point x="219" y="139" type="line"/>
      <point x="232" y="128"/>
      <point x="238" y="115"/>
      <point x="238" y="102" type="curve"/>
      <point x="238" y="72" type="line"/>
      <point x="256" y="37" type="line"/>
      <point x="256" y="26"/>
      <point x="270" y="15"/>
      <point x="299" y="4" type="curve"/>
      <point x="313" y="4" type="line"/>
      <point x="334" y="5"/>
      <point x="351" y="48"/>
      <point x="362" y="135" type="curve"/>
      <point x="352" y="174" type="line"/>
      <point x="358" y="283" type="line"/>
      <point x="344" y="393" type="line"/>
      <point x="348" y="434" type="line"/>
      <point x="331" y="466"/>
      <point x="320" y="497"/>
      <point x="317" y="528" type="curve"/>
      <point x="371" y="578" type="line"/>
      <point x="390" y="578"/>
      <point x="404" y="585"/>
      <point x="412" y="600" type="curve"/>
      <point x="475" y="597"/>
      <point x="522" y="591"/>
      <point x="551" y="582" type="curve"/>
      <point x="582" y="586"/>
      <point x="598" y="592"/>
      <point x="598" y="600" type="curve"/>
      <point x="612" y="596" type="line"/>
      <point x="619" y="596"/>
      <point x="647" y="615"/>
      <point x="698" y="653" type="curve"/>
      <point x="751" y="730"/>
      <point x="778" y="794"/>
      <point x="778" y="846" type="curve"/>
      <point x="778" y="860" type="line"/>
      <point x="768" y="911"/>
      <point x="754" y="936"/>
      <point x="737" y="936" type="curve"/>
      <point x="711" y="928" type="line"/>
      <point x="663" y="862"/>
      <point x="625" y="827"/>
      <point x="596" y="823" type="curve"/>
      <point x="557" y="850"/>
      <point x="537" y="887"/>
      <point x="537" y="936" type="curve"/>
      <point x="537" y="940" type="line"/>
      <point x="537" y="948"/>
      <point x="534" y="955"/>
      <point x="529" y="959" type="curve"/>
      <point x="523" y="964"/>
      <point x="514" y="967"/>
      <point x="502" y="967" type="curve"/>
    </contour>
  </outline>
</glyph>
<glyph name="four" format="2">
  <advance width="843"/>
  <unicode hex="0034"/>
  <outline>
    <contour>
      <point x="588" y="977" type="curve"/>
      <point x="567" y="973" type="line"/>
      <point x="521" y="973"/>
      <point x="489" y="956"/>
      <point x="471" y="922" type="curve"/>
      <point x="454" y="922"/>
      <point x="438" y="893"/>
      <point x="424" y="834" type="curve"/>
      <point x="398" y="777"/>
      <point x="373" y="740"/>
      <point x="350" y="725" type="curve"/>
      <point x="336" y="725" type="line"/>
      <point x="329" y="725"/>
      <point x="323" y="735"/>
      <point x="319" y="754" type="curve"/>
      <point x="266" y="821" type="line"/>
      <point x="240" y="880"/>
      <point x="219" y="909"/>
      <point x="203" y="909" type="curve"/>
      <point x="190" y="909" type="line"/>
      <point x="151" y="908"/>
      <point x="122" y="862"/>
      <point x="102" y="772" type="curve"/>
      <point x="102" y="750" type="line"/>
      <point x="103" y="711"/>
      <point x="125" y="644"/>
      <point x="168" y="549" type="curve"/>
      <point x="233" y="448"/>
      <point x="266" y="380"/>
      <point x="266" y="344" type="curve"/>
      <point x="324" y="145" type="line"/>
      <point x="319" y="117" type="line"/>
      <point x="319" y="64"/>
      <point x="339" y="26"/>
      <point x="379" y="4" type="curve"/>
      <point x="387" y="4" type="line"/>
      <point x="418" y="5"/>
      <point x="434" y="24"/>
      <point x="434" y="61" type="curve"/>
      <point x="454" y="114"/>
      <point x="466" y="175"/>
      <point x="471" y="242" type="curve"/>
      <point x="466" y="265"/>
      <point x="460" y="276"/>
      <point x="451" y="276" type="curve"/>
      <point x="444" y="338"/>
      <point x="433" y="389"/>
      <point x="420" y="428" type="curve"/>
      <point x="424" y="432" type="line"/>
      <point x="424" y="436" type="line"/>
      <point x="420" y="440" type="line"/>
      <point x="426" y="453" type="line"/>
      <point x="487" y="472"/>
      <point x="518" y="484"/>
      <point x="518" y="489" type="curve"/>
      <point x="537" y="492"/>
      <point x="569" y="516"/>
      <point x="614" y="561" type="curve"/>
      <point x="668" y="561"/>
      <point x="704" y="607"/>
      <point x="723" y="700" type="curve"/>
      <point x="723" y="721" type="line"/>
      <point x="723" y="745"/>
      <point x="707" y="762"/>
      <point x="676" y="772" type="curve"/>
      <point x="627" y="761"/>
      <point x="602" y="753"/>
      <point x="602" y="750" type="curve"/>
      <point x="578" y="750"/>
      <point x="558" y="742"/>
      <point x="543" y="725" type="curve"/>
      <point x="530" y="725" type="line"/>
      <point x="523" y="726"/>
      <point x="516" y="735"/>
      <point x="508" y="754" type="curve"/>
      <point x="508" y="766" type="line"/>
      <point x="555" y="797" type="line"/>
      <point x="567" y="797" type="line"/>
      <point x="580" y="788" type="line"/>
      <point x="602" y="797" type="line"/>
      <point x="602" y="793" type="line"/>
      <point x="663" y="793"/>
      <point x="694" y="815"/>
      <point x="694" y="860" type="curve"/>
      <point x="694" y="864" type="line"/>
      <point x="694" y="878"/>
      <point x="691" y="885"/>
      <point x="686" y="885" type="curve"/>
      <point x="686" y="890" type="line"/>
      <point x="686" y="922"/>
      <point x="676" y="938"/>
      <point x="655" y="938" type="curve"/>
      <point x="647" y="954"/>
      <point x="625" y="967"/>
    </contour>
  </outline>
</glyph>
<glyph name="eight" format="2">
  <advance width="843"/>
  <unicode hex="0038"/>
  <outline>
    <contour>
      <point x="437" y="965" type="line"/>
      <point x="405" y="961" type="line"/>
      <point x="370" y="961"/>
      <point x="339" y="893"/>
      <point x="312" y="756" type="curve"/>
      <point x="312" y="752" type="line"/>
      <point x="316" y="748" type="line"/>
      <point x="298" y="692" type="line"/>
      <point x="298" y="688" type="line"/>
      <point x="308" y="668" type="line"/>
      <point x="308" y="665" type="line"/>
      <point x="308" y="650"/>
      <point x="301" y="627"/>
      <point x="286" y="596" type="curve"/>
      <point x="275" y="547"/>
      <point x="248" y="505"/>
      <point x="206" y="471" type="curve"/>
      <point x="206" y="426"/>
      <point x="175" y="372"/>
      <point x="114" y="311" type="curve"/>
      <point x="97" y="308"/>
      <point x="84" y="293"/>
      <point x="73" y="268" type="curve"/>
      <point x="69" y="264" type="line"/>
      <point x="48" y="147" type="line"/>
      <point x="48" y="117" type="line"/>
      <point x="71" y="47"/>
      <point x="93" y="12"/>
      <point x="114" y="12" type="curve"/>
      <point x="140" y="16" type="line"/>
      <point x="198" y="37" type="line"/>
      <point x="236" y="96"/>
      <point x="260" y="130"/>
      <point x="269" y="139" type="curve"/>
      <point x="299" y="212"/>
      <point x="318" y="248"/>
      <point x="325" y="248" type="curve"/>
      <point x="340" y="295"/>
      <point x="352" y="322"/>
      <point x="361" y="328" type="curve"/>
      <point x="409" y="420" type="line"/>
      <point x="417" y="459"/>
      <point x="424" y="479"/>
      <point x="429" y="479" type="curve"/>
      <point x="433" y="479" type="line"/>
      <point x="433" y="471" type="line"/>
      <point x="429" y="453" type="line"/>
      <point x="433" y="449" type="line"/>
      <point x="429" y="444" type="line"/>
      <point x="429" y="440" type="line"/>
      <point x="440" y="429"/>
      <point x="445" y="416"/>
      <point x="445" y="403" type="curve"/>
      <point x="460" y="380"/>
      <point x="468" y="363"/>
      <point x="468" y="352" type="curve"/>
      <point x="506" y="292"/>
      <point x="525" y="259"/>
      <point x="525" y="252" type="curve"/>
      <point x="525" y="219" type="line"/>
      <point x="533" y="202"/>
      <point x="543" y="189"/>
      <point x="556" y="180" type="curve"/>
      <point x="560" y="147"/>
      <point x="586" y="104"/>
      <point x="634" y="51" type="curve"/>
      <point x="646" y="17"/>
      <point x="655" y="0"/>
      <point x="661" y="0" type="curve"/>
      <point x="685" y="0" type="line"/>
      <point x="706" y="13"/>
      <point x="721" y="20"/>
      <point x="732" y="20" type="curve"/>
      <point x="733" y="20" type="line"/>
      <point x="748" y="20"/>
      <point x="767" y="59"/>
      <point x="790" y="139" type="curve"/>
      <point x="777" y="172" type="line"/>
      <point x="781" y="193" type="line"/>
      <point x="781" y="220"/>
      <point x="770" y="254"/>
      <point x="749" y="297" type="curve"/>
      <point x="693" y="342"/>
      <point x="665" y="377"/>
      <point x="665" y="403" type="curve"/>
      <point x="630" y="447"/>
      <point x="599" y="509"/>
      <point x="572" y="588" type="curve"/>
      <point x="533" y="723"/>
      <point x="513" y="804"/>
      <point x="513" y="831" type="curve"/>
      <point x="513" y="910"/>
      <point x="490" y="955"/>
      <point x="445" y="965" type="curve"/>
    </contour>
  </outline>
</glyph>
<glyph name="colon" format="2">
  <advance width="391"/>
  <unicode hex="003A"/>
  <outline>
    <contour>
      <point x="299" y="170" type="curve"/>
      <point x="288" y="168"/>
      <point x="280" y="166"/>
      <point x="275" y="163" type="curve"/>
      <point x="270" y="160"/>
      <point x="268" y="158"/>
      <point x="268" y="155" type="curve"/>
      <point x="268" y="154" type="line"/>
      <point x="249" y="147"/>
      <point x="240" y="140"/>
      <point x="240" y="133" type="curve"/>
      <point x="211" y="125"/>
      <point x="197" y="113"/>
      <point x="197" y="96" type="curve"/>
      <point x="201" y="66" type="line"/>
      <point x="197" y="33" type="line"/>
      <point x="223" y="-14" type="line"/>
      <point x="234" y="-36"/>
      <point x="265" y="-47"/>
      <point x="315" y="-47" type="curve"/>
      <point x="368" y="-22"/>
      <point x="395" y="13"/>
      <point x="395" y="57" type="curve"/>
      <point x="385" y="100" type="line"/>
      <point x="385" y="129"/>
      <point x="356" y="152"/>
    </contour>
    <contour>
      <point x="299" y="811" type="curve"/>
      <point x="288" y="809"/>
      <point x="280" y="807"/>
      <point x="275" y="804" type="curve"/>
      <point x="270" y="801"/>
      <point x="268" y="799"/>
      <point x="268" y="796" type="curve"/>
      <point x="268" y="795" type="line"/>
      <point x="249" y="788"/>
      <point x="240" y="781"/>
      <point x="240" y="774" type="curve"/>
      <point x="211" y="766"/>
      <point x="197" y="754"/>
      <point x="197" y="737" type="curve"/>
      <point x="201" y="707" type="line"/>
      <point x="197" y="674" type="line"/>
      <point x="223" y="627" type="line"/>
      <point x="234" y="605"/>
      <point x="265" y="594"/>
      <point x="315" y="594" type="curve"/>
      <point x="368" y="619"/>
      <point x="395" y="654"/>
      <point x="395" y="698" type="curve"/>
      <point x="385" y="741" type="line"/>
      <point x="385" y="770"/>
      <point x="356" y="793"/>
    </contour>
  </outline>
</glyph>
<glyph name="semicolon" format="2">
  <advance width="356"/>
  <unicode hex="003B"/>
  <outline>
    <contour>
      <point x="254" y="522" type="curve"/>
      <point x="254" y="547"/>
      <point x="245" y="568"/>
      <point x="228" y="585" type="curve"/>
      <point x="210" y="602"/>
      <point x="189" y="610"/>
      <point x="164" y="610" type="curve"/>
      <point x="139" y="610"/>
      <point x="119" y="602"/>
      <point x="102" y="585" type="curve"/>
      <point x="85" y="568"/>
      <point x="76" y="547"/>
      <point x="76" y="522" type="curve"/>
      <point x="76" y="497"/>
      <point x="85" y="477"/>
      <point x="102" y="460" type="curve"/>
      <point x="119" y="443"/>
      <point x="139" y="434"/>
      <point x="164" y="434" type="curve"/>
      <point x="176" y="434"/>
      <point x="187" y="436"/>
      <point x="198" y="441" type="curve"/>
      <point x="209" y="446"/>
      <point x="218" y="452"/>
      <point x="227" y="460" type="curve"/>
      <point x="235" y="468"/>
      <point x="242" y="477"/>
      <point x="247" y="488" type="curve"/>
      <point x="252" y="499"/>
      <point x="254" y="510"/>
    </contour>
    <contour>
      <point x="80" y="104" type="curve"/>
      <point x="80" y="36"/>
      <point x="112" y="2"/>
      <point x="176" y="2" type="curve"/>
      <point x="187" y="2"/>
      <point x="197" y="3"/>
      <point x="207" y="5" type="curve"/>
      <point x="217" y="6"/>
      <point x="227" y="9"/>
      <point x="238" y="12" type="curve"/>
      <point x="238" y="-57"/>
      <point x="210" y="-116"/>
      <point x="154" y="-166" type="curve"/>
      <point x="145" y="-173"/>
      <point x="139" y="-179"/>
      <point x="134" y="-183" type="curve"/>
      <point x="129" y="-188"/>
      <point x="126" y="-192"/>
      <point x="125" y="-195" type="curve"/>
      <point x="125" y="-202"/>
      <point x="132" y="-205"/>
      <point x="145" y="-205" type="curve"/>
      <point x="156" y="-205"/>
      <point x="166" y="-204"/>
      <point x="174" y="-203" type="curve"/>
      <point x="182" y="-202"/>
      <point x="190" y="-199"/>
      <point x="199" y="-195" type="curve"/>
      <point x="245" y="-169"/>
      <point x="280" y="-136"/>
      <point x="303" y="-96" type="curve"/>
      <point x="326" y="-56"/>
      <point x="338" y="-8"/>
      <point x="338" y="49" type="curve"/>
      <point x="338" y="72"/>
      <point x="335" y="93"/>
      <point x="329" y="113" type="curve"/>
      <point x="322" y="133"/>
      <point x="313" y="150"/>
      <point x="301" y="165" type="curve"/>
      <point x="289" y="179"/>
      <point x="275" y="190"/>
      <point x="258" y="199" type="curve"/>
      <point x="241" y="207"/>
      <point x="222" y="211"/>
      <point x="201" y="211" type="curve"/>
      <point x="184" y="211"/>
      <point x="168" y="208"/>
      <point x="153" y="202" type="curve"/>
      <point x="138" y="196"/>
      <point x="126" y="188"/>
      <point x="115" y="178" type="curve"/>
      <point x="104" y="168"/>
      <point x="96" y="157"/>
      <point x="90" y="144" type="curve"/>
      <point x="83" y="131"/>
      <point x="80" y="117"/>
    </contour>
  </outline>
</glyph>
<glyph name="less" format="2">
  <advance width="981"/>
  <unicode hex="003C"/>
  <outline>
    <contour>
      <point x="47" y="393" type="line"/>
      <point x="47" y="279" type="line"/>
      <point x="934" y="-121" type="line"/>
      <point x="934" y="4" type="line"/>
      <point x="203" y="336" type="line"/>
      <point x="934" y="670" type="line"/>
      <point x="934" y="795" type="line"/>
    </contour>
  </outline>
</glyph>
<glyph name="equal" format="2">
  <advance width="858"/>
  <unicode hex="003D"/>
  <outline>
    <contour>
      <point x="807" y="463" type="line"/>
      <point x="807" y="549" type="line"/>
      <point x="66" y="549" type="line"/>
      <point x="66" y="463" type="line"/>
    </contour>
    <contour>
      <point x="807" y="205" type="line"/>
      <point x="807" y="293" type="line"/>
      <point x="66" y="293" type="line"/>
      <point x="66" y="205" type="line"/>
    </contour>
  </outline>
</glyph>
<glyph name="question" format="2">
  <advance width="772"/>
  <unicode hex="003F"/>
  <outline>
    <contour>
      <point x="395" y="287" type="curve"/>
      <point x="426" y="287" type="line"/>
      <point x="430" y="316"/>
      <point x="435" y="342"/>
      <point x="441" y="366" type="curve"/>
      <point x="447" y="389"/>
      <point x="455" y="412"/>
      <point x="464" y="433" type="curve"/>
      <point x="473" y="454"/>
      <point x="483" y="474"/>
      <point x="496" y="493" type="curve"/>
      <point x="508" y="512"/>
      <point x="522" y="532"/>
      <point x="539" y="553" type="curve"/>
      <point x="558" y="578"/>
      <point x="574" y="597"/>
      <point x="585" y="611" type="curve"/>
      <point x="596" y="624"/>
      <point x="605" y="635"/>
      <point x="612" y="644" type="curve"/>
      <point x="619" y="652"/>
      <point x="624" y="659"/>
      <point x="629" y="665" type="curve"/>
      <point x="633" y="670"/>
      <point x="638" y="678"/>
      <point x="643" y="688" type="curve"/>
      <point x="671" y="730"/>
      <point x="691" y="768"/>
      <point x="703" y="802" type="curve"/>
      <point x="715" y="836"/>
      <point x="721" y="871"/>
      <point x="721" y="907" type="curve"/>
      <point x="721" y="941"/>
      <point x="716" y="973"/>
      <point x="705" y="1002" type="curve"/>
      <point x="694" y="1031"/>
      <point x="678" y="1056"/>
      <point x="657" y="1075" type="curve"/>
      <point x="625" y="1105"/>
      <point x="586" y="1129"/>
      <point x="541" y="1148" type="curve"/>
      <point x="495" y="1167"/>
      <point x="448" y="1176"/>
      <point x="399" y="1176" type="curve"/>
      <point x="360" y="1176"/>
      <point x="323" y="1170"/>
      <point x="289" y="1157" type="curve"/>
      <point x="255" y="1144"/>
      <point x="225" y="1127"/>
      <point x="200" y="1105" type="curve"/>
      <point x="175" y="1082"/>
      <point x="155" y="1056"/>
      <point x="141" y="1025" type="curve"/>
      <point x="126" y="994"/>
      <point x="119" y="960"/>
      <point x="119" y="924" type="curve"/>
      <point x="119" y="890"/>
      <point x="126" y="864"/>
      <point x="139" y="845" type="curve"/>
      <point x="152" y="826"/>
      <point x="174" y="817"/>
      <point x="203" y="817" type="curve"/>
      <point x="224" y="817"/>
      <point x="241" y="824"/>
      <point x="254" y="837" type="curve"/>
      <point x="267" y="850"/>
      <point x="274" y="866"/>
      <point x="274" y="887" type="curve"/>
      <point x="274" y="899"/>
      <point x="271" y="911"/>
      <point x="265" y="923" type="curve"/>
      <point x="259" y="934"/>
      <point x="250" y="948"/>
      <point x="238" y="963" type="curve"/>
      <point x="217" y="984"/>
      <point x="207" y="1003"/>
      <point x="207" y="1018" type="curve"/>
      <point x="207" y="1032"/>
      <point x="212" y="1046"/>
      <point x="221" y="1059" type="curve"/>
      <point x="230" y="1072"/>
      <point x="243" y="1083"/>
      <point x="258" y="1093" type="curve"/>
      <point x="273" y="1102"/>
      <point x="291" y="1110"/>
      <point x="311" y="1116" type="curve"/>
      <point x="331" y="1121"/>
      <point x="352" y="1124"/>
      <point x="373" y="1124" type="curve"/>
      <point x="399" y="1124"/>
      <point x="423" y="1119"/>
      <point x="446" y="1108" type="curve"/>
      <point x="469" y="1097"/>
      <point x="488" y="1082"/>
      <point x="505" y="1063" type="curve"/>
      <point x="522" y="1044"/>
      <point x="535" y="1021"/>
      <point x="545" y="996" type="curve"/>
      <point x="554" y="971"/>
      <point x="559" y="944"/>
      <point x="559" y="915" type="curve"/>
      <point x="559" y="874"/>
      <point x="554" y="831"/>
      <point x="544" y="786" type="curve"/>
      <point x="533" y="740"/>
      <point x="517" y="692"/>
      <point x="496" y="643" type="curve"/>
      <point x="446" y="532" type="line"/>
      <point x="430" y="488"/>
      <point x="418" y="445"/>
      <point x="410" y="404" type="curve"/>
      <point x="401" y="363"/>
      <point x="396" y="324"/>
    </contour>
    <contour>
      <point x="412" y="172" type="curve"/>
      <point x="386" y="172"/>
      <point x="364" y="163"/>
      <point x="346" y="145" type="curve"/>
      <point x="328" y="127"/>
      <point x="319" y="104"/>
      <point x="319" y="76" type="curve"/>
      <point x="319" y="51"/>
      <point x="328" y="29"/>
      <point x="346" y="12" type="curve"/>
      <point x="364" y="-5"/>
      <point x="386" y="-14"/>
      <point x="412" y="-14" type="curve"/>
      <point x="440" y="-14"/>
      <point x="463" y="-5"/>
      <point x="481" y="13" type="curve"/>
      <point x="499" y="30"/>
      <point x="508" y="51"/>
      <point x="508" y="76" type="curve"/>
      <point x="508" y="90"/>
      <point x="505" y="103"/>
      <point x="500" y="115" type="curve"/>
      <point x="495" y="126"/>
      <point x="488" y="136"/>
      <point x="479" y="145" type="curve"/>
      <point x="470" y="153"/>
      <point x="460" y="160"/>
      <point x="449" y="165" type="curve"/>
      <point x="437" y="170"/>
      <point x="425" y="172"/>
    </contour>
  </outline>
</glyph>
<glyph name="at" format="2">
  <advance width="1604"/>
  <unicode hex="0040"/>
  <outline>
    <contour>
      <point x="1219" y="76" type="curve"/>
      <point x="1198" y="127" type="line"/>
      <point x="1164" y="112"/>
      <point x="1133" y="100"/>
      <point x="1104" y="89" type="curve"/>
      <point x="1075" y="78"/>
      <point x="1047" y="70"/>
      <point x="1020" y="63" type="curve"/>
      <point x="993" y="56"/>
      <point x="967" y="51"/>
      <point x="941" y="48" type="curve"/>
      <point x="914" y="45"/>
      <point x="886" y="43"/>
      <point x="856" y="43" type="curve"/>
      <point x="782" y="43"/>
      <point x="714" y="56"/>
      <point x="652" y="82" type="curve"/>
      <point x="590" y="107"/>
      <point x="537" y="143"/>
      <point x="492" y="189" type="curve"/>
      <point x="447" y="235"/>
      <point x="411" y="290"/>
      <point x="386" y="354" type="curve"/>
      <point x="361" y="417"/>
      <point x="348" y="487"/>
      <point x="348" y="563" type="curve"/>
      <point x="348" y="604"/>
      <point x="352" y="644"/>
      <point x="360" y="684" type="curve"/>
      <point x="367" y="723"/>
      <point x="378" y="762"/>
      <point x="392" y="799" type="curve"/>
      <point x="406" y="836"/>
      <point x="423" y="870"/>
      <point x="443" y="903" type="curve"/>
      <point x="463" y="935"/>
      <point x="485" y="964"/>
      <point x="510" y="989" type="curve"/>
      <point x="552" y="1034"/>
      <point x="601" y="1068"/>
      <point x="657" y="1090" type="curve"/>
      <point x="713" y="1111"/>
      <point x="774" y="1122"/>
      <point x="840" y="1122" type="curve"/>
      <point x="908" y="1122"/>
      <point x="972" y="1110"/>
      <point x="1033" y="1085" type="curve"/>
      <point x="1093" y="1060"/>
      <point x="1146" y="1026"/>
      <point x="1192" y="983" type="curve"/>
      <point x="1237" y="940"/>
      <point x="1273" y="890"/>
      <point x="1300" y="833" type="curve"/>
      <point x="1326" y="775"/>
      <point x="1339" y="714"/>
      <point x="1339" y="649" type="curve"/>
      <point x="1339" y="606"/>
      <point x="1333" y="564"/>
      <point x="1320" y="523" type="curve"/>
      <point x="1307" y="482"/>
      <point x="1290" y="445"/>
      <point x="1269" y="413" type="curve"/>
      <point x="1248" y="380"/>
      <point x="1224" y="354"/>
      <point x="1197" y="335" type="curve"/>
      <point x="1170" y="315"/>
      <point x="1142" y="305"/>
      <point x="1114" y="305" type="curve"/>
      <point x="1069" y="305"/>
      <point x="1047" y="332"/>
      <point x="1047" y="387" type="curve"/>
      <point x="1047" y="393"/>
      <point x="1047" y="399"/>
      <point x="1048" y="404" type="curve"/>
      <point x="1049" y="409"/>
      <point x="1050" y="414"/>
      <point x="1051" y="418" type="curve"/>
      <point x="1163" y="860" type="line"/>
      <point x="1042" y="860" type="line"/>
      <point x="1024" y="795" type="line"/>
      <point x="1007" y="830"/>
      <point x="990" y="853"/>
      <point x="971" y="866" type="curve"/>
      <point x="952" y="879"/>
      <point x="928" y="885"/>
      <point x="899" y="885" type="curve"/>
      <point x="867" y="885"/>
      <point x="837" y="879"/>
      <point x="808" y="867" type="curve"/>
      <point x="779" y="854"/>
      <point x="751" y="837"/>
      <point x="726" y="816" type="curve"/>
      <point x="701" y="794"/>
      <point x="678" y="769"/>
      <point x="657" y="740" type="curve"/>
      <point x="636" y="711"/>
      <point x="619" y="681"/>
      <point x="604" y="648" type="curve"/>
      <point x="589" y="615"/>
      <point x="577" y="582"/>
      <point x="569" y="547" type="curve"/>
      <point x="561" y="512"/>
      <point x="557" y="477"/>
      <point x="557" y="444" type="curve"/>
      <point x="557" y="417"/>
      <point x="561" y="391"/>
      <point x="570" y="368" type="curve"/>
      <point x="578" y="345"/>
      <point x="589" y="325"/>
      <point x="603" y="308" type="curve"/>
      <point x="617" y="291"/>
      <point x="634" y="277"/>
      <point x="653" y="267" type="curve"/>
      <point x="672" y="257"/>
      <point x="692" y="252"/>
      <point x="713" y="252" type="curve"/>
      <point x="751" y="252"/>
      <point x="789" y="263"/>
      <point x="828" y="284" type="curve"/>
      <point x="866" y="305"/>
      <point x="900" y="336"/>
      <point x="930" y="377" type="curve"/>
      <point x="935" y="337"/>
      <point x="952" y="306"/>
      <point x="981" y="284" type="curve"/>
      <point x="1010" y="261"/>
      <point x="1045" y="250"/>
      <point x="1087" y="250" type="curve"/>
      <point x="1131" y="250"/>
      <point x="1173" y="261"/>
      <point x="1212" y="283" type="curve"/>
      <point x="1251" y="305"/>
      <point x="1285" y="335"/>
      <point x="1314" y="373" type="curve"/>
      <point x="1343" y="411"/>
      <point x="1367" y="455"/>
      <point x="1384" y="506" type="curve"/>
      <point x="1401" y="556"/>
      <point x="1409" y="609"/>
      <point x="1409" y="666" type="curve"/>
      <point x="1409" y="738"/>
      <point x="1394" y="805"/>
      <point x="1365" y="867" type="curve"/>
      <point x="1335" y="929"/>
      <point x="1294" y="983"/>
      <point x="1243" y="1029" type="curve"/>
      <point x="1192" y="1075"/>
      <point x="1131" y="1111"/>
      <point x="1062" y="1137" type="curve"/>
      <point x="993" y="1163"/>
      <point x="918" y="1176"/>
      <point x="838" y="1176" type="curve"/>
      <point x="779" y="1176"/>
      <point x="722" y="1169"/>
      <point x="668" y="1155" type="curve"/>
      <point x="613" y="1140"/>
      <point x="563" y="1120"/>
      <point x="516" y="1094" type="curve"/>
      <point x="469" y="1067"/>
      <point x="426" y="1036"/>
      <point x="388" y="999" type="curve"/>
      <point x="349" y="962"/>
      <point x="316" y="921"/>
      <point x="289" y="876" type="curve"/>
      <point x="262" y="831"/>
      <point x="241" y="782"/>
      <point x="226" y="730" type="curve"/>
      <point x="211" y="678"/>
      <point x="203" y="624"/>
      <point x="203" y="567" type="curve"/>
      <point x="203" y="483"/>
      <point x="219" y="405"/>
      <point x="252" y="333" type="curve"/>
      <point x="284" y="260"/>
      <point x="329" y="198"/>
      <point x="386" y="145" type="curve"/>
      <point x="443" y="92"/>
      <point x="510" y="50"/>
      <point x="588" y="20" type="curve"/>
      <point x="666" y="-10"/>
      <point x="751" y="-25"/>
      <point x="842" y="-25" type="curve"/>
      <point x="872" y="-25"/>
      <point x="901" y="-23"/>
      <point x="928" y="-20" type="curve"/>
      <point x="955" y="-17"/>
      <point x="984" y="-12"/>
      <point x="1013" y="-4" type="curve"/>
      <point x="1042" y="3"/>
      <point x="1074" y="14"/>
      <point x="1107" y="27" type="curve"/>
      <point x="1140" y="40"/>
      <point x="1178" y="56"/>
    </contour>
    <contour>
      <point x="918" y="807" type="curve"/>
      <point x="924" y="807" type="line"/>
      <point x="947" y="806"/>
      <point x="965" y="797"/>
      <point x="977" y="781" type="curve"/>
      <point x="989" y="764"/>
      <point x="995" y="741"/>
      <point x="995" y="711" type="curve"/>
      <point x="995" y="687"/>
      <point x="993" y="661"/>
      <point x="988" y="633" type="curve"/>
      <point x="983" y="605"/>
      <point x="977" y="577"/>
      <point x="968" y="548" type="curve"/>
      <point x="959" y="519"/>
      <point x="949" y="492"/>
      <point x="936" y="465" type="curve"/>
      <point x="923" y="438"/>
      <point x="909" y="415"/>
      <point x="894" y="394" type="curve"/>
      <point x="879" y="373"/>
      <point x="862" y="357"/>
      <point x="844" y="345" type="curve"/>
      <point x="825" y="332"/>
      <point x="806" y="326"/>
      <point x="786" y="326" type="curve"/>
      <point x="753" y="326"/>
      <point x="728" y="339"/>
      <point x="710" y="365" type="curve"/>
      <point x="691" y="391"/>
      <point x="682" y="427"/>
      <point x="682" y="473" type="curve"/>
      <point x="682" y="569"/>
      <point x="712" y="652"/>
      <point x="772" y="721" type="curve"/>
      <point x="797" y="749"/>
      <point x="822" y="770"/>
      <point x="847" y="785" type="curve"/>
      <point x="872" y="800"/>
      <point x="896" y="807"/>
    </contour>
  </outline>
</glyph>
<glyph name="A" format="2">
  <advance width="1257"/>
  <unicode hex="0041"/>
  <outline>
    <contour>
      <point x="784" y="0" type="line"/>
      <point x="1229" y="0" type="line"/>
      <point x="1229" y="33" type="line"/>
      <point x="1210" y="34"/>
      <point x="1194" y="37"/>
      <point x="1181" y="41" type="curve"/>
      <point x="1168" y="45"/>
      <point x="1156" y="52"/>
      <point x="1145" y="63" type="curve"/>
      <point x="1134" y="73"/>
      <point x="1123" y="88"/>
      <point x="1112" y="107" type="curve"/>
      <point x="1101" y="126"/>
      <point x="1088" y="152"/>
      <point x="1073" y="184" type="curve"/>
      <point x="639" y="1174" type="line"/>
      <point x="604" y="1174" type="line"/>
      <point x="242" y="319" type="line"/>
      <point x="215" y="256"/>
      <point x="192" y="206"/>
      <point x="174" y="169" type="curve"/>
      <point x="155" y="132"/>
      <point x="139" y="103"/>
      <point x="124" y="84" type="curve"/>
      <point x="109" y="64"/>
      <point x="94" y="51"/>
      <point x="79" y="45" type="curve"/>
      <point x="64" y="38"/>
      <point x="47" y="34"/>
      <point x="27" y="33" type="curve"/>
      <point x="27" y="0" type="line"/>
      <point x="371" y="0" type="line"/>
      <point x="371" y="33" type="line"/>
      <point x="329" y="33"/>
      <point x="299" y="39"/>
      <point x="280" y="50" type="curve"/>
      <point x="261" y="61"/>
      <point x="252" y="79"/>
      <point x="252" y="104" type="curve"/>
      <point x="252" y="115"/>
      <point x="253" y="127"/>
      <point x="256" y="138" type="curve"/>
      <point x="259" y="149"/>
      <point x="262" y="161"/>
      <point x="266" y="172" type="curve"/>
      <point x="346" y="377" type="line"/>
      <point x="803" y="377" type="line"/>
      <point x="874" y="209" type="line"/>
      <point x="885" y="184"/>
      <point x="894" y="162"/>
      <point x="899" y="142" type="curve"/>
      <point x="904" y="121"/>
      <point x="907" y="105"/>
      <point x="907" y="92" type="curve"/>
      <point x="907" y="81"/>
      <point x="905" y="72"/>
      <point x="901" y="65" type="curve"/>
      <point x="897" y="58"/>
      <point x="890" y="52"/>
      <point x="881" y="48" type="curve"/>
      <point x="871" y="44"/>
      <point x="858" y="41"/>
      <point x="843" y="39" type="curve"/>
      <point x="827" y="36"/>
      <point x="807" y="34"/>
      <point x="784" y="33" type="curve"/>
    </contour>
    <contour>
      <point x="575" y="926" type="line"/>
      <point x="778" y="446" type="line"/>
      <point x="377" y="446" type="line"/>
    </contour>
  </outline>
</glyph>
<glyph name="B" format="2">
  <advance width="1161"/>
  <unicode hex="0042"/>
  <outline>
    <contour>
      <point x="516" y="1153" type="curve"/>
      <point x="31" y="1153" type="line"/>
      <point x="31" y="1118" type="line"/>
      <point x="67" y="1117"/>
      <point x="96" y="1114"/>
      <point x="118" y="1109" type="curve"/>
      <point x="139" y="1104"/>
      <point x="156" y="1097"/>
      <point x="168" y="1086" type="curve"/>
      <point x="179" y="1075"/>
      <point x="187" y="1059"/>
      <point x="191" y="1040" type="curve"/>
      <point x="195" y="1021"/>
      <point x="197" y="995"/>
      <point x="197" y="963" type="curve"/>
      <point x="197" y="190" type="line"/>
      <point x="197" y="157"/>
      <point x="195" y="131"/>
      <point x="191" y="111" type="curve"/>
      <point x="187" y="91"/>
      <point x="179" y="76"/>
      <point x="167" y="65" type="curve"/>
      <point x="155" y="54"/>
      <point x="138" y="46"/>
      <point x="117" y="42" type="curve"/>
      <point x="95" y="37"/>
      <point x="66" y="34"/>
      <point x="31" y="33" type="curve"/>
      <point x="31" y="0" type="line"/>
      <point x="610" y="0" type="line"/>
      <point x="681" y="0"/>
      <point x="743" y="8"/>
      <point x="796" y="24" type="curve"/>
      <point x="849" y="40"/>
      <point x="893" y="62"/>
      <point x="928" y="90" type="curve"/>
      <point x="963" y="118"/>
      <point x="989" y="151"/>
      <point x="1006" y="189" type="curve"/>
      <point x="1023" y="227"/>
      <point x="1032" y="268"/>
      <point x="1032" y="313" type="curve"/>
      <point x="1032" y="351"/>
      <point x="1025" y="387"/>
      <point x="1011" y="421" type="curve"/>
      <point x="997" y="455"/>
      <point x="975" y="485"/>
      <point x="946" y="510" type="curve"/>
      <point x="934" y="522"/>
      <point x="921" y="533"/>
      <point x="908" y="542" type="curve"/>
      <point x="895" y="551"/>
      <point x="880" y="560"/>
      <point x="864" y="567" type="curve"/>
      <point x="847" y="574"/>
      <point x="828" y="581"/>
      <point x="807" y="587" type="curve"/>
      <point x="786" y="593"/>
      <point x="761" y="599"/>
      <point x="733" y="606" type="curve"/>
      <point x="756" y="611"/>
      <point x="775" y="617"/>
      <point x="792" y="622" type="curve"/>
      <point x="809" y="627"/>
      <point x="824" y="633"/>
      <point x="837" y="639" type="curve"/>
      <point x="850" y="645"/>
      <point x="861" y="652"/>
      <point x="872" y="659" type="curve"/>
      <point x="883" y="666"/>
      <point x="893" y="673"/>
      <point x="903" y="682" type="curve"/>
      <point x="924" y="703"/>
      <point x="941" y="728"/>
      <point x="954" y="758" type="curve"/>
      <point x="967" y="787"/>
      <point x="973" y="820"/>
      <point x="973" y="856" type="curve"/>
      <point x="973" y="1054"/>
      <point x="821" y="1153"/>
    </contour>
    <contour>
      <point x="375" y="135" type="curve"/>
      <point x="375" y="567" type="line"/>
      <point x="417" y="567"/>
      <point x="454" y="567"/>
      <point x="486" y="566" type="curve"/>
      <point x="517" y="565"/>
      <point x="545" y="563"/>
      <point x="570" y="560" type="curve"/>
      <point x="595" y="557"/>
      <point x="616" y="554"/>
      <point x="635" y="549" type="curve"/>
      <point x="653" y="544"/>
      <point x="670" y="539"/>
      <point x="686" y="532" type="curve"/>
      <point x="736" y="512"/>
      <point x="773" y="484"/>
      <point x="796" y="449" type="curve"/>
      <point x="819" y="414"/>
      <point x="831" y="368"/>
      <point x="831" y="311" type="curve"/>
      <point x="831" y="270"/>
      <point x="825" y="234"/>
      <point x="813" y="204" type="curve"/>
      <point x="800" y="173"/>
      <point x="780" y="148"/>
      <point x="753" y="127" type="curve"/>
      <point x="725" y="106"/>
      <point x="689" y="91"/>
      <point x="645" y="81" type="curve"/>
      <point x="600" y="71"/>
      <point x="546" y="66"/>
      <point x="483" y="66" type="curve"/>
      <point x="462" y="66"/>
      <point x="444" y="67"/>
      <point x="431" y="69" type="curve"/>
      <point x="417" y="71"/>
      <point x="406" y="75"/>
      <point x="398" y="80" type="curve"/>
      <point x="389" y="85"/>
      <point x="383" y="92"/>
      <point x="380" y="101" type="curve"/>
      <point x="377" y="110"/>
      <point x="375" y="121"/>
    </contour>
    <contour>
      <point x="541" y="637" type="curve"/>
      <point x="375" y="637" type="line"/>
      <point x="375" y="1036" type="line"/>
      <point x="375" y="1055"/>
      <point x="378" y="1069"/>
      <point x="384" y="1076" type="curve"/>
      <point x="390" y="1083"/>
      <point x="399" y="1087"/>
      <point x="412" y="1087" type="curve"/>
      <point x="489" y="1087" type="line"/>
      <point x="591" y="1087"/>
      <point x="668" y="1067"/>
      <point x="720" y="1028" type="curve"/>
      <point x="771" y="988"/>
      <point x="797" y="929"/>
      <point x="797" y="850" type="curve"/>
      <point x="797" y="780"/>
      <point x="775" y="727"/>
      <point x="732" y="691" type="curve"/>
      <point x="688" y="655"/>
      <point x="624" y="637"/>
    </contour>
  </outline>
</glyph>
<glyph name="C" format="2">
  <advance width="1161"/>
  <unicode hex="0043"/>
  <outline>
    <contour>
      <point x="1040" y="784" type="curve"/>
      <point x="1063" y="784" type="line"/>
      <point x="1063" y="1176" type="line"/>
      <point x="1026" y="1176" type="line"/>
      <point x="1022" y="1159"/>
      <point x="1013" y="1145"/>
      <point x="1000" y="1134" type="curve"/>
      <point x="987" y="1123"/>
      <point x="971" y="1118"/>
      <point x="954" y="1118" type="curve"/>
      <point x="946" y="1118"/>
      <point x="936" y="1120"/>
      <point x="924" y="1123" type="curve"/>
      <point x="911" y="1126"/>
      <point x="899" y="1130"/>
      <point x="887" y="1135" type="curve"/>
      <point x="843" y="1148"/>
      <point x="800" y="1159"/>
      <point x="758" y="1166" type="curve"/>
      <point x="716" y="1173"/>
      <point x="674" y="1176"/>
      <point x="633" y="1176" type="curve"/>
      <point x="558" y="1176"/>
      <point x="487" y="1163"/>
      <point x="420" y="1138" type="curve"/>
      <point x="352" y="1113"/>
      <point x="291" y="1075"/>
      <point x="238" y="1026" type="curve"/>
      <point x="175" y="973"/>
      <point x="128" y="907"/>
      <point x="96" y="830" type="curve"/>
      <point x="63" y="753"/>
      <point x="47" y="664"/>
      <point x="47" y="565" type="curve"/>
      <point x="47" y="474"/>
      <point x="62" y="392"/>
      <point x="91" y="319" type="curve"/>
      <point x="120" y="246"/>
      <point x="161" y="185"/>
      <point x="213" y="134" type="curve"/>
      <point x="265" y="83"/>
      <point x="326" y="43"/>
      <point x="397" y="16" type="curve"/>
      <point x="468" y="-11"/>
      <point x="544" y="-25"/>
      <point x="627" y="-25" type="curve"/>
      <point x="726" y="-25"/>
      <point x="817" y="-6"/>
      <point x="899" y="33" type="curve"/>
      <point x="980" y="71"/>
      <point x="1048" y="126"/>
      <point x="1102" y="197" type="curve"/>
      <point x="1071" y="227" type="line"/>
      <point x="1008" y="164"/>
      <point x="946" y="119"/>
      <point x="883" y="92" type="curve"/>
      <point x="820" y="65"/>
      <point x="753" y="51"/>
      <point x="682" y="51" type="curve"/>
      <point x="617" y="51"/>
      <point x="558" y="63"/>
      <point x="505" y="86" type="curve"/>
      <point x="452" y="109"/>
      <point x="407" y="143"/>
      <point x="370" y="188" type="curve"/>
      <point x="332" y="233"/>
      <point x="303" y="290"/>
      <point x="283" y="357" type="curve"/>
      <point x="262" y="424"/>
      <point x="252" y="501"/>
      <point x="252" y="588" type="curve"/>
      <point x="252" y="667"/>
      <point x="262" y="739"/>
      <point x="281" y="803" type="curve"/>
      <point x="300" y="867"/>
      <point x="328" y="922"/>
      <point x="364" y="967" type="curve"/>
      <point x="400" y="1012"/>
      <point x="444" y="1047"/>
      <point x="495" y="1072" type="curve"/>
      <point x="546" y="1096"/>
      <point x="603" y="1108"/>
      <point x="666" y="1108" type="curve"/>
      <point x="767" y="1108"/>
      <point x="853" y="1072"/>
      <point x="924" y="1001" type="curve"/>
      <point x="938" y="987"/>
      <point x="950" y="973"/>
      <point x="961" y="959" type="curve"/>
      <point x="971" y="945"/>
      <point x="980" y="930"/>
      <point x="989" y="913" type="curve"/>
      <point x="997" y="896"/>
      <point x="1005" y="878"/>
      <point x="1013" y="857" type="curve"/>
      <point x="1021" y="836"/>
      <point x="1030" y="812"/>
    </contour>
  </outline>
</glyph>
<glyph name="D" format="2">
  <advance width="1257"/>
  <unicode hex="0044"/>
  <outline>
    <contour>
      <point x="180" y="963" type="curve"/>
      <point x="180" y="190" type="line"/>
      <point x="180" y="159"/>
      <point x="178" y="134"/>
      <point x="175" y="115" type="curve"/>
      <point x="172" y="96"/>
      <point x="165" y="80"/>
      <point x="154" y="69" type="curve"/>
      <point x="143" y="58"/>
      <point x="128" y="50"/>
      <point x="108" y="45" type="curve"/>
      <point x="88" y="40"/>
      <point x="62" y="36"/>
      <point x="29" y="33" type="curve"/>
      <point x="29" y="0" type="line"/>
      <point x="522" y="0" type="line"/>
      <point x="630" y="0"/>
      <point x="726" y="14"/>
      <point x="809" y="43" type="curve"/>
      <point x="892" y="71"/>
      <point x="963" y="111"/>
      <point x="1020" y="162" type="curve"/>
      <point x="1077" y="213"/>
      <point x="1120" y="275"/>
      <point x="1150" y="346" type="curve"/>
      <point x="1179" y="417"/>
      <point x="1194" y="496"/>
      <point x="1194" y="582" type="curve"/>
      <point x="1194" y="672"/>
      <point x="1178" y="752"/>
      <point x="1146" y="823" type="curve"/>
      <point x="1114" y="894"/>
      <point x="1068" y="954"/>
      <point x="1008" y="1003" type="curve"/>
      <point x="948" y="1052"/>
      <point x="875" y="1089"/>
      <point x="789" y="1115" type="curve"/>
      <point x="703" y="1140"/>
      <point x="606" y="1153"/>
      <point x="498" y="1153" type="curve"/>
      <point x="29" y="1153" type="line"/>
      <point x="29" y="1118" type="line"/>
      <point x="63" y="1115"/>
      <point x="90" y="1112"/>
      <point x="110" y="1108" type="curve"/>
      <point x="129" y="1104"/>
      <point x="144" y="1097"/>
      <point x="155" y="1086" type="curve"/>
      <point x="166" y="1075"/>
      <point x="173" y="1060"/>
      <point x="176" y="1041" type="curve"/>
      <point x="179" y="1022"/>
      <point x="180" y="996"/>
    </contour>
    <contour>
      <point x="358" y="135" type="curve"/>
      <point x="358" y="1020" type="line"/>
      <point x="358" y="1034"/>
      <point x="359" y="1045"/>
      <point x="362" y="1054" type="curve"/>
      <point x="365" y="1063"/>
      <point x="370" y="1070"/>
      <point x="377" y="1075" type="curve"/>
      <point x="384" y="1080"/>
      <point x="393" y="1083"/>
      <point x="405" y="1085" type="curve"/>
      <point x="416" y="1086"/>
      <point x="431" y="1087"/>
      <point x="449" y="1087" type="curve"/>
      <point x="598" y="1087"/>
      <point x="714" y="1058"/>
      <point x="797" y="1001" type="curve"/>
      <point x="935" y="904"/>
      <point x="1004" y="760"/>
      <point x="1004" y="569" type="curve"/>
      <point x="1004" y="362"/>
      <point x="933" y="218"/>
      <point x="791" y="135" type="curve"/>
      <point x="769" y="123"/>
      <point x="746" y="113"/>
      <point x="722" y="104" type="curve"/>
      <point x="697" y="95"/>
      <point x="671" y="87"/>
      <point x="644" y="82" type="curve"/>
      <point x="616" y="77"/>
      <point x="586" y="73"/>
      <point x="554" y="70" type="curve"/>
      <point x="522" y="67"/>
      <point x="487" y="66"/>
      <point x="449" y="66" type="curve"/>
      <point x="432" y="66"/>
      <point x="417" y="67"/>
      <point x="406" y="69" type="curve"/>
      <point x="394" y="71"/>
      <point x="385" y="75"/>
      <point x="378" y="80" type="curve"/>
      <point x="371" y="85"/>
      <point x="366" y="92"/>
      <point x="363" y="101" type="curve"/>
      <point x="360" y="110"/>
      <point x="358" y="121"/>
    </contour>
  </outline>
</glyph>
<glyph name="E" format="2">
  <advance width="1063"/>
  <unicode hex="0045"/>
  <outline>
    <contour>
      <point x="20" y="0" type="line"/>
      <point x="961" y="0" type="line"/>
      <point x="1040" y="295" type="line"/>
      <point x="989" y="295" type="line"/>
      <point x="968" y="247"/>
      <point x="947" y="208"/>
      <point x="926" y="179" type="curve"/>
      <point x="904" y="149"/>
      <point x="878" y="126"/>
      <point x="847" y="109" type="curve"/>
      <point x="816" y="92"/>
      <point x="780" y="81"/>
      <point x="737" y="75" type="curve"/>
      <point x="694" y="69"/>
      <point x="642" y="66"/>
      <point x="580" y="66" type="curve"/>
      <point x="532" y="66" type="line"/>
      <point x="511" y="66"/>
      <point x="491" y="66"/>
      <point x="472" y="67" type="curve"/>
      <point x="452" y="68"/>
      <point x="434" y="69"/>
      <point x="419" y="71" type="curve"/>
      <point x="404" y="72"/>
      <point x="391" y="74"/>
      <point x="381" y="77" type="curve"/>
      <point x="370" y="80"/>
      <point x="364" y="83"/>
      <point x="362" y="86" type="curve"/>
      <point x="358" y="87"/>
      <point x="355" y="93"/>
      <point x="353" y="102" type="curve"/>
      <point x="351" y="111"/>
      <point x="350" y="124"/>
      <point x="350" y="139" type="curve"/>
      <point x="350" y="569" type="line"/>
      <point x="618" y="569" type="line"/>
      <point x="654" y="569"/>
      <point x="683" y="567"/>
      <point x="706" y="564" type="curve"/>
      <point x="728" y="560"/>
      <point x="746" y="552"/>
      <point x="759" y="540" type="curve"/>
      <point x="772" y="528"/>
      <point x="783" y="511"/>
      <point x="790" y="489" type="curve"/>
      <point x="797" y="467"/>
      <point x="803" y="438"/>
      <point x="809" y="401" type="curve"/>
      <point x="850" y="401" type="line"/>
      <point x="850" y="807" type="line"/>
      <point x="809" y="807" type="line"/>
      <point x="804" y="771"/>
      <point x="799" y="744"/>
      <point x="794" y="727" type="curve"/>
      <point x="789" y="709"/>
      <point x="781" y="695"/>
      <point x="770" y="684" type="curve"/>
      <point x="748" y="655"/>
      <point x="697" y="641"/>
      <point x="618" y="641" type="curve"/>
      <point x="350" y="641" type="line"/>
      <point x="350" y="1026" type="line"/>
      <point x="350" y="1051"/>
      <point x="354" y="1067"/>
      <point x="361" y="1074" type="curve"/>
      <point x="368" y="1081"/>
      <point x="384" y="1085"/>
      <point x="408" y="1085" type="curve"/>
      <point x="643" y="1085" type="line"/>
      <point x="692" y="1085"/>
      <point x="732" y="1083"/>
      <point x="763" y="1079" type="curve"/>
      <point x="794" y="1075"/>
      <point x="820" y="1067"/>
      <point x="839" y="1054" type="curve"/>
      <point x="858" y="1041"/>
      <point x="872" y="1022"/>
      <point x="882" y="998" type="curve"/>
      <point x="892" y="974"/>
      <point x="900" y="942"/>
      <point x="907" y="903" type="curve"/>
      <point x="944" y="903" type="line"/>
      <point x="944" y="1153" type="line"/>
      <point x="20" y="1153" type="line"/>
      <point x="20" y="1118" type="line"/>
      <point x="53" y="1115"/>
      <point x="79" y="1112"/>
      <point x="99" y="1107" type="curve"/>
      <point x="119" y="1102"/>
      <point x="135" y="1095"/>
      <point x="146" y="1084" type="curve"/>
      <point x="157" y="1073"/>
      <point x="164" y="1057"/>
      <point x="167" y="1038" type="curve"/>
      <point x="170" y="1019"/>
      <point x="172" y="994"/>
      <point x="172" y="963" type="curve"/>
      <point x="172" y="190" type="line"/>
      <point x="172" y="159"/>
      <point x="170" y="134"/>
      <point x="167" y="115" type="curve"/>
      <point x="164" y="96"/>
      <point x="157" y="80"/>
      <point x="146" y="69" type="curve"/>
      <point x="135" y="58"/>
      <point x="119" y="50"/>
      <point x="99" y="45" type="curve"/>
      <point x="79" y="40"/>
      <point x="53" y="36"/>
      <point x="20" y="33" type="curve"/>
    </contour>
  </outline>
</glyph>
<glyph name="F" format="2">
  <advance width="969"/>
  <unicode hex="0046"/>
  <outline>
    <contour>
      <point x="795" y="401" type="curve"/>
      <point x="834" y="401" type="line"/>
      <point x="834" y="807" type="line"/>
      <point x="795" y="807" type="line"/>
      <point x="789" y="772"/>
      <point x="782" y="743"/>
      <point x="775" y="722" type="curve"/>
      <point x="767" y="700"/>
      <point x="756" y="683"/>
      <point x="742" y="671" type="curve"/>
      <point x="728" y="659"/>
      <point x="710" y="651"/>
      <point x="688" y="647" type="curve"/>
      <point x="665" y="643"/>
      <point x="637" y="641"/>
      <point x="602" y="641" type="curve"/>
      <point x="350" y="641" type="line"/>
      <point x="350" y="1026" type="line"/>
      <point x="350" y="1038"/>
      <point x="351" y="1048"/>
      <point x="352" y="1056" type="curve"/>
      <point x="353" y="1063"/>
      <point x="356" y="1069"/>
      <point x="360" y="1074" type="curve"/>
      <point x="364" y="1078"/>
      <point x="370" y="1081"/>
      <point x="377" y="1083" type="curve"/>
      <point x="384" y="1084"/>
      <point x="394" y="1085"/>
      <point x="406" y="1085" type="curve"/>
      <point x="643" y="1085" type="line"/>
      <point x="692" y="1085"/>
      <point x="732" y="1083"/>
      <point x="763" y="1079" type="curve"/>
      <point x="794" y="1075"/>
      <point x="820" y="1067"/>
      <point x="839" y="1054" type="curve"/>
      <point x="858" y="1041"/>
      <point x="872" y="1022"/>
      <point x="882" y="998" type="curve"/>
      <point x="892" y="974"/>
      <point x="900" y="942"/>
      <point x="907" y="903" type="curve"/>
      <point x="944" y="903" type="line"/>
      <point x="944" y="1153" type="line"/>
      <point x="20" y="1153" type="line"/>
      <point x="20" y="1118" type="line"/>
      <point x="53" y="1115"/>
      <point x="79" y="1112"/>
      <point x="99" y="1107" type="curve"/>
      <point x="119" y="1102"/>
      <point x="135" y="1095"/>
      <point x="146" y="1084" type="curve"/>
      <point x="157" y="1073"/>
      <point x="164" y="1057"/>
      <point x="167" y="1038" type="curve"/>
      <point x="170" y="1019"/>
      <point x="172" y="994"/>
      <point x="172" y="963" type="curve"/>
      <point x="172" y="209" type="line"/>
      <point x="172" y="172"/>
      <point x="170" y="143"/>
      <point x="167" y="121" type="curve"/>
      <point x="164" y="99"/>
      <point x="157" y="82"/>
      <point x="146" y="70" type="curve"/>
      <point x="135" y="58"/>
      <point x="120" y="50"/>
      <point x="100" y="45" type="curve"/>
      <point x="80" y="40"/>
      <point x="53" y="36"/>
      <point x="20" y="33" type="curve"/>
      <point x="20" y="0" type="line"/>
      <point x="508" y="0" type="line"/>
      <point x="508" y="33" type="line"/>
      <point x="475" y="36"/>
      <point x="448" y="39"/>
      <point x="427" y="44" type="curve"/>
      <point x="406" y="48"/>
      <point x="390" y="56"/>
      <point x="379" y="67" type="curve"/>
      <point x="368" y="78"/>
      <point x="360" y="93"/>
      <point x="356" y="113" type="curve"/>
      <point x="352" y="132"/>
      <point x="350" y="158"/>
      <point x="350" y="190" type="curve"/>
      <point x="350" y="569" type="line"/>
      <point x="602" y="569" type="line"/>
      <point x="637" y="569"/>
      <point x="666" y="567"/>
      <point x="689" y="563" type="curve"/>
      <point x="711" y="558"/>
      <point x="729" y="550"/>
      <point x="743" y="538" type="curve"/>
      <point x="757" y="526"/>
      <point x="768" y="509"/>
      <point x="775" y="487" type="curve"/>
      <point x="782" y="465"/>
      <point x="789" y="436"/>
    </contour>
  </outline>
</glyph>
<glyph name="G" format="2">
  <advance width="1257"/>
  <unicode hex="0047"/>
  <outline>
    <contour>
      <point x="1235" y="586" type="curve"/>
      <point x="1235" y="616" type="line"/>
      <point x="791" y="616" type="line"/>
      <point x="791" y="586" type="line"/>
      <point x="809" y="585"/>
      <point x="824" y="583"/>
      <point x="837" y="582" type="curve"/>
      <point x="850" y="580"/>
      <point x="860" y="578"/>
      <point x="869" y="576" type="curve"/>
      <point x="878" y="574"/>
      <point x="885" y="572"/>
      <point x="891" y="569" type="curve"/>
      <point x="896" y="566"/>
      <point x="902" y="563"/>
      <point x="907" y="559" type="curve"/>
      <point x="920" y="552"/>
      <point x="930" y="538"/>
      <point x="935" y="518" type="curve"/>
      <point x="940" y="497"/>
      <point x="942" y="468"/>
      <point x="942" y="430" type="curve"/>
      <point x="942" y="147" type="line"/>
      <point x="942" y="133"/>
      <point x="936" y="120"/>
      <point x="924" y="108" type="curve"/>
      <point x="912" y="95"/>
      <point x="896" y="84"/>
      <point x="875" y="75" type="curve"/>
      <point x="854" y="66"/>
      <point x="829" y="58"/>
      <point x="802" y="53" type="curve"/>
      <point x="774" y="48"/>
      <point x="744" y="45"/>
      <point x="713" y="45" type="curve"/>
      <point x="642" y="45"/>
      <point x="578" y="57"/>
      <point x="521" y="82" type="curve"/>
      <point x="464" y="106"/>
      <point x="416" y="141"/>
      <point x="377" y="186" type="curve"/>
      <point x="337" y="231"/>
      <point x="307" y="285"/>
      <point x="286" y="350" type="curve"/>
      <point x="265" y="415"/>
      <point x="254" y="487"/>
      <point x="254" y="567" type="curve"/>
      <point x="254" y="653"/>
      <point x="265" y="730"/>
      <point x="286" y="797" type="curve"/>
      <point x="307" y="864"/>
      <point x="336" y="920"/>
      <point x="374" y="967" type="curve"/>
      <point x="411" y="1013"/>
      <point x="456" y="1048"/>
      <point x="509" y="1072" type="curve"/>
      <point x="561" y="1096"/>
      <point x="619" y="1108"/>
      <point x="682" y="1108" type="curve"/>
      <point x="779" y="1108"/>
      <point x="863" y="1076"/>
      <point x="934" y="1012" type="curve"/>
      <point x="946" y="1000"/>
      <point x="957" y="988"/>
      <point x="968" y="975" type="curve"/>
      <point x="978" y="962"/>
      <point x="988" y="947"/>
      <point x="998" y="932" type="curve"/>
      <point x="1007" y="916"/>
      <point x="1017" y="898"/>
      <point x="1027" y="879" type="curve"/>
      <point x="1036" y="859"/>
      <point x="1046" y="836"/>
      <point x="1057" y="809" type="curve"/>
      <point x="1083" y="809" type="line"/>
      <point x="1083" y="1176" type="line"/>
      <point x="1044" y="1176" type="line"/>
      <point x="1039" y="1161"/>
      <point x="1029" y="1147"/>
      <point x="1015" y="1136" type="curve"/>
      <point x="1000" y="1124"/>
      <point x="984" y="1118"/>
      <point x="967" y="1118" type="curve"/>
      <point x="948" y="1118"/>
      <point x="923" y="1124"/>
      <point x="891" y="1137" type="curve"/>
      <point x="811" y="1163"/>
      <point x="732" y="1176"/>
      <point x="653" y="1176" type="curve"/>
      <point x="566" y="1176"/>
      <point x="485" y="1161"/>
      <point x="412" y="1131" type="curve"/>
      <point x="339" y="1100"/>
      <point x="276" y="1058"/>
      <point x="223" y="1004" type="curve"/>
      <point x="170" y="950"/>
      <point x="128" y="886"/>
      <point x="99" y="811" type="curve"/>
      <point x="70" y="736"/>
      <point x="55" y="654"/>
      <point x="55" y="565" type="curve"/>
      <point x="55" y="479"/>
      <point x="67" y="403"/>
      <point x="91" y="338" type="curve"/>
      <point x="115" y="273"/>
      <point x="152" y="214"/>
      <point x="201" y="162" type="curve"/>
      <point x="260" y="100"/>
      <point x="329" y="53"/>
      <point x="408" y="22" type="curve"/>
      <point x="487" y="-9"/>
      <point x="577" y="-25"/>
      <point x="676" y="-25" type="curve"/>
      <point x="713" y="-25"/>
      <point x="753" y="-21"/>
      <point x="797" y="-14" type="curve"/>
      <point x="840" y="-7"/>
      <point x="883" y="2"/>
      <point x="924" y="14" type="curve"/>
      <point x="965" y="25"/>
      <point x="1002" y="38"/>
      <point x="1036" y="53" type="curve"/>
      <point x="1069" y="68"/>
      <point x="1095" y="83"/>
      <point x="1112" y="98" type="curve"/>
      <point x="1112" y="451" type="line"/>
      <point x="1112" y="477"/>
      <point x="1114" y="498"/>
      <point x="1117" y="515" type="curve"/>
      <point x="1120" y="531"/>
      <point x="1127" y="544"/>
      <point x="1136" y="554" type="curve"/>
      <point x="1145" y="563"/>
      <point x="1157" y="570"/>
      <point x="1173" y="575" type="curve"/>
      <point x="1189" y="580"/>
      <point x="1210" y="583"/>
    </contour>
  </outline>
</glyph>
<glyph name="H" format="2">
  <advance width="1257"/>
  <unicode hex="0048"/>
  <outline>
    <contour>
      <point x="893" y="963" type="curve"/>
      <point x="893" y="625" type="line"/>
      <point x="365" y="625" type="line"/>
      <point x="365" y="963" type="line"/>
      <point x="365" y="994"/>
      <point x="367" y="1019"/>
      <point x="370" y="1038" type="curve"/>
      <point x="373" y="1057"/>
      <point x="380" y="1073"/>
      <point x="391" y="1084" type="curve"/>
      <point x="401" y="1095"/>
      <point x="416" y="1102"/>
      <point x="436" y="1107" type="curve"/>
      <point x="456" y="1112"/>
      <point x="483" y="1115"/>
      <point x="516" y="1118" type="curve"/>
      <point x="516" y="1153" type="line"/>
      <point x="33" y="1153" type="line"/>
      <point x="33" y="1118" type="line"/>
      <point x="67" y="1115"/>
      <point x="94" y="1112"/>
      <point x="114" y="1107" type="curve"/>
      <point x="134" y="1102"/>
      <point x="149" y="1095"/>
      <point x="160" y="1084" type="curve"/>
      <point x="171" y="1073"/>
      <point x="178" y="1057"/>
      <point x="181" y="1038" type="curve"/>
      <point x="184" y="1019"/>
      <point x="186" y="994"/>
      <point x="186" y="963" type="curve"/>
      <point x="186" y="209" type="line"/>
      <point x="186" y="172"/>
      <point x="185" y="142"/>
      <point x="182" y="120" type="curve"/>
      <point x="179" y="98"/>
      <point x="172" y="81"/>
      <point x="161" y="69" type="curve"/>
      <point x="150" y="57"/>
      <point x="135" y="49"/>
      <point x="115" y="44" type="curve"/>
      <point x="94" y="39"/>
      <point x="67" y="36"/>
      <point x="33" y="33" type="curve"/>
      <point x="33" y="0" type="line"/>
      <point x="516" y="0" type="line"/>
      <point x="516" y="33" type="line"/>
      <point x="484" y="36"/>
      <point x="458" y="40"/>
      <point x="438" y="45" type="curve"/>
      <point x="418" y="50"/>
      <point x="403" y="59"/>
      <point x="392" y="70" type="curve"/>
      <point x="381" y="81"/>
      <point x="374" y="96"/>
      <point x="371" y="115" type="curve"/>
      <point x="367" y="134"/>
      <point x="365" y="159"/>
      <point x="365" y="190" type="curve"/>
      <point x="365" y="549" type="line"/>
      <point x="893" y="549" type="line"/>
      <point x="893" y="209" type="line"/>
      <point x="893" y="172"/>
      <point x="891" y="142"/>
      <point x="888" y="120" type="curve"/>
      <point x="885" y="98"/>
      <point x="878" y="81"/>
      <point x="867" y="69" type="curve"/>
      <point x="856" y="57"/>
      <point x="840" y="49"/>
      <point x="819" y="44" type="curve"/>
      <point x="798" y="39"/>
      <point x="771" y="36"/>
      <point x="737" y="33" type="curve"/>
      <point x="737" y="0" type="line"/>
      <point x="1223" y="0" type="line"/>
      <point x="1223" y="33" type="line"/>
      <point x="1190" y="36"/>
      <point x="1163" y="40"/>
      <point x="1143" y="45" type="curve"/>
      <point x="1122" y="50"/>
      <point x="1106" y="58"/>
      <point x="1095" y="69" type="curve"/>
      <point x="1084" y="80"/>
      <point x="1076" y="96"/>
      <point x="1073" y="115" type="curve"/>
      <point x="1069" y="134"/>
      <point x="1067" y="159"/>
      <point x="1067" y="190" type="curve"/>
      <point x="1067" y="963" type="line"/>
      <point x="1067" y="994"/>
      <point x="1069" y="1019"/>
      <point x="1072" y="1038" type="curve"/>
      <point x="1075" y="1057"/>
      <point x="1083" y="1073"/>
      <point x="1094" y="1084" type="curve"/>
      <point x="1105" y="1095"/>
      <point x="1120" y="1102"/>
      <point x="1141" y="1107" type="curve"/>
      <point x="1161" y="1112"/>
      <point x="1188" y="1115"/>
      <point x="1223" y="1118" type="curve"/>
      <point x="1223" y="1153" type="line"/>
      <point x="737" y="1153" type="line"/>
      <point x="737" y="1118" type="line"/>
      <point x="771" y="1115"/>
      <point x="798" y="1112"/>
      <point x="819" y="1107" type="curve"/>
      <point x="840" y="1102"/>
      <point x="856" y="1095"/>
      <point x="867" y="1084" type="curve"/>
      <point x="878" y="1073"/>
      <point x="885" y="1057"/>
      <point x="888" y="1038" type="curve"/>
      <point x="891" y="1019"/>
      <point x="893" y="994"/>
    </contour>
  </outline>
</glyph>
<glyph name="I" format="2">
  <advance width="580"/>
  <unicode hex="0049"/>
  <outline>
    <contour>
      <point x="201" y="963" type="curve"/>
      <point x="201" y="190" type="line"/>
      <point x="201" y="157"/>
      <point x="199" y="131"/>
      <point x="195" y="111" type="curve"/>
      <point x="191" y="91"/>
      <point x="183" y="76"/>
      <point x="171" y="65" type="curve"/>
      <point x="159" y="54"/>
      <point x="142" y="46"/>
      <point x="120" y="42" type="curve"/>
      <point x="97" y="37"/>
      <point x="68" y="34"/>
      <point x="31" y="33" type="curve"/>
      <point x="31" y="0" type="line"/>
      <point x="549" y="0" type="line"/>
      <point x="549" y="33" type="line"/>
      <point x="512" y="34"/>
      <point x="483" y="37"/>
      <point x="461" y="42" type="curve"/>
      <point x="438" y="47"/>
      <point x="421" y="55"/>
      <point x="409" y="66" type="curve"/>
      <point x="396" y="77"/>
      <point x="388" y="93"/>
      <point x="384" y="113" type="curve"/>
      <point x="379" y="132"/>
      <point x="377" y="158"/>
      <point x="377" y="190" type="curve"/>
      <point x="377" y="963" type="line"/>
      <point x="377" y="995"/>
      <point x="379" y="1021"/>
      <point x="383" y="1041" type="curve"/>
      <point x="387" y="1060"/>
      <point x="395" y="1076"/>
      <point x="408" y="1087" type="curve"/>
      <point x="420" y="1098"/>
      <point x="437" y="1105"/>
      <point x="460" y="1110" type="curve"/>
      <point x="482" y="1114"/>
      <point x="512" y="1117"/>
      <point x="549" y="1118" type="curve"/>
      <point x="549" y="1153" type="line"/>
      <point x="31" y="1153" type="line"/>
      <point x="31" y="1118" type="line"/>
      <point x="68" y="1117"/>
      <point x="97" y="1114"/>
      <point x="120" y="1109" type="curve"/>
      <point x="142" y="1104"/>
      <point x="159" y="1097"/>
      <point x="171" y="1086" type="curve"/>
      <point x="183" y="1075"/>
      <point x="191" y="1059"/>
      <point x="195" y="1040" type="curve"/>
      <point x="199" y="1021"/>
      <point x="201" y="995"/>
    </contour>
  </outline>
</glyph>
<glyph name="J" format="2">
  <advance width="678"/>
  <unicode hex="004A"/>
  <outline>
    <contour>
      <point x="483" y="319" type="curve"/>
      <point x="483" y="963" type="line"/>
      <point x="483" y="995"/>
      <point x="485" y="1021"/>
      <point x="489" y="1040" type="curve"/>
      <point x="492" y="1059"/>
      <point x="500" y="1074"/>
      <point x="511" y="1085" type="curve"/>
      <point x="522" y="1096"/>
      <point x="539" y="1103"/>
      <point x="560" y="1108" type="curve"/>
      <point x="581" y="1112"/>
      <point x="608" y="1115"/>
      <point x="643" y="1118" type="curve"/>
      <point x="643" y="1153" type="line"/>
      <point x="143" y="1153" type="line"/>
      <point x="143" y="1118" type="line"/>
      <point x="180" y="1115"/>
      <point x="209" y="1112"/>
      <point x="231" y="1108" type="curve"/>
      <point x="252" y="1103"/>
      <point x="269" y="1096"/>
      <point x="280" y="1085" type="curve"/>
      <point x="291" y="1074"/>
      <point x="298" y="1059"/>
      <point x="301" y="1040" type="curve"/>
      <point x="304" y="1021"/>
      <point x="305" y="995"/>
      <point x="305" y="963" type="curve"/>
      <point x="305" y="156" type="line"/>
      <point x="305" y="116"/>
      <point x="300" y="87"/>
      <point x="290" y="70" type="curve"/>
      <point x="279" y="52"/>
      <point x="263" y="43"/>
      <point x="242" y="43" type="curve"/>
      <point x="229" y="43"/>
      <point x="219" y="47"/>
      <point x="213" y="55" type="curve"/>
      <point x="207" y="63"/>
      <point x="200" y="77"/>
      <point x="193" y="98" type="curve"/>
      <point x="176" y="158"/>
      <point x="145" y="188"/>
      <point x="102" y="188" type="curve"/>
      <point x="91" y="188"/>
      <point x="80" y="186"/>
      <point x="70" y="181" type="curve"/>
      <point x="59" y="176"/>
      <point x="50" y="170"/>
      <point x="42" y="162" type="curve"/>
      <point x="34" y="154"/>
      <point x="28" y="145"/>
      <point x="23" y="134" type="curve"/>
      <point x="18" y="123"/>
      <point x="16" y="112"/>
      <point x="16" y="100" type="curve"/>
      <point x="16" y="82"/>
      <point x="20" y="65"/>
      <point x="29" y="50" type="curve"/>
      <point x="38" y="35"/>
      <point x="50" y="22"/>
      <point x="65" y="11" type="curve"/>
      <point x="80" y="0"/>
      <point x="99" y="-9"/>
      <point x="120" y="-15" type="curve"/>
      <point x="141" y="-22"/>
      <point x="165" y="-25"/>
      <point x="190" y="-25" type="curve"/>
      <point x="286" y="-25"/>
      <point x="359" y="5"/>
      <point x="409" y="64" type="curve"/>
      <point x="458" y="123"/>
      <point x="483" y="208"/>
    </contour>
  </outline>
</glyph>
<glyph name="K" format="2">
  <advance width="1257"/>
  <unicode hex="004B"/>
  <outline>
    <contour>
      <point x="1176" y="1153" type="line"/>
      <point x="719" y="1153" type="line"/>
      <point x="719" y="1118" type="line"/>
      <point x="741" y="1117"/>
      <point x="760" y="1115"/>
      <point x="775" y="1114" type="curve"/>
      <point x="790" y="1113"/>
      <point x="802" y="1110"/>
      <point x="812" y="1107" type="curve"/>
      <point x="821" y="1104"/>
      <point x="828" y="1099"/>
      <point x="832" y="1093" type="curve"/>
      <point x="836" y="1086"/>
      <point x="838" y="1077"/>
      <point x="838" y="1065" type="curve"/>
      <point x="837" y="1046"/>
      <point x="826" y="1022"/>
      <point x="805" y="995" type="curve"/>
      <point x="784" y="967"/>
      <point x="749" y="931"/>
      <point x="700" y="887" type="curve"/>
      <point x="393" y="606" type="line"/>
      <point x="393" y="963" type="line"/>
      <point x="393" y="995"/>
      <point x="395" y="1021"/>
      <point x="398" y="1040" type="curve"/>
      <point x="401" y="1059"/>
      <point x="409" y="1074"/>
      <point x="420" y="1085" type="curve"/>
      <point x="431" y="1096"/>
      <point x="448" y="1103"/>
      <point x="469" y="1108" type="curve"/>
      <point x="490" y="1112"/>
      <point x="518" y="1115"/>
      <point x="553" y="1118" type="curve"/>
      <point x="553" y="1153" type="line"/>
      <point x="59" y="1153" type="line"/>
      <point x="59" y="1118" type="line"/>
      <point x="94" y="1115"/>
      <point x="121" y="1112"/>
      <point x="142" y="1107" type="curve"/>
      <point x="162" y="1102"/>
      <point x="178" y="1095"/>
      <point x="189" y="1084" type="curve"/>
      <point x="200" y="1073"/>
      <point x="207" y="1057"/>
      <point x="210" y="1038" type="curve"/>
      <point x="213" y="1019"/>
      <point x="215" y="994"/>
      <point x="215" y="963" type="curve"/>
      <point x="215" y="209" type="line"/>
      <point x="215" y="172"/>
      <point x="213" y="143"/>
      <point x="210" y="121" type="curve"/>
      <point x="207" y="99"/>
      <point x="200" y="82"/>
      <point x="189" y="70" type="curve"/>
      <point x="178" y="58"/>
      <point x="162" y="50"/>
      <point x="142" y="45" type="curve"/>
      <point x="121" y="40"/>
      <point x="94" y="36"/>
      <point x="59" y="33" type="curve"/>
      <point x="59" y="0" type="line"/>
      <point x="551" y="0" type="line"/>
      <point x="551" y="33" type="line"/>
      <point x="516" y="36"/>
      <point x="489" y="39"/>
      <point x="468" y="44" type="curve"/>
      <point x="447" y="48"/>
      <point x="431" y="56"/>
      <point x="420" y="67" type="curve"/>
      <point x="409" y="78"/>
      <point x="401" y="93"/>
      <point x="398" y="113" type="curve"/>
      <point x="395" y="132"/>
      <point x="393" y="158"/>
      <point x="393" y="190" type="curve"/>
      <point x="393" y="514" type="line"/>
      <point x="438" y="553" type="line"/>
      <point x="623" y="369" type="line"/>
      <point x="656" y="336"/>
      <point x="686" y="305"/>
      <point x="714" y="274" type="curve"/>
      <point x="741" y="243"/>
      <point x="765" y="214"/>
      <point x="786" y="188" type="curve"/>
      <point x="806" y="162"/>
      <point x="822" y="139"/>
      <point x="833" y="120" type="curve"/>
      <point x="844" y="100"/>
      <point x="850" y="85"/>
      <point x="850" y="74" type="curve"/>
      <point x="850" y="48"/>
      <point x="825" y="35"/>
      <point x="776" y="35" type="curve"/>
      <point x="738" y="35" type="line"/>
      <point x="735" y="35"/>
      <point x="731" y="34"/>
      <point x="727" y="33" type="curve"/>
      <point x="727" y="0" type="line"/>
      <point x="1260" y="0" type="line"/>
      <point x="1260" y="33" type="line"/>
      <point x="1237" y="34"/>
      <point x="1217" y="37"/>
      <point x="1200" y="41" type="curve"/>
      <point x="1183" y="45"/>
      <point x="1166" y="53"/>
      <point x="1148" y="66" type="curve"/>
      <point x="1129" y="78"/>
      <point x="1108" y="96"/>
      <point x="1083" y="121" type="curve"/>
      <point x="1058" y="145"/>
      <point x="1025" y="178"/>
      <point x="985" y="221" type="curve"/>
      <point x="580" y="655" type="line"/>
      <point x="909" y="983" type="line"/>
      <point x="939" y="1011"/>
      <point x="964" y="1034"/>
      <point x="985" y="1051" type="curve"/>
      <point x="1005" y="1068"/>
      <point x="1024" y="1081"/>
      <point x="1043" y="1090" type="curve"/>
      <point x="1061" y="1099"/>
      <point x="1080" y="1106"/>
      <point x="1101" y="1110" type="curve"/>
      <point x="1121" y="1114"/>
      <point x="1146" y="1117"/>
      <point x="1176" y="1118" type="curve"/>
    </contour>
  </outline>
</glyph>
<glyph name="L" format="2">
  <advance width="1063"/>
  <unicode hex="004C"/>
  <outline>
    <contour>
      <point x="956" y="0" type="line"/>
      <point x="1040" y="303" type="line"/>
      <point x="997" y="303" type="line"/>
      <point x="982" y="269"/>
      <point x="968" y="241"/>
      <point x="956" y="220" type="curve"/>
      <point x="944" y="199"/>
      <point x="931" y="181"/>
      <point x="918" y="168" type="curve"/>
      <point x="888" y="134"/>
      <point x="849" y="109"/>
      <point x="800" y="93" type="curve"/>
      <point x="751" y="76"/>
      <point x="689" y="68"/>
      <point x="616" y="68" type="curve"/>
      <point x="500" y="68" type="line"/>
      <point x="468" y="68"/>
      <point x="442" y="69"/>
      <point x="423" y="71" type="curve"/>
      <point x="404" y="73"/>
      <point x="389" y="77"/>
      <point x="378" y="82" type="curve"/>
      <point x="367" y="87"/>
      <point x="359" y="94"/>
      <point x="356" y="103" type="curve"/>
      <point x="352" y="112"/>
      <point x="350" y="124"/>
      <point x="350" y="139" type="curve"/>
      <point x="350" y="963" type="line"/>
      <point x="350" y="994"/>
      <point x="352" y="1019"/>
      <point x="356" y="1038" type="curve"/>
      <point x="360" y="1057"/>
      <point x="368" y="1073"/>
      <point x="380" y="1084" type="curve"/>
      <point x="391" y="1095"/>
      <point x="408" y="1104"/>
      <point x="429" y="1109" type="curve"/>
      <point x="450" y="1114"/>
      <point x="478" y="1117"/>
      <point x="512" y="1118" type="curve"/>
      <point x="512" y="1153" type="line"/>
      <point x="20" y="1153" type="line"/>
      <point x="20" y="1118" type="line"/>
      <point x="53" y="1115"/>
      <point x="79" y="1112"/>
      <point x="99" y="1107" type="curve"/>
      <point x="119" y="1102"/>
      <point x="135" y="1095"/>
      <point x="146" y="1084" type="curve"/>
      <point x="157" y="1073"/>
      <point x="164" y="1057"/>
      <point x="167" y="1038" type="curve"/>
      <point x="170" y="1019"/>
      <point x="172" y="994"/>
      <point x="172" y="963" type="curve"/>
      <point x="172" y="190" type="line"/>
      <point x="172" y="159"/>
      <point x="170" y="134"/>
      <point x="167" y="115" type="curve"/>
      <point x="164" y="96"/>
      <point x="157" y="80"/>
      <point x="146" y="69" type="curve"/>
      <point x="135" y="58"/>
      <point x="119" y="50"/>
      <point x="99" y="45" type="curve"/>
      <point x="79" y="40"/>
      <point x="53" y="36"/>
      <point x="20" y="33" type="curve"/>
      <point x="20" y="0" type="line"/>
    </contour>
  </outline>
</glyph>
<glyph name="M" format="2">
  <advance width="1548"/>
  <unicode hex="004D"/>
  <outline>
    <contour>
      <point x="702" y="0" type="line"/>
      <point x="727" y="0" type="line"/>
      <point x="1174" y="997" type="line"/>
      <point x="1174" y="209" type="line"/>
      <point x="1174" y="172"/>
      <point x="1172" y="143"/>
      <point x="1169" y="121" type="curve"/>
      <point x="1165" y="99"/>
      <point x="1157" y="82"/>
      <point x="1146" y="70" type="curve"/>
      <point x="1135" y="58"/>
      <point x="1119" y="50"/>
      <point x="1098" y="45" type="curve"/>
      <point x="1077" y="40"/>
      <point x="1050" y="36"/>
      <point x="1016" y="33" type="curve"/>
      <point x="1016" y="0" type="line"/>
      <point x="1501" y="0" type="line"/>
      <point x="1501" y="33" type="line"/>
      <point x="1469" y="36"/>
      <point x="1443" y="40"/>
      <point x="1424" y="45" type="curve"/>
      <point x="1405" y="50"/>
      <point x="1390" y="58"/>
      <point x="1379" y="69" type="curve"/>
      <point x="1368" y="80"/>
      <point x="1361" y="96"/>
      <point x="1358" y="115" type="curve"/>
      <point x="1354" y="134"/>
      <point x="1352" y="159"/>
      <point x="1352" y="190" type="curve"/>
      <point x="1352" y="963" type="line"/>
      <point x="1352" y="994"/>
      <point x="1354" y="1019"/>
      <point x="1358" y="1038" type="curve"/>
      <point x="1361" y="1057"/>
      <point x="1368" y="1073"/>
      <point x="1379" y="1084" type="curve"/>
      <point x="1390" y="1095"/>
      <point x="1405" y="1102"/>
      <point x="1424" y="1107" type="curve"/>
      <point x="1443" y="1112"/>
      <point x="1469" y="1115"/>
      <point x="1501" y="1118" type="curve"/>
      <point x="1501" y="1153" type="line"/>
      <point x="1155" y="1153" type="line"/>
      <point x="770" y="274" type="line"/>
      <point x="369" y="1153" type="line"/>
      <point x="25" y="1153" type="line"/>
      <point x="25" y="1118" type="line"/>
      <point x="60" y="1117"/>
      <point x="89" y="1114"/>
      <point x="111" y="1109" type="curve"/>
      <point x="132" y="1104"/>
      <point x="149" y="1097"/>
      <point x="161" y="1086" type="curve"/>
      <point x="172" y="1075"/>
      <point x="180" y="1059"/>
      <point x="184" y="1040" type="curve"/>
      <point x="188" y="1021"/>
      <point x="190" y="995"/>
      <point x="190" y="963" type="curve"/>
      <point x="190" y="256" type="line"/>
      <point x="190" y="211"/>
      <point x="188" y="174"/>
      <point x="184" y="147" type="curve"/>
      <point x="180" y="119"/>
      <point x="172" y="97"/>
      <point x="160" y="81" type="curve"/>
      <point x="148" y="65"/>
      <point x="131" y="54"/>
      <point x="109" y="47" type="curve"/>
      <point x="86" y="40"/>
      <point x="57" y="36"/>
      <point x="20" y="33" type="curve"/>
      <point x="20" y="0" type="line"/>
      <point x="430" y="0" type="line"/>
      <point x="430" y="33" type="line"/>
      <point x="397" y="36"/>
      <point x="369" y="41"/>
      <point x="348" y="48" type="curve"/>
      <point x="327" y="55"/>
      <point x="310" y="66"/>
      <point x="298" y="83" type="curve"/>
      <point x="286" y="99"/>
      <point x="278" y="121"/>
      <point x="273" y="149" type="curve"/>
      <point x="268" y="176"/>
      <point x="266" y="212"/>
      <point x="266" y="256" type="curve"/>
      <point x="266" y="956" type="line"/>
    </contour>
  </outline>
</glyph>
<glyph name="N" format="2">
  <advance width="1257"/>
  <unicode hex="004E"/>
  <outline>
    <contour>
      <point x="266" y="938" type="line"/>
      <point x="1036" y="-20" type="line"/>
      <point x="1065" y="-20" type="line"/>
      <point x="1065" y="897" type="line"/>
      <point x="1065" y="1002"/>
      <point x="1082" y="1066"/>
      <point x="1116" y="1087" type="curve"/>
      <point x="1122" y="1092"/>
      <point x="1128" y="1096"/>
      <point x="1135" y="1099" type="curve"/>
      <point x="1141" y="1102"/>
      <point x="1148" y="1105"/>
      <point x="1157" y="1108" type="curve"/>
      <point x="1166" y="1110"/>
      <point x="1176" y="1112"/>
      <point x="1188" y="1114" type="curve"/>
      <point x="1199" y="1115"/>
      <point x="1214" y="1117"/>
      <point x="1231" y="1118" type="curve"/>
      <point x="1231" y="1153" type="line"/>
      <point x="821" y="1153" type="line"/>
      <point x="821" y="1118" type="line"/>
      <point x="855" y="1115"/>
      <point x="883" y="1111"/>
      <point x="905" y="1106" type="curve"/>
      <point x="927" y="1100"/>
      <point x="944" y="1089"/>
      <point x="957" y="1074" type="curve"/>
      <point x="969" y="1058"/>
      <point x="977" y="1036"/>
      <point x="982" y="1009" type="curve"/>
      <point x="987" y="981"/>
      <point x="989" y="944"/>
      <point x="989" y="897" type="curve"/>
      <point x="989" y="309" type="line"/>
      <point x="319" y="1153" type="line"/>
      <point x="20" y="1153" type="line"/>
      <point x="20" y="1118" type="line"/>
      <point x="39" y="1118"/>
      <point x="55" y="1117"/>
      <point x="68" y="1115" type="curve"/>
      <point x="81" y="1113"/>
      <point x="94" y="1109"/>
      <point x="106" y="1102" type="curve"/>
      <point x="118" y="1095"/>
      <point x="131" y="1086"/>
      <point x="144" y="1074" type="curve"/>
      <point x="157" y="1061"/>
      <point x="172" y="1045"/>
      <point x="190" y="1024" type="curve"/>
      <point x="190" y="256" type="line"/>
      <point x="190" y="211"/>
      <point x="188" y="174"/>
      <point x="184" y="147" type="curve"/>
      <point x="180" y="119"/>
      <point x="172" y="97"/>
      <point x="160" y="81" type="curve"/>
      <point x="148" y="65"/>
      <point x="131" y="54"/>
      <point x="109" y="47" type="curve"/>
      <point x="86" y="40"/>
      <point x="57" y="36"/>
      <point x="20" y="33" type="curve"/>
      <point x="20" y="0" type="line"/>
      <point x="430" y="0" type="line"/>
      <point x="430" y="33" type="line"/>
      <point x="397" y="36"/>
      <point x="369" y="41"/>
      <point x="348" y="48" type="curve"/>
      <point x="327" y="55"/>
      <point x="310" y="66"/>
      <point x="298" y="83" type="curve"/>
      <point x="286" y="99"/>
      <point x="278" y="121"/>
      <point x="273" y="149" type="curve"/>
      <point x="268" y="176"/>
      <point x="266" y="212"/>
      <point x="266" y="256" type="curve"/>
    </contour>
  </outline>
</glyph>
<glyph name="O" format="2">
  <advance width="1257"/>
  <unicode hex="004F"/>
  <outline>
    <contour>
      <point x="629" y="1176" type="curve"/>
      <point x="546" y="1176"/>
      <point x="469" y="1161"/>
      <point x="399" y="1132" type="curve"/>
      <point x="329" y="1102"/>
      <point x="269" y="1061"/>
      <point x="219" y="1008" type="curve"/>
      <point x="168" y="955"/>
      <point x="129" y="891"/>
      <point x="101" y="818" type="curve"/>
      <point x="73" y="744"/>
      <point x="59" y="663"/>
      <point x="59" y="575" type="curve"/>
      <point x="59" y="492"/>
      <point x="72" y="415"/>
      <point x="98" y="342" type="curve"/>
      <point x="124" y="269"/>
      <point x="161" y="206"/>
      <point x="209" y="154" type="curve"/>
      <point x="235" y="126"/>
      <point x="264" y="101"/>
      <point x="295" y="79" type="curve"/>
      <point x="326" y="57"/>
      <point x="360" y="38"/>
      <point x="395" y="23" type="curve"/>
      <point x="430" y="8"/>
      <point x="466" y="-4"/>
      <point x="504" y="-12" type="curve"/>
      <point x="541" y="-21"/>
      <point x="579" y="-25"/>
      <point x="618" y="-25" type="curve"/>
      <point x="704" y="-25"/>
      <point x="783" y="-10"/>
      <point x="854" y="19" type="curve"/>
      <point x="925" y="48"/>
      <point x="986" y="88"/>
      <point x="1037" y="140" type="curve"/>
      <point x="1088" y="192"/>
      <point x="1127" y="255"/>
      <point x="1156" y="328" type="curve"/>
      <point x="1184" y="401"/>
      <point x="1198" y="481"/>
      <point x="1198" y="569" type="curve"/>
      <point x="1198" y="664"/>
      <point x="1183" y="749"/>
      <point x="1153" y="824" type="curve"/>
      <point x="1123" y="899"/>
      <point x="1082" y="962"/>
      <point x="1031" y="1015" type="curve"/>
      <point x="979" y="1067"/>
      <point x="919" y="1107"/>
      <point x="850" y="1135" type="curve"/>
      <point x="781" y="1162"/>
      <point x="707" y="1176"/>
    </contour>
    <contour>
      <point x="629" y="1114" type="curve"/>
      <point x="683" y="1114"/>
      <point x="733" y="1102"/>
      <point x="778" y="1079" type="curve"/>
      <point x="823" y="1056"/>
      <point x="862" y="1021"/>
      <point x="895" y="975" type="curve"/>
      <point x="928" y="929"/>
      <point x="953" y="872"/>
      <point x="972" y="805" type="curve"/>
      <point x="990" y="737"/>
      <point x="999" y="659"/>
      <point x="999" y="571" type="curve"/>
      <point x="999" y="545"/>
      <point x="998" y="518"/>
      <point x="995" y="491" type="curve"/>
      <point x="992" y="464"/>
      <point x="989" y="437"/>
      <point x="984" y="410" type="curve"/>
      <point x="979" y="383"/>
      <point x="973" y="356"/>
      <point x="966" y="331" type="curve"/>
      <point x="959" y="305"/>
      <point x="951" y="281"/>
      <point x="942" y="258" type="curve"/>
      <point x="926" y="215"/>
      <point x="897" y="172"/>
      <point x="856" y="131" type="curve"/>
      <point x="795" y="70"/>
      <point x="718" y="39"/>
      <point x="625" y="39" type="curve"/>
      <point x="585" y="39"/>
      <point x="547" y="46"/>
      <point x="510" y="60" type="curve"/>
      <point x="473" y="74"/>
      <point x="438" y="95"/>
      <point x="406" y="123" type="curve"/>
      <point x="383" y="143"/>
      <point x="363" y="169"/>
      <point x="345" y="200" type="curve"/>
      <point x="326" y="231"/>
      <point x="311" y="267"/>
      <point x="298" y="306" type="curve"/>
      <point x="285" y="345"/>
      <point x="276" y="388"/>
      <point x="269" y="433" type="curve"/>
      <point x="262" y="478"/>
      <point x="258" y="525"/>
      <point x="258" y="573" type="curve"/>
      <point x="258" y="665"/>
      <point x="269" y="749"/>
      <point x="290" y="824" type="curve"/>
      <point x="311" y="899"/>
      <point x="341" y="958"/>
      <point x="379" y="1001" type="curve"/>
      <point x="446" y="1076"/>
      <point x="529" y="1114"/>
    </contour>
  </outline>
</glyph>
<glyph name="P" format="2">
  <advance width="969"/>
  <unicode hex="0050"/>
  <outline>
    <contour>
      <point x="352" y="190" type="curve"/>
      <point x="352" y="508" type="line"/>
      <point x="373" y="505"/>
      <point x="393" y="503"/>
      <point x="412" y="503" type="curve"/>
      <point x="430" y="502"/>
      <point x="450" y="502"/>
      <point x="471" y="502" type="curve"/>
      <point x="507" y="502"/>
      <point x="539" y="503"/>
      <point x="568" y="505" type="curve"/>
      <point x="596" y="507"/>
      <point x="622" y="510"/>
      <point x="646" y="515" type="curve"/>
      <point x="670" y="520"/>
      <point x="693" y="526"/>
      <point x="714" y="533" type="curve"/>
      <point x="735" y="540"/>
      <point x="755" y="549"/>
      <point x="776" y="559" type="curve"/>
      <point x="829" y="588"/>
      <point x="870" y="627"/>
      <point x="899" y="676" type="curve"/>
      <point x="928" y="725"/>
      <point x="942" y="779"/>
      <point x="942" y="838" type="curve"/>
      <point x="942" y="875"/>
      <point x="936" y="909"/>
      <point x="925" y="941" type="curve"/>
      <point x="914" y="973"/>
      <point x="896" y="1001"/>
      <point x="872" y="1026" type="curve"/>
      <point x="855" y="1045"/>
      <point x="833" y="1062"/>
      <point x="806" y="1078" type="curve"/>
      <point x="779" y="1093"/>
      <point x="748" y="1107"/>
      <point x="715" y="1118" type="curve"/>
      <point x="682" y="1129"/>
      <point x="646" y="1138"/>
      <point x="607" y="1144" type="curve"/>
      <point x="568" y="1150"/>
      <point x="528" y="1153"/>
      <point x="487" y="1153" type="curve"/>
      <point x="29" y="1153" type="line"/>
      <point x="29" y="1118" type="line"/>
      <point x="60" y="1115"/>
      <point x="86" y="1112"/>
      <point x="105" y="1107" type="curve"/>
      <point x="124" y="1102"/>
      <point x="138" y="1095"/>
      <point x="149" y="1084" type="curve"/>
      <point x="159" y="1073"/>
      <point x="166" y="1057"/>
      <point x="169" y="1038" type="curve"/>
      <point x="172" y="1019"/>
      <point x="174" y="994"/>
      <point x="174" y="963" type="curve"/>
      <point x="174" y="209" type="line"/>
      <point x="174" y="172"/>
      <point x="173" y="143"/>
      <point x="170" y="121" type="curve"/>
      <point x="167" y="99"/>
      <point x="161" y="82"/>
      <point x="151" y="70" type="curve"/>
      <point x="141" y="58"/>
      <point x="126" y="50"/>
      <point x="107" y="45" type="curve"/>
      <point x="88" y="40"/>
      <point x="62" y="36"/>
      <point x="29" y="33" type="curve"/>
      <point x="29" y="0" type="line"/>
      <point x="514" y="0" type="line"/>
      <point x="514" y="33" type="line"/>
      <point x="480" y="34"/>
      <point x="452" y="37"/>
      <point x="431" y="42" type="curve"/>
      <point x="410" y="47"/>
      <point x="393" y="55"/>
      <point x="382" y="66" type="curve"/>
      <point x="370" y="77"/>
      <point x="362" y="93"/>
      <point x="358" y="113" type="curve"/>
      <point x="354" y="132"/>
      <point x="352" y="158"/>
    </contour>
    <contour>
      <point x="352" y="575" type="curve"/>
      <point x="352" y="1028" type="line"/>
      <point x="352" y="1053"/>
      <point x="356" y="1069"/>
      <point x="365" y="1076" type="curve"/>
      <point x="373" y="1083"/>
      <point x="389" y="1087"/>
      <point x="412" y="1087" type="curve"/>
      <point x="529" y="1087"/>
      <point x="616" y="1066"/>
      <point x="671" y="1025" type="curve"/>
      <point x="726" y="984"/>
      <point x="754" y="918"/>
      <point x="754" y="827" type="curve"/>
      <point x="754" y="656"/>
      <point x="653" y="571"/>
      <point x="451" y="571" type="curve"/>
      <point x="434" y="571"/>
      <point x="418" y="571"/>
      <point x="404" y="572" type="curve"/>
      <point x="390" y="573"/>
      <point x="373" y="574"/>
    </contour>
  </outline>
</glyph>
<glyph name="Q" format="2">
  <advance width="1257"/>
  <unicode hex="0051"/>
  <outline>
    <contour>
      <point x="1221" y="-307" type="curve"/>
      <point x="1221" y="-276" type="line"/>
      <point x="1172" y="-275"/>
      <point x="1126" y="-269"/>
      <point x="1083" y="-258" type="curve"/>
      <point x="1040" y="-248"/>
      <point x="999" y="-232"/>
      <point x="960" y="-211" type="curve"/>
      <point x="921" y="-190"/>
      <point x="883" y="-163"/>
      <point x="847" y="-130" type="curve"/>
      <point x="811" y="-97"/>
      <point x="776" y="-58"/>
      <point x="741" y="-12" type="curve"/>
      <point x="771" y="-7"/>
      <point x="798" y="-1"/>
      <point x="821" y="6" type="curve"/>
      <point x="844" y="13"/>
      <point x="866" y="21"/>
      <point x="886" y="31" type="curve"/>
      <point x="906" y="40"/>
      <point x="925" y="52"/>
      <point x="944" y="65" type="curve"/>
      <point x="963" y="78"/>
      <point x="983" y="93"/>
      <point x="1004" y="111" type="curve"/>
      <point x="1133" y="227"/>
      <point x="1198" y="382"/>
      <point x="1198" y="575" type="curve"/>
      <point x="1198" y="663"/>
      <point x="1184" y="744"/>
      <point x="1156" y="818" type="curve"/>
      <point x="1127" y="891"/>
      <point x="1088" y="955"/>
      <point x="1037" y="1008" type="curve"/>
      <point x="986" y="1061"/>
      <point x="926" y="1102"/>
      <point x="857" y="1132" type="curve"/>
      <point x="787" y="1161"/>
      <point x="711" y="1176"/>
      <point x="629" y="1176" type="curve"/>
      <point x="546" y="1176"/>
      <point x="469" y="1161"/>
      <point x="399" y="1132" type="curve"/>
      <point x="329" y="1102"/>
      <point x="269" y="1061"/>
      <point x="219" y="1008" type="curve"/>
      <point x="168" y="955"/>
      <point x="129" y="891"/>
      <point x="101" y="817" type="curve"/>
      <point x="73" y="743"/>
      <point x="59" y="662"/>
      <point x="59" y="573" type="curve"/>
      <point x="59" y="486"/>
      <point x="72" y="408"/>
      <point x="98" y="338" type="curve"/>
      <point x="123" y="267"/>
      <point x="162" y="204"/>
      <point x="213" y="147" type="curve"/>
      <point x="231" y="129"/>
      <point x="248" y="113"/>
      <point x="265" y="100" type="curve"/>
      <point x="281" y="87"/>
      <point x="299" y="74"/>
      <point x="318" y="63" type="curve"/>
      <point x="337" y="52"/>
      <point x="358" y="41"/>
      <point x="381" y="31" type="curve"/>
      <point x="404" y="20"/>
      <point x="431" y="9"/>
      <point x="463" y="-2" type="curve"/>
      <point x="543" y="-98" type="line"/>
      <point x="608" y="-172"/>
      <point x="694" y="-226"/>
      <point x="801" y="-259" type="curve"/>
      <point x="908" y="-292"/>
      <point x="1037" y="-309"/>
      <point x="1190" y="-309" type="curve"/>
      <point x="1202" y="-309" type="line"/>
      <point x="1206" y="-309"/>
      <point x="1212" y="-308"/>
    </contour>
    <contour>
      <point x="633" y="1114" type="curve"/>
      <point x="685" y="1114"/>
      <point x="733" y="1102"/>
      <point x="778" y="1078" type="curve"/>
      <point x="823" y="1053"/>
      <point x="861" y="1018"/>
      <point x="894" y="972" type="curve"/>
      <point x="927" y="926"/>
      <point x="952" y="870"/>
      <point x="971" y="804" type="curve"/>
      <point x="990" y="738"/>
      <point x="999" y="663"/>
      <point x="999" y="580" type="curve"/>
      <point x="999" y="537"/>
      <point x="996" y="494"/>
      <point x="990" y="451" type="curve"/>
      <point x="984" y="408"/>
      <point x="976" y="368"/>
      <point x="966" y="330" type="curve"/>
      <point x="955" y="292"/>
      <point x="943" y="258"/>
      <point x="928" y="227" type="curve"/>
      <point x="913" y="196"/>
      <point x="897" y="170"/>
      <point x="879" y="150" type="curve"/>
      <point x="846" y="114"/>
      <point x="808" y="87"/>
      <point x="765" y="68" type="curve"/>
      <point x="722" y="49"/>
      <point x="677" y="39"/>
      <point x="629" y="39" type="curve"/>
      <point x="574" y="39"/>
      <point x="523" y="51"/>
      <point x="478" y="74" type="curve"/>
      <point x="432" y="97"/>
      <point x="393" y="131"/>
      <point x="361" y="177" type="curve"/>
      <point x="328" y="222"/>
      <point x="303" y="279"/>
      <point x="285" y="347" type="curve"/>
      <point x="267" y="415"/>
      <point x="258" y="494"/>
      <point x="258" y="584" type="curve"/>
      <point x="258" y="625"/>
      <point x="261" y="666"/>
      <point x="267" y="708" type="curve"/>
      <point x="273" y="749"/>
      <point x="281" y="789"/>
      <point x="292" y="826" type="curve"/>
      <point x="302" y="863"/>
      <point x="315" y="896"/>
      <point x="330" y="927" type="curve"/>
      <point x="345" y="957"/>
      <point x="361" y="982"/>
      <point x="379" y="1001" type="curve"/>
      <point x="415" y="1039"/>
      <point x="454" y="1067"/>
      <point x="495" y="1086" type="curve"/>
      <point x="536" y="1105"/>
      <point x="582" y="1114"/>
    </contour>
  </outline>
</glyph>
<glyph name="R" format="2">
  <advance width="1161"/>
  <unicode hex="0052"/>
  <outline>
    <contour>
      <point x="866" y="0" type="line"/>
      <point x="1147" y="0" type="line"/>
      <point x="1147" y="33" type="line"/>
      <point x="1131" y="34"/>
      <point x="1116" y="37"/>
      <point x="1103" y="40" type="curve"/>
      <point x="1090" y="43"/>
      <point x="1077" y="48"/>
      <point x="1065" y="54" type="curve"/>
      <point x="1053" y="60"/>
      <point x="1041" y="68"/>
      <point x="1030" y="78" type="curve"/>
      <point x="1019" y="87"/>
      <point x="1007" y="100"/>
      <point x="995" y="115" type="curve"/>
      <point x="637" y="555" type="line"/>
      <point x="666" y="560"/>
      <point x="692" y="565"/>
      <point x="714" y="571" type="curve"/>
      <point x="735" y="577"/>
      <point x="755" y="584"/>
      <point x="772" y="591" type="curve"/>
      <point x="789" y="598"/>
      <point x="805" y="607"/>
      <point x="820" y="616" type="curve"/>
      <point x="835" y="625"/>
      <point x="849" y="634"/>
      <point x="864" y="645" type="curve"/>
      <point x="892" y="668"/>
      <point x="914" y="697"/>
      <point x="929" y="732" type="curve"/>
      <point x="944" y="766"/>
      <point x="952" y="804"/>
      <point x="952" y="846" type="curve"/>
      <point x="952" y="945"/>
      <point x="915" y="1021"/>
      <point x="840" y="1074" type="curve"/>
      <point x="765" y="1127"/>
      <point x="655" y="1153"/>
      <point x="510" y="1153" type="curve"/>
      <point x="31" y="1153" type="line"/>
      <point x="31" y="1118" type="line"/>
      <point x="63" y="1115"/>
      <point x="89" y="1112"/>
      <point x="108" y="1107" type="curve"/>
      <point x="127" y="1102"/>
      <point x="142" y="1093"/>
      <point x="153" y="1082" type="curve"/>
      <point x="163" y="1071"/>
      <point x="170" y="1056"/>
      <point x="173" y="1037" type="curve"/>
      <point x="176" y="1018"/>
      <point x="178" y="993"/>
      <point x="178" y="963" type="curve"/>
      <point x="178" y="209" type="line"/>
      <point x="178" y="172"/>
      <point x="176" y="143"/>
      <point x="173" y="121" type="curve"/>
      <point x="170" y="99"/>
      <point x="163" y="82"/>
      <point x="153" y="70" type="curve"/>
      <point x="142" y="58"/>
      <point x="127" y="50"/>
      <point x="108" y="45" type="curve"/>
      <point x="89" y="40"/>
      <point x="63" y="36"/>
      <point x="31" y="33" type="curve"/>
      <point x="31" y="0" type="line"/>
      <point x="512" y="0" type="line"/>
      <point x="512" y="33" type="line"/>
      <point x="478" y="36"/>
      <point x="451" y="40"/>
      <point x="430" y="45" type="curve"/>
      <point x="409" y="50"/>
      <point x="393" y="58"/>
      <point x="382" y="69" type="curve"/>
      <point x="371" y="80"/>
      <point x="363" y="96"/>
      <point x="360" y="115" type="curve"/>
      <point x="356" y="134"/>
      <point x="354" y="159"/>
      <point x="354" y="190" type="curve"/>
      <point x="354" y="537" type="line"/>
      <point x="453" y="537" type="line"/>
    </contour>
    <contour>
      <point x="354" y="598" type="curve"/>
      <point x="354" y="1024" type="line"/>
      <point x="354" y="1049"/>
      <point x="360" y="1065"/>
      <point x="373" y="1074" type="curve"/>
      <point x="385" y="1083"/>
      <point x="409" y="1087"/>
      <point x="444" y="1087" type="curve"/>
      <point x="552" y="1087"/>
      <point x="632" y="1068"/>
      <point x="684" y="1031" type="curve"/>
      <point x="736" y="993"/>
      <point x="762" y="933"/>
      <point x="762" y="850" type="curve"/>
      <point x="762" y="805"/>
      <point x="754" y="765"/>
      <point x="737" y="732" type="curve"/>
      <point x="720" y="698"/>
      <point x="696" y="672"/>
      <point x="664" y="655" type="curve"/>
      <point x="643" y="644"/>
      <point x="624" y="634"/>
      <point x="605" y="627" type="curve"/>
      <point x="586" y="620"/>
      <point x="565" y="614"/>
      <point x="542" y="610" type="curve"/>
      <point x="519" y="605"/>
      <point x="492" y="602"/>
      <point x="463" y="601" type="curve"/>
      <point x="433" y="599"/>
      <point x="397" y="598"/>
    </contour>
  </outline>
</glyph>
<glyph name="S" format="2">
  <advance width="969"/>
  <unicode hex="0053"/>
  <outline>
    <contour>
      <point x="772" y="807" type="curve"/>
      <point x="817" y="807" type="line"/>
      <point x="778" y="1176" type="line"/>
      <point x="741" y="1176" type="line"/>
      <point x="735" y="1137"/>
      <point x="717" y="1118"/>
      <point x="686" y="1118" type="curve"/>
      <point x="677" y="1118"/>
      <point x="666" y="1120"/>
      <point x="653" y="1123" type="curve"/>
      <point x="640" y="1126"/>
      <point x="625" y="1132"/>
      <point x="608" y="1139" type="curve"/>
      <point x="543" y="1164"/>
      <point x="483" y="1176"/>
      <point x="426" y="1176" type="curve"/>
      <point x="388" y="1176"/>
      <point x="351" y="1169"/>
      <point x="315" y="1155" type="curve"/>
      <point x="278" y="1141"/>
      <point x="245" y="1121"/>
      <point x="215" y="1096" type="curve"/>
      <point x="154" y="1042"/>
      <point x="123" y="970"/>
      <point x="123" y="879" type="curve"/>
      <point x="123" y="844"/>
      <point x="128" y="811"/>
      <point x="138" y="781" type="curve"/>
      <point x="148" y="750"/>
      <point x="164" y="722"/>
      <point x="186" y="695" type="curve"/>
      <point x="208" y="668"/>
      <point x="236" y="642"/>
      <point x="271" y="617" type="curve"/>
      <point x="305" y="592"/>
      <point x="346" y="566"/>
      <point x="395" y="541" type="curve"/>
      <point x="458" y="507"/>
      <point x="511" y="473"/>
      <point x="555" y="439" type="curve"/>
      <point x="599" y="404"/>
      <point x="632" y="370"/>
      <point x="653" y="336" type="curve"/>
      <point x="662" y="323"/>
      <point x="668" y="309"/>
      <point x="673" y="292" type="curve"/>
      <point x="678" y="275"/>
      <point x="680" y="256"/>
      <point x="680" y="236" type="curve"/>
      <point x="680" y="206"/>
      <point x="675" y="179"/>
      <point x="665" y="155" type="curve"/>
      <point x="654" y="131"/>
      <point x="640" y="110"/>
      <point x="621" y="93" type="curve"/>
      <point x="602" y="76"/>
      <point x="579" y="62"/>
      <point x="553" y="53" type="curve"/>
      <point x="526" y="44"/>
      <point x="497" y="39"/>
      <point x="465" y="39" type="curve"/>
      <point x="387" y="39"/>
      <point x="320" y="64"/>
      <point x="264" y="113" type="curve"/>
      <point x="207" y="162"/>
      <point x="157" y="239"/>
      <point x="113" y="346" type="curve"/>
      <point x="74" y="346" type="line"/>
      <point x="125" y="-23" type="line"/>
      <point x="164" y="-23" type="line"/>
      <point x="165" y="-6"/>
      <point x="171" y="8"/>
      <point x="180" y="19" type="curve"/>
      <point x="189" y="30"/>
      <point x="200" y="35"/>
      <point x="213" y="35" type="curve"/>
      <point x="222" y="35"/>
      <point x="234" y="33"/>
      <point x="247" y="30" type="curve"/>
      <point x="260" y="27"/>
      <point x="276" y="21"/>
      <point x="295" y="14" type="curve"/>
      <point x="328" y="2"/>
      <point x="361" y="-7"/>
      <point x="395" y="-14" type="curve"/>
      <point x="429" y="-21"/>
      <point x="464" y="-25"/>
      <point x="500" y="-25" type="curve"/>
      <point x="551" y="-25"/>
      <point x="598" y="-17"/>
      <point x="641" y="0" type="curve"/>
      <point x="684" y="16"/>
      <point x="721" y="38"/>
      <point x="753" y="67" type="curve"/>
      <point x="784" y="95"/>
      <point x="809" y="128"/>
      <point x="827" y="167" type="curve"/>
      <point x="845" y="206"/>
      <point x="854" y="248"/>
      <point x="854" y="293" type="curve"/>
      <point x="854" y="328"/>
      <point x="848" y="362"/>
      <point x="836" y="394" type="curve"/>
      <point x="823" y="426"/>
      <point x="804" y="458"/>
      <point x="778" y="489" type="curve"/>
      <point x="752" y="520"/>
      <point x="719" y="550"/>
      <point x="678" y="580" type="curve"/>
      <point x="637" y="610"/>
      <point x="587" y="641"/>
      <point x="530" y="672" type="curve"/>
      <point x="484" y="697"/>
      <point x="445" y="721"/>
      <point x="413" y="744" type="curve"/>
      <point x="380" y="767"/>
      <point x="354" y="789"/>
      <point x="333" y="811" type="curve"/>
      <point x="312" y="832"/>
      <point x="297" y="854"/>
      <point x="288" y="875" type="curve"/>
      <point x="279" y="896"/>
      <point x="274" y="919"/>
      <point x="274" y="942" type="curve"/>
      <point x="274" y="966"/>
      <point x="278" y="988"/>
      <point x="287" y="1008" type="curve"/>
      <point x="296" y="1028"/>
      <point x="308" y="1045"/>
      <point x="324" y="1060" type="curve"/>
      <point x="339" y="1075"/>
      <point x="358" y="1086"/>
      <point x="381" y="1094" type="curve"/>
      <point x="403" y="1102"/>
      <point x="428" y="1106"/>
      <point x="455" y="1106" type="curve"/>
      <point x="495" y="1106"/>
      <point x="532" y="1098"/>
      <point x="567" y="1083" type="curve"/>
      <point x="601" y="1067"/>
      <point x="634" y="1043"/>
      <point x="666" y="1010" type="curve"/>
      <point x="680" y="995"/>
      <point x="692" y="981"/>
      <point x="703" y="968" type="curve"/>
      <point x="713" y="954"/>
      <point x="722" y="939"/>
      <point x="730" y="924" type="curve"/>
      <point x="738" y="909"/>
      <point x="745" y="892"/>
      <point x="752" y="873" type="curve"/>
      <point x="759" y="854"/>
      <point x="765" y="832"/>
    </contour>
  </outline>
</glyph>
<glyph name="T" format="2">
  <advance width="1063"/>
  <unicode hex="0054"/>
  <outline>
    <contour>
      <point x="348" y="1079" type="curve"/>
      <point x="442" y="1079" type="line"/>
      <point x="442" y="209" type="line"/>
      <point x="442" y="171"/>
      <point x="440" y="141"/>
      <point x="437" y="119" type="curve"/>
      <point x="434" y="97"/>
      <point x="426" y="80"/>
      <point x="415" y="68" type="curve"/>
      <point x="404" y="56"/>
      <point x="387" y="48"/>
      <point x="366" y="44" type="curve"/>
      <point x="344" y="39"/>
      <point x="315" y="36"/>
      <point x="279" y="33" type="curve"/>
      <point x="279" y="0" type="line"/>
      <point x="786" y="0" type="line"/>
      <point x="786" y="33" type="line"/>
      <point x="751" y="36"/>
      <point x="722" y="39"/>
      <point x="701" y="44" type="curve"/>
      <point x="679" y="48"/>
      <point x="662" y="55"/>
      <point x="651" y="66" type="curve"/>
      <point x="639" y="77"/>
      <point x="631" y="92"/>
      <point x="627" y="112" type="curve"/>
      <point x="623" y="131"/>
      <point x="621" y="157"/>
      <point x="621" y="190" type="curve"/>
      <point x="621" y="1079" type="line"/>
      <point x="715" y="1079" type="line"/>
      <point x="764" y="1079"/>
      <point x="804" y="1077"/>
      <point x="835" y="1072" type="curve"/>
      <point x="866" y="1067"/>
      <point x="892" y="1056"/>
      <point x="912" y="1040" type="curve"/>
      <point x="931" y="1024"/>
      <point x="947" y="1001"/>
      <point x="958" y="972" type="curve"/>
      <point x="969" y="943"/>
      <point x="980" y="904"/>
      <point x="989" y="856" type="curve"/>
      <point x="1022" y="856" type="line"/>
      <point x="1022" y="1153" type="line"/>
      <point x="31" y="1153" type="line"/>
      <point x="31" y="856" type="line"/>
      <point x="72" y="856" type="line"/>
      <point x="82" y="904"/>
      <point x="93" y="943"/>
      <point x="105" y="972" type="curve"/>
      <point x="117" y="1001"/>
      <point x="133" y="1024"/>
      <point x="153" y="1040" type="curve"/>
      <point x="173" y="1056"/>
      <point x="199" y="1067"/>
      <point x="230" y="1072" type="curve"/>
      <point x="261" y="1077"/>
      <point x="300" y="1079"/>
    </contour>
  </outline>
</glyph>
<glyph name="U" format="2">
  <advance width="1257"/>
  <unicode hex="0055"/>
  <outline>
    <contour>
      <point x="1063" y="442" type="curve"/>
      <point x="1063" y="897" type="line"/>
      <point x="1063" y="941"/>
      <point x="1065" y="977"/>
      <point x="1069" y="1004" type="curve"/>
      <point x="1072" y="1031"/>
      <point x="1080" y="1052"/>
      <point x="1092" y="1068" type="curve"/>
      <point x="1103" y="1083"/>
      <point x="1120" y="1095"/>
      <point x="1142" y="1102" type="curve"/>
      <point x="1163" y="1109"/>
      <point x="1192" y="1114"/>
      <point x="1227" y="1118" type="curve"/>
      <point x="1227" y="1153" type="line"/>
      <point x="823" y="1153" type="line"/>
      <point x="823" y="1118" type="line"/>
      <point x="858" y="1115"/>
      <point x="886" y="1111"/>
      <point x="907" y="1104" type="curve"/>
      <point x="928" y="1097"/>
      <point x="945" y="1085"/>
      <point x="957" y="1069" type="curve"/>
      <point x="969" y="1053"/>
      <point x="977" y="1031"/>
      <point x="981" y="1004" type="curve"/>
      <point x="985" y="976"/>
      <point x="987" y="940"/>
      <point x="987" y="897" type="curve"/>
      <point x="987" y="426" type="line"/>
      <point x="987" y="367"/>
      <point x="984" y="320"/>
      <point x="978" y="284" type="curve"/>
      <point x="972" y="247"/>
      <point x="961" y="216"/>
      <point x="946" y="190" type="curve"/>
      <point x="935" y="169"/>
      <point x="920" y="149"/>
      <point x="901" y="132" type="curve"/>
      <point x="882" y="115"/>
      <point x="859" y="100"/>
      <point x="834" y="88" type="curve"/>
      <point x="809" y="76"/>
      <point x="781" y="67"/>
      <point x="751" y="61" type="curve"/>
      <point x="720" y="54"/>
      <point x="689" y="51"/>
      <point x="657" y="51" type="curve"/>
      <point x="534" y="51"/>
      <point x="448" y="93"/>
      <point x="401" y="176" type="curve"/>
      <point x="386" y="203"/>
      <point x="375" y="235"/>
      <point x="368" y="271" type="curve"/>
      <point x="361" y="306"/>
      <point x="358" y="351"/>
      <point x="358" y="406" type="curve"/>
      <point x="358" y="963" type="line"/>
      <point x="358" y="994"/>
      <point x="360" y="1019"/>
      <point x="363" y="1038" type="curve"/>
      <point x="366" y="1057"/>
      <point x="374" y="1073"/>
      <point x="385" y="1084" type="curve"/>
      <point x="396" y="1095"/>
      <point x="412" y="1102"/>
      <point x="433" y="1107" type="curve"/>
      <point x="454" y="1112"/>
      <point x="481" y="1115"/>
      <point x="516" y="1118" type="curve"/>
      <point x="516" y="1153" type="line"/>
      <point x="25" y="1153" type="line"/>
      <point x="25" y="1118" type="line"/>
      <point x="59" y="1115"/>
      <point x="86" y="1112"/>
      <point x="107" y="1108" type="curve"/>
      <point x="128" y="1103"/>
      <point x="143" y="1096"/>
      <point x="154" y="1085" type="curve"/>
      <point x="165" y="1074"/>
      <point x="172" y="1059"/>
      <point x="175" y="1040" type="curve"/>
      <point x="178" y="1021"/>
      <point x="180" y="995"/>
      <point x="180" y="963" type="curve"/>
      <point x="180" y="420" type="line"/>
      <point x="180" y="269"/>
      <point x="216" y="157"/>
      <point x="288" y="84" type="curve"/>
      <point x="360" y="11"/>
      <point x="470" y="-25"/>
      <point x="618" y="-25" type="curve"/>
      <point x="807" y="-25"/>
      <point x="936" y="35"/>
      <point x="1006" y="156" type="curve"/>
      <point x="1017" y="173"/>
      <point x="1026" y="192"/>
      <point x="1033" y="211" type="curve"/>
      <point x="1040" y="230"/>
      <point x="1046" y="252"/>
      <point x="1051" y="275" type="curve"/>
      <point x="1055" y="298"/>
      <point x="1058" y="323"/>
      <point x="1060" y="350" type="curve"/>
      <point x="1062" y="377"/>
      <point x="1063" y="408"/>
    </contour>
  </outline>
</glyph>
<glyph name="V" format="2">
  <advance width="1257"/>
  <unicode hex="0056"/>
  <outline>
    <contour>
      <point x="1212" y="1118" type="curve"/>
      <point x="1212" y="1153" type="line"/>
      <point x="856" y="1153" type="line"/>
      <point x="856" y="1118" type="line"/>
      <point x="880" y="1117"/>
      <point x="900" y="1115"/>
      <point x="917" y="1112" type="curve"/>
      <point x="933" y="1109"/>
      <point x="946" y="1104"/>
      <point x="956" y="1099" type="curve"/>
      <point x="965" y="1093"/>
      <point x="972" y="1086"/>
      <point x="977" y="1078" type="curve"/>
      <point x="981" y="1069"/>
      <point x="983" y="1059"/>
      <point x="983" y="1047" type="curve"/>
      <point x="983" y="1032"/>
      <point x="980" y="1013"/>
      <point x="975" y="991" type="curve"/>
      <point x="970" y="969"/>
      <point x="961" y="945"/>
      <point x="950" y="920" type="curve"/>
      <point x="694" y="281" type="line"/>
      <point x="432" y="868" type="line"/>
      <point x="417" y="899"/>
      <point x="405" y="926"/>
      <point x="396" y="948" type="curve"/>
      <point x="387" y="969"/>
      <point x="379" y="988"/>
      <point x="374" y="1003" type="curve"/>
      <point x="369" y="1018"/>
      <point x="365" y="1030"/>
      <point x="363" y="1039" type="curve"/>
      <point x="361" y="1048"/>
      <point x="360" y="1056"/>
      <point x="360" y="1063" type="curve"/>
      <point x="360" y="1084"/>
      <point x="371" y="1099"/>
      <point x="392" y="1106" type="curve"/>
      <point x="413" y="1113"/>
      <point x="447" y="1117"/>
      <point x="492" y="1118" type="curve"/>
      <point x="492" y="1153" type="line"/>
      <point x="29" y="1153" type="line"/>
      <point x="29" y="1118" type="line"/>
      <point x="50" y="1118"/>
      <point x="67" y="1116"/>
      <point x="82" y="1111" type="curve"/>
      <point x="97" y="1106"/>
      <point x="111" y="1098"/>
      <point x="124" y="1085" type="curve"/>
      <point x="137" y="1072"/>
      <point x="150" y="1053"/>
      <point x="164" y="1030" type="curve"/>
      <point x="177" y="1007"/>
      <point x="194" y="976"/>
      <point x="213" y="938" type="curve"/>
      <point x="641" y="-20" type="line"/>
      <point x="666" y="-20" type="line"/>
      <point x="1053" y="956" type="line"/>
      <point x="1068" y="991"/>
      <point x="1080" y="1019"/>
      <point x="1091" y="1040" type="curve"/>
      <point x="1102" y="1061"/>
      <point x="1113" y="1077"/>
      <point x="1124" y="1088" type="curve"/>
      <point x="1135" y="1099"/>
      <point x="1147" y="1106"/>
      <point x="1161" y="1110" type="curve"/>
      <point x="1174" y="1114"/>
      <point x="1191" y="1117"/>
    </contour>
  </outline>
</glyph>
<glyph name="W" format="2">
  <advance width="1642"/>
  <unicode hex="0057"/>
  <outline>
    <contour>
      <point x="1622" y="1118" type="curve"/>
      <point x="1622" y="1153" type="line"/>
      <point x="1278" y="1153" type="line"/>
      <point x="1278" y="1118" type="line"/>
      <point x="1323" y="1114"/>
      <point x="1355" y="1107"/>
      <point x="1373" y="1096" type="curve"/>
      <point x="1390" y="1085"/>
      <point x="1399" y="1068"/>
      <point x="1399" y="1044" type="curve"/>
      <point x="1399" y="1027"/>
      <point x="1397" y="1007"/>
      <point x="1392" y="985" type="curve"/>
      <point x="1387" y="962"/>
      <point x="1379" y="938"/>
      <point x="1370" y="913" type="curve"/>
      <point x="1153" y="324" type="line"/>
      <point x="922" y="918" type="line"/>
      <point x="909" y="952"/>
      <point x="897" y="980"/>
      <point x="888" y="1002" type="curve"/>
      <point x="879" y="1023"/>
      <point x="874" y="1042"/>
      <point x="874" y="1059" type="curve"/>
      <point x="874" y="1080"/>
      <point x="885" y="1095"/>
      <point x="906" y="1104" type="curve"/>
      <point x="927" y="1113"/>
      <point x="961" y="1118"/>
      <point x="1010" y="1118" type="curve"/>
      <point x="1010" y="1153" type="line"/>
      <point x="545" y="1153" type="line"/>
      <point x="545" y="1118" type="line"/>
      <point x="570" y="1118"/>
      <point x="591" y="1117"/>
      <point x="607" y="1114" type="curve"/>
      <point x="623" y="1111"/>
      <point x="637" y="1104"/>
      <point x="649" y="1094" type="curve"/>
      <point x="661" y="1083"/>
      <point x="672" y="1068"/>
      <point x="683" y="1047" type="curve"/>
      <point x="694" y="1026"/>
      <point x="706" y="998"/>
      <point x="721" y="963" type="curve"/>
      <point x="778" y="819" type="line"/>
      <point x="592" y="330" type="line"/>
      <point x="342" y="983" type="line"/>
      <point x="335" y="1000"/>
      <point x="330" y="1015"/>
      <point x="327" y="1029" type="curve"/>
      <point x="324" y="1042"/>
      <point x="322" y="1054"/>
      <point x="322" y="1063" type="curve"/>
      <point x="322" y="1073"/>
      <point x="324" y="1081"/>
      <point x="328" y="1088" type="curve"/>
      <point x="331" y="1095"/>
      <point x="337" y="1100"/>
      <point x="346" y="1104" type="curve"/>
      <point x="355" y="1108"/>
      <point x="366" y="1111"/>
      <point x="381" y="1113" type="curve"/>
      <point x="395" y="1115"/>
      <point x="413" y="1117"/>
      <point x="434" y="1118" type="curve"/>
      <point x="434" y="1153" type="line"/>
      <point x="8" y="1153" type="line"/>
      <point x="8" y="1118" type="line"/>
      <point x="31" y="1117"/>
      <point x="50" y="1113"/>
      <point x="65" y="1107" type="curve"/>
      <point x="80" y="1100"/>
      <point x="95" y="1090"/>
      <point x="108" y="1075" type="curve"/>
      <point x="121" y="1060"/>
      <point x="133" y="1040"/>
      <point x="146" y="1015" type="curve"/>
      <point x="158" y="989"/>
      <point x="172" y="956"/>
      <point x="188" y="915" type="curve"/>
      <point x="524" y="-20" type="line"/>
      <point x="551" y="-20" type="line"/>
      <point x="819" y="717" type="line"/>
      <point x="1096" y="-20" type="line"/>
      <point x="1122" y="-20" type="line"/>
      <point x="1141" y="37"/>
      <point x="1157" y="88"/>
      <point x="1172" y="133" type="curve"/>
      <point x="1214" y="259" type="line"/>
      <point x="1227" y="297"/>
      <point x="1239" y="333"/>
      <point x="1250" y="366" type="curve"/>
      <point x="1261" y="399"/>
      <point x="1273" y="433"/>
      <point x="1285" y="466" type="curve"/>
      <point x="1297" y="499"/>
      <point x="1309" y="533"/>
      <point x="1322" y="568" type="curve"/>
      <point x="1335" y="603"/>
      <point x="1349" y="642"/>
      <point x="1364" y="684" type="curve"/>
      <point x="1379" y="725"/>
      <point x="1397" y="772"/>
      <point x="1416" y="823" type="curve"/>
      <point x="1435" y="874"/>
      <point x="1456" y="931"/>
      <point x="1479" y="995" type="curve"/>
      <point x="1487" y="1018"/>
      <point x="1495" y="1036"/>
      <point x="1502" y="1050" type="curve"/>
      <point x="1509" y="1064"/>
      <point x="1517" y="1075"/>
      <point x="1527" y="1084" type="curve"/>
      <point x="1537" y="1093"/>
      <point x="1550" y="1100"/>
      <point x="1565" y="1105" type="curve"/>
      <point x="1580" y="1110"/>
      <point x="1599" y="1114"/>
    </contour>
  </outline>
</glyph>
<glyph name="X" format="2">
  <advance width="1257"/>
  <unicode hex="0058"/>
  <outline>
    <contour>
      <point x="1210" y="1118" type="curve"/>
      <point x="1210" y="1153" type="line"/>
      <point x="797" y="1153" type="line"/>
      <point x="797" y="1118" type="line"/>
      <point x="821" y="1117"/>
      <point x="841" y="1116"/>
      <point x="857" y="1114" type="curve"/>
      <point x="872" y="1112"/>
      <point x="885" y="1109"/>
      <point x="895" y="1105" type="curve"/>
      <point x="904" y="1100"/>
      <point x="911" y="1095"/>
      <point x="915" y="1088" type="curve"/>
      <point x="918" y="1081"/>
      <point x="920" y="1073"/>
      <point x="920" y="1063" type="curve"/>
      <point x="920" y="1052"/>
      <point x="915" y="1037"/>
      <point x="904" y="1019" type="curve"/>
      <point x="893" y="1001"/>
      <point x="875" y="975"/>
      <point x="850" y="942" type="curve"/>
      <point x="653" y="702" type="line"/>
      <point x="580" y="807" type="line"/>
      <point x="554" y="844"/>
      <point x="532" y="877"/>
      <point x="513" y="905" type="curve"/>
      <point x="494" y="933"/>
      <point x="479" y="957"/>
      <point x="467" y="978" type="curve"/>
      <point x="455" y="999"/>
      <point x="446" y="1016"/>
      <point x="441" y="1031" type="curve"/>
      <point x="435" y="1045"/>
      <point x="432" y="1057"/>
      <point x="432" y="1067" type="curve"/>
      <point x="432" y="1084"/>
      <point x="439" y="1097"/>
      <point x="452" y="1105" type="curve"/>
      <point x="465" y="1112"/>
      <point x="485" y="1117"/>
      <point x="514" y="1118" type="curve"/>
      <point x="563" y="1118" type="line"/>
      <point x="563" y="1153" type="line"/>
      <point x="39" y="1153" type="line"/>
      <point x="39" y="1118" type="line"/>
      <point x="67" y="1118"/>
      <point x="91" y="1115"/>
      <point x="112" y="1109" type="curve"/>
      <point x="132" y="1103"/>
      <point x="153" y="1090"/>
      <point x="175" y="1071" type="curve"/>
      <point x="196" y="1052"/>
      <point x="221" y="1024"/>
      <point x="248" y="989" type="curve"/>
      <point x="275" y="953"/>
      <point x="311" y="905"/>
      <point x="354" y="846" type="curve"/>
      <point x="543" y="567" type="line"/>
      <point x="268" y="231" type="line"/>
      <point x="230" y="184"/>
      <point x="200" y="148"/>
      <point x="177" y="123" type="curve"/>
      <point x="154" y="97"/>
      <point x="135" y="78"/>
      <point x="119" y="65" type="curve"/>
      <point x="102" y="52"/>
      <point x="87" y="44"/>
      <point x="72" y="41" type="curve"/>
      <point x="57" y="38"/>
      <point x="39" y="35"/>
      <point x="16" y="33" type="curve"/>
      <point x="16" y="0" type="line"/>
      <point x="424" y="0" type="line"/>
      <point x="424" y="33" type="line"/>
      <point x="398" y="36"/>
      <point x="376" y="38"/>
      <point x="359" y="41" type="curve"/>
      <point x="342" y="43"/>
      <point x="328" y="46"/>
      <point x="318" y="51" type="curve"/>
      <point x="308" y="55"/>
      <point x="301" y="60"/>
      <point x="297" y="67" type="curve"/>
      <point x="293" y="74"/>
      <point x="291" y="83"/>
      <point x="291" y="94" type="curve"/>
      <point x="291" y="105"/>
      <point x="298" y="123"/>
      <point x="312" y="148" type="curve"/>
      <point x="325" y="173"/>
      <point x="349" y="205"/>
      <point x="383" y="244" type="curve"/>
      <point x="588" y="502" type="line"/>
      <point x="754" y="258" type="line"/>
      <point x="813" y="173"/>
      <point x="842" y="115"/>
      <point x="842" y="86" type="curve"/>
      <point x="842" y="55"/>
      <point x="813" y="39"/>
      <point x="756" y="37" type="curve"/>
      <point x="753" y="37"/>
      <point x="747" y="37"/>
      <point x="739" y="36" type="curve"/>
      <point x="730" y="35"/>
      <point x="720" y="34"/>
      <point x="709" y="33" type="curve"/>
      <point x="709" y="0" type="line"/>
      <point x="1227" y="0" type="line"/>
      <point x="1227" y="33" type="line"/>
      <point x="1204" y="36"/>
      <point x="1184" y="39"/>
      <point x="1168" y="43" type="curve"/>
      <point x="1151" y="47"/>
      <point x="1136" y="54"/>
      <point x="1123" y="63" type="curve"/>
      <point x="1109" y="72"/>
      <point x="1095" y="84"/>
      <point x="1081" y="100" type="curve"/>
      <point x="1067" y="115"/>
      <point x="1051" y="136"/>
      <point x="1032" y="162" type="curve"/>
      <point x="698" y="639" type="line"/>
      <point x="952" y="954" type="line"/>
      <point x="979" y="989"/>
      <point x="1003" y="1018"/>
      <point x="1024" y="1039" type="curve"/>
      <point x="1044" y="1060"/>
      <point x="1063" y="1076"/>
      <point x="1082" y="1087" type="curve"/>
      <point x="1101" y="1098"/>
      <point x="1120" y="1106"/>
      <point x="1140" y="1110" type="curve"/>
      <point x="1160" y="1114"/>
      <point x="1183" y="1117"/>
    </contour>
  </outline>
</glyph>
<glyph name="Y" format="2">
  <advance width="1257"/>
  <unicode hex="0059"/>
  <outline>
    <contour>
      <point x="1225" y="1118" type="curve"/>
      <point x="1225" y="1153" type="line"/>
      <point x="842" y="1153" type="line"/>
      <point x="842" y="1118" type="line"/>
      <point x="887" y="1118"/>
      <point x="919" y="1114"/>
      <point x="937" y="1106" type="curve"/>
      <point x="954" y="1098"/>
      <point x="963" y="1084"/>
      <point x="963" y="1063" type="curve"/>
      <point x="963" y="1054"/>
      <point x="961" y="1044"/>
      <point x="957" y="1033" type="curve"/>
      <point x="952" y="1022"/>
      <point x="946" y="1010"/>
      <point x="938" y="997" type="curve"/>
      <point x="688" y="604" type="line"/>
      <point x="432" y="989" type="line"/>
      <point x="423" y="1004"/>
      <point x="415" y="1019"/>
      <point x="410" y="1033" type="curve"/>
      <point x="404" y="1046"/>
      <point x="401" y="1058"/>
      <point x="401" y="1067" type="curve"/>
      <point x="401" y="1088"/>
      <point x="411" y="1101"/>
      <point x="432" y="1107" type="curve"/>
      <point x="452" y="1113"/>
      <point x="483" y="1117"/>
      <point x="524" y="1118" type="curve"/>
      <point x="524" y="1153" type="line"/>
      <point x="39" y="1153" type="line"/>
      <point x="39" y="1118" type="line"/>
      <point x="59" y="1118"/>
      <point x="77" y="1115"/>
      <point x="93" y="1110" type="curve"/>
      <point x="109" y="1105"/>
      <point x="127" y="1093"/>
      <point x="147" y="1074" type="curve"/>
      <point x="166" y="1055"/>
      <point x="189" y="1027"/>
      <point x="216" y="991" type="curve"/>
      <point x="243" y="955"/>
      <point x="277" y="907"/>
      <point x="319" y="846" type="curve"/>
      <point x="549" y="512" type="line"/>
      <point x="549" y="209" type="line"/>
      <point x="549" y="170"/>
      <point x="547" y="140"/>
      <point x="544" y="118" type="curve"/>
      <point x="540" y="96"/>
      <point x="532" y="79"/>
      <point x="520" y="67" type="curve"/>
      <point x="508" y="55"/>
      <point x="490" y="47"/>
      <point x="467" y="43" type="curve"/>
      <point x="444" y="39"/>
      <point x="412" y="36"/>
      <point x="373" y="33" type="curve"/>
      <point x="373" y="0" type="line"/>
      <point x="905" y="0" type="line"/>
      <point x="905" y="33" type="line"/>
      <point x="867" y="34"/>
      <point x="836" y="37"/>
      <point x="813" y="41" type="curve"/>
      <point x="789" y="45"/>
      <point x="771" y="53"/>
      <point x="758" y="64" type="curve"/>
      <point x="745" y="75"/>
      <point x="736" y="90"/>
      <point x="732" y="110" type="curve"/>
      <point x="727" y="130"/>
      <point x="725" y="157"/>
      <point x="725" y="190" type="curve"/>
      <point x="725" y="528" type="line"/>
      <point x="983" y="922" type="line"/>
      <point x="1010" y="960"/>
      <point x="1034" y="991"/>
      <point x="1054" y="1016" type="curve"/>
      <point x="1074" y="1040"/>
      <point x="1093" y="1059"/>
      <point x="1111" y="1074" type="curve"/>
      <point x="1128" y="1089"/>
      <point x="1146" y="1099"/>
      <point x="1164" y="1106" type="curve"/>
      <point x="1181" y="1113"/>
      <point x="1202" y="1117"/>
    </contour>
  </outline>
</glyph>
<glyph name="Z" format="2">
  <advance width="1063"/>
  <unicode hex="005A"/>
  <outline>
    <contour>
      <point x="997" y="0" type="line"/>
      <point x="1040" y="305" type="line"/>
      <point x="999" y="305" type="line"/>
      <point x="992" y="281"/>
      <point x="985" y="261"/>
      <point x="979" y="244" type="curve"/>
      <point x="972" y="227"/>
      <point x="966" y="212"/>
      <point x="959" y="199" type="curve"/>
      <point x="952" y="186"/>
      <point x="946" y="175"/>
      <point x="939" y="165" type="curve"/>
      <point x="932" y="154"/>
      <point x="925" y="144"/>
      <point x="918" y="133" type="curve"/>
      <point x="874" y="88"/>
      <point x="801" y="66"/>
      <point x="700" y="66" type="curve"/>
      <point x="252" y="66" type="line"/>
      <point x="1006" y="1126" type="line"/>
      <point x="1006" y="1153" type="line"/>
      <point x="88" y="1153" type="line"/>
      <point x="53" y="854" type="line"/>
      <point x="98" y="854" type="line"/>
      <point x="102" y="877"/>
      <point x="106" y="896"/>
      <point x="111" y="911" type="curve"/>
      <point x="115" y="926"/>
      <point x="119" y="940"/>
      <point x="124" y="952" type="curve"/>
      <point x="128" y="963"/>
      <point x="133" y="974"/>
      <point x="139" y="983" type="curve"/>
      <point x="144" y="992"/>
      <point x="151" y="1002"/>
      <point x="158" y="1012" type="curve"/>
      <point x="197" y="1061"/>
      <point x="274" y="1085"/>
      <point x="391" y="1085" type="curve"/>
      <point x="776" y="1085" type="line"/>
      <point x="14" y="27" type="line"/>
      <point x="14" y="0" type="line"/>
    </contour>
  </outline>
</glyph>
<glyph name="bracketleft" format="2">
  <advance width="491"/>
  <unicode hex="005B"/>
  <outline>
    <contour>
      <point x="483" y="-362" type="line"/>
      <point x="483" y="-319" type="line"/>
      <point x="233" y="-319" type="line"/>
      <point x="233" y="1188" type="line"/>
      <point x="483" y="1188" type="line"/>
      <point x="483" y="1231" type="line"/>
      <point x="139" y="1231" type="line"/>
      <point x="139" y="-362" type="line"/>
    </contour>
  </outline>
</glyph>
<glyph name="backslash" format="2">
  <advance width="424"/>
  <unicode hex="005C"/>
  <outline>
    <contour>
      <point x="377" y="-92" type="line"/>
      <point x="111" y="1118" type="line"/>
      <point x="43" y="1118" type="line"/>
      <point x="307" y="-92" type="line"/>
    </contour>
  </outline>
</glyph>
<glyph name="bracketright" format="2">
  <advance width="491"/>
  <unicode hex="005D"/>
  <outline>
    <contour>
      <point x="489" y="-362" type="line"/>
      <point x="489" y="1231" type="line"/>
      <point x="147" y="1231" type="line"/>
      <point x="147" y="1188" type="line"/>
      <point x="397" y="1188" type="line"/>
      <point x="397" y="-319" type="line"/>
      <point x="147" y="-319" type="line"/>
      <point x="147" y="-362" type="line"/>
    </contour>
  </outline>
</glyph>
<glyph name="asciicircum" format="2">
  <advance width="817"/>
  <unicode hex="005E"/>
  <outline>
    <contour>
      <point x="356" y="1153" type="line"/>
      <point x="43" y="516" type="line"/>
      <point x="160" y="516" type="line"/>
      <point x="410" y="1020" type="line"/>
      <point x="657" y="516" type="line"/>
      <point x="776" y="516" type="line"/>
      <point x="463" y="1153" type="line"/>
    </contour>
  </outline>
</glyph>
<glyph name="underscore" format="2">
  <advance width="870"/>
  <unicode hex="005F"/>
  <outline>
    <contour>
      <point x="0" y="-131" type="line"/>
      <point x="0" y="-217" type="line"/>
      <point x="870" y="-217" type="line"/>
      <point x="870" y="-131" type="line"/>
    </contour>
  </outline>
</glyph>
<glyph name="grave" format="2">
  <advance width="580"/>
  <unicode hex="0060"/>
  <outline>
    <contour>
      <point x="84" y="1051" type="curve"/>
      <point x="352" y="883" type="line"/>
      <point x="422" y="883" type="line"/>
      <point x="166" y="1141" type="line"/>
      <point x="149" y="1156"/>
      <point x="136" y="1167"/>
      <point x="126" y="1173" type="curve"/>
      <point x="116" y="1179"/>
      <point x="105" y="1182"/>
      <point x="92" y="1182" type="curve"/>
      <point x="75" y="1182"/>
      <point x="61" y="1177"/>
      <point x="50" y="1167" type="curve"/>
      <point x="39" y="1156"/>
      <point x="33" y="1143"/>
      <point x="33" y="1126" type="curve"/>
      <point x="33" y="1099"/>
      <point x="50" y="1074"/>
    </contour>
  </outline>
</glyph>
<glyph name="a" format="2">
  <advance width="772"/>
  <unicode hex="0061"/>
  <outline>
    <contour>
      <point x="768" y="70" type="curve"/>
      <point x="768" y="115" type="line"/>
      <point x="753" y="102"/>
      <point x="740" y="94"/>
      <point x="729" y="89" type="curve"/>
      <point x="718" y="84"/>
      <point x="705" y="82"/>
      <point x="692" y="82" type="curve"/>
      <point x="673" y="82"/>
      <point x="659" y="89"/>
      <point x="652" y="104" type="curve"/>
      <point x="645" y="118"/>
      <point x="641" y="144"/>
      <point x="641" y="182" type="curve"/>
      <point x="641" y="522" type="line"/>
      <point x="641" y="567"/>
      <point x="638" y="604"/>
      <point x="633" y="632" type="curve"/>
      <point x="628" y="660"/>
      <point x="619" y="684"/>
      <point x="606" y="705" type="curve"/>
      <point x="567" y="769"/>
      <point x="494" y="801"/>
      <point x="389" y="801" type="curve"/>
      <point x="348" y="801"/>
      <point x="309" y="796"/>
      <point x="274" y="786" type="curve"/>
      <point x="239" y="776"/>
      <point x="208" y="762"/>
      <point x="182" y="745" type="curve"/>
      <point x="156" y="727"/>
      <point x="136" y="706"/>
      <point x="121" y="683" type="curve"/>
      <point x="106" y="659"/>
      <point x="98" y="633"/>
      <point x="98" y="606" type="curve"/>
      <point x="98" y="596"/>
      <point x="100" y="586"/>
      <point x="104" y="577" type="curve"/>
      <point x="108" y="568"/>
      <point x="114" y="560"/>
      <point x="121" y="553" type="curve"/>
      <point x="128" y="546"/>
      <point x="135" y="540"/>
      <point x="144" y="536" type="curve"/>
      <point x="153" y="532"/>
      <point x="162" y="530"/>
      <point x="172" y="530" type="curve"/>
      <point x="182" y="530"/>
      <point x="192" y="532"/>
      <point x="202" y="536" type="curve"/>
      <point x="211" y="540"/>
      <point x="220" y="546"/>
      <point x="228" y="553" type="curve"/>
      <point x="235" y="560"/>
      <point x="241" y="567"/>
      <point x="246" y="576" type="curve"/>
      <point x="250" y="585"/>
      <point x="252" y="594"/>
      <point x="252" y="604" type="curve"/>
      <point x="252" y="607"/>
      <point x="252" y="612"/>
      <point x="251" y="618" type="curve"/>
      <point x="250" y="624"/>
      <point x="248" y="630"/>
      <point x="247" y="637" type="curve"/>
      <point x="246" y="644"/>
      <point x="245" y="650"/>
      <point x="244" y="657" type="curve"/>
      <point x="243" y="664"/>
      <point x="242" y="669"/>
      <point x="242" y="674" type="curve"/>
      <point x="242" y="686"/>
      <point x="245" y="697"/>
      <point x="252" y="708" type="curve"/>
      <point x="258" y="718"/>
      <point x="267" y="727"/>
      <point x="278" y="735" type="curve"/>
      <point x="289" y="742"/>
      <point x="303" y="748"/>
      <point x="318" y="753" type="curve"/>
      <point x="333" y="758"/>
      <point x="350" y="760"/>
      <point x="367" y="760" type="curve"/>
      <point x="409" y="760"/>
      <point x="442" y="748"/>
      <point x="465" y="724" type="curve"/>
      <point x="488" y="699"/>
      <point x="500" y="663"/>
      <point x="500" y="614" type="curve"/>
      <point x="500" y="508" type="line"/>
      <point x="455" y="491"/>
      <point x="417" y="476"/>
      <point x="385" y="463" type="curve"/>
      <point x="352" y="450"/>
      <point x="324" y="438"/>
      <point x="301" y="428" type="curve"/>
      <point x="277" y="418"/>
      <point x="257" y="409"/>
      <point x="240" y="401" type="curve"/>
      <point x="223" y="392"/>
      <point x="209" y="384"/>
      <point x="196" y="376" type="curve"/>
      <point x="183" y="368"/>
      <point x="171" y="359"/>
      <point x="160" y="350" type="curve"/>
      <point x="149" y="341"/>
      <point x="138" y="330"/>
      <point x="127" y="319" type="curve"/>
      <point x="108" y="303"/>
      <point x="93" y="281"/>
      <point x="82" y="254" type="curve"/>
      <point x="71" y="227"/>
      <point x="66" y="199"/>
      <point x="66" y="170" type="curve"/>
      <point x="66" y="142"/>
      <point x="70" y="117"/>
      <point x="79" y="94" type="curve"/>
      <point x="88" y="71"/>
      <point x="100" y="52"/>
      <point x="116" y="36" type="curve"/>
      <point x="132" y="19"/>
      <point x="151" y="7"/>
      <point x="174" y="-2" type="curve"/>
      <point x="196" y="-11"/>
      <point x="221" y="-16"/>
      <point x="248" y="-16" type="curve"/>
      <point x="267" y="-16"/>
      <point x="286" y="-14"/>
      <point x="305" y="-9" type="curve"/>
      <point x="324" y="-4"/>
      <point x="343" y="3"/>
      <point x="363" y="13" type="curve"/>
      <point x="383" y="23"/>
      <point x="404" y="36"/>
      <point x="427" y="52" type="curve"/>
      <point x="450" y="68"/>
      <point x="475" y="88"/>
      <point x="502" y="111" type="curve"/>
      <point x="506" y="64"/>
      <point x="516" y="32"/>
      <point x="533" y="13" type="curve"/>
      <point x="550" y="-6"/>
      <point x="576" y="-16"/>
      <point x="612" y="-16" type="curve"/>
      <point x="628" y="-16"/>
      <point x="642" y="-15"/>
      <point x="655" y="-12" type="curve"/>
      <point x="668" y="-10"/>
      <point x="680" y="-6"/>
      <point x="692" y="1" type="curve"/>
      <point x="704" y="7"/>
      <point x="716" y="16"/>
      <point x="728" y="27" type="curve"/>
      <point x="740" y="38"/>
      <point x="753" y="53"/>
    </contour>
    <contour>
      <point x="500" y="467" type="curve"/>
      <point x="500" y="213" type="line"/>
      <point x="500" y="188"/>
      <point x="497" y="169"/>
      <point x="492" y="156" type="curve"/>
      <point x="486" y="142"/>
      <point x="474" y="131"/>
      <point x="455" y="123" type="curve"/>
      <point x="434" y="110"/>
      <point x="412" y="101"/>
      <point x="388" y="94" type="curve"/>
      <point x="364" y="87"/>
      <point x="344" y="84"/>
      <point x="328" y="84" type="curve"/>
      <point x="313" y="84"/>
      <point x="298" y="88"/>
      <point x="285" y="95" type="curve"/>
      <point x="271" y="102"/>
      <point x="259" y="111"/>
      <point x="249" y="123" type="curve"/>
      <point x="239" y="135"/>
      <point x="231" y="149"/>
      <point x="226" y="165" type="curve"/>
      <point x="220" y="181"/>
      <point x="217" y="198"/>
      <point x="217" y="217" type="curve"/>
      <point x="217" y="223" type="line"/>
      <point x="217" y="250"/>
      <point x="222" y="274"/>
      <point x="232" y="296" type="curve"/>
      <point x="242" y="317"/>
      <point x="258" y="338"/>
      <point x="281" y="357" type="curve"/>
      <point x="304" y="376"/>
      <point x="333" y="394"/>
      <point x="369" y="412" type="curve"/>
      <point x="404" y="429"/>
      <point x="448" y="448"/>
    </contour>
  </outline>
</glyph>
<glyph name="b" format="2">
  <advance width="870"/>
  <unicode hex="0062"/>
  <outline>
    <contour>
      <point x="266" y="653" type="curve"/>
      <point x="266" y="1186" type="line"/>
      <point x="258" y="1190" type="line"/>
      <point x="239" y="1183"/>
      <point x="221" y="1177"/>
      <point x="206" y="1172" type="curve"/>
      <point x="191" y="1167"/>
      <point x="175" y="1162"/>
      <point x="160" y="1157" type="curve"/>
      <point x="144" y="1152"/>
      <point x="128" y="1147"/>
      <point x="111" y="1142" type="curve"/>
      <point x="94" y="1137"/>
      <point x="76" y="1132"/>
      <point x="55" y="1126" type="curve"/>
      <point x="4" y="1112" type="line"/>
      <point x="4" y="1085" type="line"/>
      <point x="35" y="1085" type="line"/>
      <point x="52" y="1085"/>
      <point x="67" y="1084"/>
      <point x="78" y="1082" type="curve"/>
      <point x="89" y="1080"/>
      <point x="97" y="1076"/>
      <point x="104" y="1070" type="curve"/>
      <point x="111" y="1063"/>
      <point x="115" y="1054"/>
      <point x="118" y="1043" type="curve"/>
      <point x="120" y="1031"/>
      <point x="121" y="1016"/>
      <point x="121" y="997" type="curve"/>
      <point x="121" y="94" type="line"/>
      <point x="121" y="80"/>
      <point x="129" y="67"/>
      <point x="146" y="54" type="curve"/>
      <point x="163" y="41"/>
      <point x="185" y="29"/>
      <point x="212" y="19" type="curve"/>
      <point x="239" y="8"/>
      <point x="269" y="0"/>
      <point x="304" y="-6" type="curve"/>
      <point x="338" y="-13"/>
      <point x="373" y="-16"/>
      <point x="408" y="-16" type="curve"/>
      <point x="465" y="-16"/>
      <point x="519" y="-5"/>
      <point x="568" y="18" type="curve"/>
      <point x="617" y="40"/>
      <point x="660" y="71"/>
      <point x="697" y="110" type="curve"/>
      <point x="733" y="149"/>
      <point x="761" y="196"/>
      <point x="782" y="250" type="curve"/>
      <point x="803" y="303"/>
      <point x="813" y="361"/>
      <point x="813" y="424" type="curve"/>
      <point x="813" y="477"/>
      <point x="805" y="527"/>
      <point x="790" y="573" type="curve"/>
      <point x="775" y="619"/>
      <point x="754" y="659"/>
      <point x="727" y="693" type="curve"/>
      <point x="700" y="726"/>
      <point x="667" y="753"/>
      <point x="630" y="772" type="curve"/>
      <point x="593" y="791"/>
      <point x="552" y="801"/>
      <point x="508" y="801" type="curve"/>
      <point x="482" y="801"/>
      <point x="456" y="797"/>
      <point x="431" y="790" type="curve"/>
      <point x="405" y="782"/>
      <point x="381" y="772"/>
      <point x="360" y="759" type="curve"/>
      <point x="339" y="746"/>
      <point x="320" y="730"/>
      <point x="303" y="712" type="curve"/>
      <point x="286" y="693"/>
      <point x="274" y="674"/>
    </contour>
    <contour>
      <point x="266" y="123" type="curve"/>
      <point x="266" y="559" type="line"/>
      <point x="266" y="577"/>
      <point x="271" y="594"/>
      <point x="280" y="610" type="curve"/>
      <point x="289" y="626"/>
      <point x="302" y="640"/>
      <point x="318" y="652" type="curve"/>
      <point x="334" y="663"/>
      <point x="352" y="673"/>
      <point x="373" y="680" type="curve"/>
      <point x="394" y="687"/>
      <point x="415" y="690"/>
      <point x="438" y="690" type="curve"/>
      <point x="472" y="690"/>
      <point x="503" y="682"/>
      <point x="531" y="666" type="curve"/>
      <point x="558" y="649"/>
      <point x="582" y="626"/>
      <point x="602" y="596" type="curve"/>
      <point x="621" y="566"/>
      <point x="636" y="530"/>
      <point x="647" y="487" type="curve"/>
      <point x="657" y="444"/>
      <point x="662" y="395"/>
      <point x="662" y="342" type="curve"/>
      <point x="662" y="243"/>
      <point x="643" y="167"/>
      <point x="604" y="116" type="curve"/>
      <point x="565" y="65"/>
      <point x="509" y="39"/>
      <point x="434" y="39" type="curve"/>
      <point x="411" y="39"/>
      <point x="390" y="41"/>
      <point x="370" y="46" type="curve"/>
      <point x="349" y="50"/>
      <point x="331" y="56"/>
      <point x="316" y="64" type="curve"/>
      <point x="301" y="71"/>
      <point x="289" y="80"/>
      <point x="280" y="90" type="curve"/>
      <point x="271" y="100"/>
      <point x="266" y="111"/>
    </contour>
  </outline>
</glyph>
<glyph name="c" format="2">
  <advance width="772"/>
  <unicode hex="0063"/>
  <outline>
    <contour>
      <point x="717" y="256" type="curve"/>
      <point x="692" y="270" type="line"/>
      <point x="671" y="240"/>
      <point x="652" y="215"/>
      <point x="633" y="194" type="curve"/>
      <point x="614" y="173"/>
      <point x="595" y="157"/>
      <point x="576" y="145" type="curve"/>
      <point x="557" y="132"/>
      <point x="537" y="123"/>
      <point x="516" y="118" type="curve"/>
      <point x="495" y="112"/>
      <point x="471" y="109"/>
      <point x="446" y="109" type="curve"/>
      <point x="407" y="109"/>
      <point x="371" y="117"/>
      <point x="338" y="134" type="curve"/>
      <point x="305" y="151"/>
      <point x="277" y="174"/>
      <point x="254" y="204" type="curve"/>
      <point x="230" y="233"/>
      <point x="211" y="269"/>
      <point x="198" y="310" type="curve"/>
      <point x="185" y="351"/>
      <point x="178" y="397"/>
      <point x="178" y="446" type="curve"/>
      <point x="178" y="491"/>
      <point x="184" y="533"/>
      <point x="195" y="570" type="curve"/>
      <point x="206" y="607"/>
      <point x="223" y="640"/>
      <point x="244" y="667" type="curve"/>
      <point x="265" y="694"/>
      <point x="289" y="715"/>
      <point x="318" y="730" type="curve"/>
      <point x="347" y="745"/>
      <point x="379" y="752"/>
      <point x="414" y="752" type="curve"/>
      <point x="445" y="752"/>
      <point x="468" y="746"/>
      <point x="484" y="734" type="curve"/>
      <point x="500" y="721"/>
      <point x="511" y="699"/>
      <point x="516" y="666" type="curve"/>
      <point x="528" y="629" type="line"/>
      <point x="535" y="604"/>
      <point x="546" y="585"/>
      <point x="561" y="571" type="curve"/>
      <point x="576" y="556"/>
      <point x="591" y="549"/>
      <point x="608" y="549" type="curve"/>
      <point x="631" y="549"/>
      <point x="651" y="556"/>
      <point x="668" y="571" type="curve"/>
      <point x="684" y="585"/>
      <point x="692" y="602"/>
      <point x="692" y="621" type="curve"/>
      <point x="692" y="646"/>
      <point x="685" y="669"/>
      <point x="671" y="691" type="curve"/>
      <point x="656" y="712"/>
      <point x="637" y="731"/>
      <point x="613" y="748" type="curve"/>
      <point x="588" y="764"/>
      <point x="560" y="777"/>
      <point x="528" y="787" type="curve"/>
      <point x="496" y="796"/>
      <point x="462" y="801"/>
      <point x="426" y="801" type="curve"/>
      <point x="335" y="801"/>
      <point x="252" y="768"/>
      <point x="178" y="702" type="curve"/>
      <point x="134" y="664"/>
      <point x="101" y="617"/>
      <point x="78" y="560" type="curve"/>
      <point x="55" y="503"/>
      <point x="43" y="440"/>
      <point x="43" y="371" type="curve"/>
      <point x="43" y="314"/>
      <point x="51" y="261"/>
      <point x="68" y="214" type="curve"/>
      <point x="84" y="167"/>
      <point x="107" y="126"/>
      <point x="136" y="92" type="curve"/>
      <point x="165" y="58"/>
      <point x="200" y="32"/>
      <point x="241" y="13" type="curve"/>
      <point x="282" y="-6"/>
      <point x="326" y="-16"/>
      <point x="375" y="-16" type="curve"/>
      <point x="415" y="-16"/>
      <point x="452" y="-10"/>
      <point x="485" y="3" type="curve"/>
      <point x="518" y="16"/>
      <point x="552" y="37"/>
      <point x="586" y="66" type="curve"/>
      <point x="598" y="76"/>
      <point x="609" y="87"/>
      <point x="619" y="98" type="curve"/>
      <point x="629" y="109"/>
      <point x="639" y="123"/>
      <point x="649" y="138" type="curve"/>
      <point x="659" y="153"/>
      <point x="670" y="170"/>
      <point x="681" y="189" type="curve"/>
      <point x="692" y="208"/>
      <point x="704" y="231"/>
    </contour>
  </outline>
</glyph>
<glyph name="d" format="2">
  <advance width="870"/>
  <unicode hex="0064"/>
  <outline>
    <contour>
      <point x="592" y="98" type="curve"/>
      <point x="592" y="-12" type="line"/>
      <point x="598" y="-16" type="line"/>
      <point x="854" y="74" type="line"/>
      <point x="854" y="100" type="line"/>
      <point x="849" y="99"/>
      <point x="844" y="98"/>
      <point x="841" y="98" type="curve"/>
      <point x="831" y="98" type="line"/>
      <point x="812" y="98"/>
      <point x="797" y="99"/>
      <point x="785" y="101" type="curve"/>
      <point x="772" y="103"/>
      <point x="763" y="108"/>
      <point x="756" y="115" type="curve"/>
      <point x="749" y="122"/>
      <point x="744" y="132"/>
      <point x="741" y="145" type="curve"/>
      <point x="738" y="158"/>
      <point x="737" y="176"/>
      <point x="737" y="199" type="curve"/>
      <point x="737" y="1186" type="line"/>
      <point x="729" y="1190" type="line"/>
      <point x="708" y="1182"/>
      <point x="689" y="1175"/>
      <point x="670" y="1169" type="curve"/>
      <point x="651" y="1162"/>
      <point x="632" y="1156"/>
      <point x="612" y="1151" type="curve"/>
      <point x="592" y="1146"/>
      <point x="571" y="1140"/>
      <point x="549" y="1134" type="curve"/>
      <point x="526" y="1127"/>
      <point x="501" y="1120"/>
      <point x="473" y="1112" type="curve"/>
      <point x="473" y="1085" type="line"/>
      <point x="512" y="1085" type="line"/>
      <point x="529" y="1085"/>
      <point x="542" y="1084"/>
      <point x="553" y="1082" type="curve"/>
      <point x="563" y="1079"/>
      <point x="571" y="1075"/>
      <point x="577" y="1068" type="curve"/>
      <point x="583" y="1061"/>
      <point x="587" y="1052"/>
      <point x="589" y="1041" type="curve"/>
      <point x="591" y="1030"/>
      <point x="592" y="1015"/>
      <point x="592" y="997" type="curve"/>
      <point x="592" y="725" type="line"/>
      <point x="560" y="754"/>
      <point x="530" y="774"/>
      <point x="502" y="785" type="curve"/>
      <point x="473" y="796"/>
      <point x="443" y="801"/>
      <point x="410" y="801" type="curve"/>
      <point x="360" y="801"/>
      <point x="313" y="790"/>
      <point x="269" y="767" type="curve"/>
      <point x="224" y="744"/>
      <point x="186" y="712"/>
      <point x="153" y="672" type="curve"/>
      <point x="120" y="632"/>
      <point x="95" y="585"/>
      <point x="76" y="531" type="curve"/>
      <point x="57" y="477"/>
      <point x="47" y="419"/>
      <point x="47" y="356" type="curve"/>
      <point x="47" y="300"/>
      <point x="55" y="249"/>
      <point x="71" y="204" type="curve"/>
      <point x="86" y="158"/>
      <point x="108" y="119"/>
      <point x="137" y="87" type="curve"/>
      <point x="165" y="54"/>
      <point x="199" y="29"/>
      <point x="238" y="11" type="curve"/>
      <point x="277" y="-7"/>
      <point x="321" y="-16"/>
      <point x="369" y="-16" type="curve"/>
      <point x="418" y="-16"/>
      <point x="461" y="-7"/>
      <point x="496" y="10" type="curve"/>
      <point x="531" y="27"/>
      <point x="563" y="57"/>
    </contour>
    <contour>
      <point x="592" y="578" type="curve"/>
      <point x="592" y="178" type="line"/>
      <point x="592" y="173"/>
      <point x="589" y="165"/>
      <point x="584" y="155" type="curve"/>
      <point x="579" y="144"/>
      <point x="572" y="134"/>
      <point x="563" y="125" type="curve"/>
      <point x="531" y="91"/>
      <point x="489" y="74"/>
      <point x="436" y="74" type="curve"/>
      <point x="401" y="74"/>
      <point x="368" y="82"/>
      <point x="339" y="99" type="curve"/>
      <point x="310" y="116"/>
      <point x="285" y="139"/>
      <point x="264" y="170" type="curve"/>
      <point x="243" y="200"/>
      <point x="226" y="237"/>
      <point x="215" y="280" type="curve"/>
      <point x="203" y="323"/>
      <point x="197" y="372"/>
      <point x="197" y="426" type="curve"/>
      <point x="197" y="476"/>
      <point x="202" y="521"/>
      <point x="213" y="561" type="curve"/>
      <point x="223" y="601"/>
      <point x="238" y="635"/>
      <point x="257" y="664" type="curve"/>
      <point x="276" y="692"/>
      <point x="298" y="714"/>
      <point x="325" y="729" type="curve"/>
      <point x="352" y="744"/>
      <point x="381" y="752"/>
      <point x="414" y="752" type="curve"/>
      <point x="437" y="752"/>
      <point x="459" y="747"/>
      <point x="481" y="738" type="curve"/>
      <point x="502" y="728"/>
      <point x="521" y="715"/>
      <point x="538" y="699" type="curve"/>
      <point x="554" y="683"/>
      <point x="567" y="665"/>
      <point x="577" y="644" type="curve"/>
      <point x="587" y="623"/>
      <point x="592" y="601"/>
    </contour>
  </outline>
</glyph>
<glyph name="e" format="2">
  <advance width="772"/>
  <unicode hex="0065"/>
  <outline>
    <contour>
      <point x="737" y="274" type="curve"/>
      <point x="711" y="287" type="line"/>
      <point x="690" y="253"/>
      <point x="670" y="224"/>
      <point x="650" y="201" type="curve"/>
      <point x="629" y="178"/>
      <point x="608" y="159"/>
      <point x="586" y="144" type="curve"/>
      <point x="564" y="129"/>
      <point x="541" y="119"/>
      <point x="517" y="112" type="curve"/>
      <point x="493" y="105"/>
      <point x="467" y="102"/>
      <point x="440" y="102" type="curve"/>
      <point x="401" y="102"/>
      <point x="366" y="110"/>
      <point x="334" y="126" type="curve"/>
      <point x="301" y="141"/>
      <point x="273" y="165"/>
      <point x="250" y="196" type="curve"/>
      <point x="226" y="227"/>
      <point x="207" y="267"/>
      <point x="193" y="315" type="curve"/>
      <point x="179" y="362"/>
      <point x="171" y="418"/>
      <point x="170" y="481" type="curve"/>
      <point x="705" y="481" type="line"/>
      <point x="702" y="509"/>
      <point x="699" y="534"/>
      <point x="695" y="556" type="curve"/>
      <point x="690" y="577"/>
      <point x="685" y="597"/>
      <point x="679" y="614" type="curve"/>
      <point x="672" y="631"/>
      <point x="665" y="646"/>
      <point x="658" y="660" type="curve"/>
      <point x="650" y="674"/>
      <point x="641" y="687"/>
      <point x="631" y="700" type="curve"/>
      <point x="606" y="733"/>
      <point x="574" y="759"/>
      <point x="535" y="776" type="curve"/>
      <point x="496" y="793"/>
      <point x="453" y="801"/>
      <point x="408" y="801" type="curve"/>
      <point x="357" y="801"/>
      <point x="310" y="791"/>
      <point x="266" y="771" type="curve"/>
      <point x="221" y="751"/>
      <point x="183" y="723"/>
      <point x="150" y="686" type="curve"/>
      <point x="117" y="649"/>
      <point x="91" y="604"/>
      <point x="72" y="551" type="curve"/>
      <point x="53" y="498"/>
      <point x="43" y="439"/>
      <point x="43" y="373" type="curve"/>
      <point x="43" y="312"/>
      <point x="51" y="258"/>
      <point x="66" y="210" type="curve"/>
      <point x="81" y="162"/>
      <point x="102" y="121"/>
      <point x="131" y="88" type="curve"/>
      <point x="159" y="54"/>
      <point x="193" y="28"/>
      <point x="234" y="11" type="curve"/>
      <point x="274" y="-7"/>
      <point x="319" y="-16"/>
      <point x="369" y="-16" type="curve"/>
      <point x="454" y="-16"/>
      <point x="528" y="8"/>
      <point x="590" y="56" type="curve"/>
      <point x="651" y="104"/>
      <point x="700" y="177"/>
    </contour>
    <contour>
      <point x="528" y="539" type="curve"/>
      <point x="172" y="539" type="line"/>
      <point x="181" y="608"/>
      <point x="201" y="658"/>
      <point x="231" y="690" type="curve"/>
      <point x="261" y="721"/>
      <point x="303" y="737"/>
      <point x="356" y="737" type="curve"/>
      <point x="384" y="737"/>
      <point x="407" y="734"/>
      <point x="426" y="728" type="curve"/>
      <point x="445" y="721"/>
      <point x="461" y="710"/>
      <point x="474" y="695" type="curve"/>
      <point x="487" y="680"/>
      <point x="497" y="659"/>
      <point x="506" y="634" type="curve"/>
      <point x="514" y="609"/>
      <point x="521" y="577"/>
    </contour>
  </outline>
</glyph>
<glyph name="f" format="2">
  <advance width="580"/>
  <unicode hex="0066"/>
  <outline>
    <contour>
      <point x="326" y="727" type="line"/>
      <point x="539" y="727" type="line"/>
      <point x="539" y="784" type="line"/>
      <point x="324" y="784" type="line"/>
      <point x="324" y="985" type="line"/>
      <point x="324" y="1035"/>
      <point x="332" y="1074"/>
      <point x="349" y="1101" type="curve"/>
      <point x="365" y="1128"/>
      <point x="390" y="1141"/>
      <point x="424" y="1141" type="curve"/>
      <point x="441" y="1141"/>
      <point x="457" y="1136"/>
      <point x="471" y="1126" type="curve"/>
      <point x="484" y="1115"/>
      <point x="499" y="1098"/>
      <point x="514" y="1073" type="curve"/>
      <point x="529" y="1050"/>
      <point x="543" y="1033"/>
      <point x="554" y="1024" type="curve"/>
      <point x="565" y="1015"/>
      <point x="579" y="1010"/>
      <point x="594" y="1010" type="curve"/>
      <point x="613" y="1010"/>
      <point x="630" y="1017"/>
      <point x="645" y="1030" type="curve"/>
      <point x="659" y="1043"/>
      <point x="666" y="1060"/>
      <point x="666" y="1081" type="curve"/>
      <point x="666" y="1097"/>
      <point x="662" y="1112"/>
      <point x="653" y="1125" type="curve"/>
      <point x="644" y="1138"/>
      <point x="632" y="1150"/>
      <point x="616" y="1160" type="curve"/>
      <point x="600" y="1169"/>
      <point x="581" y="1177"/>
      <point x="559" y="1182" type="curve"/>
      <point x="536" y="1187"/>
      <point x="512" y="1190"/>
      <point x="485" y="1190" type="curve"/>
      <point x="431" y="1190"/>
      <point x="383" y="1179"/>
      <point x="341" y="1157" type="curve"/>
      <point x="298" y="1134"/>
      <point x="265" y="1103"/>
      <point x="242" y="1063" type="curve"/>
      <point x="230" y="1043"/>
      <point x="220" y="1024"/>
      <point x="213" y="1006" type="curve"/>
      <point x="206" y="987"/>
      <point x="200" y="967"/>
      <point x="195" y="946" type="curve"/>
      <point x="190" y="925"/>
      <point x="187" y="901"/>
      <point x="184" y="875" type="curve"/>
      <point x="181" y="849"/>
      <point x="179" y="819"/>
      <point x="178" y="784" type="curve"/>
      <point x="37" y="784" type="line"/>
      <point x="37" y="727" type="line"/>
      <point x="178" y="727" type="line"/>
      <point x="178" y="180" type="line"/>
      <point x="178" y="149"/>
      <point x="177" y="124"/>
      <point x="174" y="105" type="curve"/>
      <point x="171" y="86"/>
      <point x="164" y="71"/>
      <point x="154" y="60" type="curve"/>
      <point x="144" y="49"/>
      <point x="130" y="41"/>
      <point x="111" y="36" type="curve"/>
      <point x="92" y="31"/>
      <point x="67" y="28"/>
      <point x="35" y="27" type="curve"/>
      <point x="35" y="0" type="line"/>
      <point x="487" y="0" type="line"/>
      <point x="487" y="27" type="line"/>
      <point x="452" y="28"/>
      <point x="424" y="31"/>
      <point x="403" y="35" type="curve"/>
      <point x="382" y="39"/>
      <point x="365" y="46"/>
      <point x="354" y="57" type="curve"/>
      <point x="343" y="68"/>
      <point x="335" y="83"/>
      <point x="332" y="103" type="curve"/>
      <point x="328" y="122"/>
      <point x="326" y="148"/>
      <point x="326" y="180" type="curve"/>
    </contour>
  </outline>
</glyph>
